/* XPM */
static char *rcp03123762293135[] = {
/* columns rows colors chars-per-pixel */
"64 64 226 2 ",
"   c #1C0D0A",
".  c #1C140D",
"X  c #16130F",
"o  c #1A0F14",
"O  c #161613",
"+  c #1A1213",
"@  c #171B1C",
"#  c #1D1D1C",
"$  c #191618",
"%  c #22120D",
"&  c #2A140C",
"*  c #37160D",
"=  c #241415",
"-  c #251D14",
";  c #2C1A14",
":  c #2B131A",
">  c #231D1D",
",  c #2A1D1C",
"<  c #291416",
"1  c #341C15",
"2  c #3B1C12",
"3  c #331C1A",
"4  c #3D1E1E",
"5  c #1D221E",
"6  c #22211E",
"7  c #2B231D",
"8  c #282419",
"9  c #32231D",
"0  c #3B241B",
"q  c #36291D",
"w  c #1E1E21",
"e  c #231F22",
"r  c #281E22",
"t  c #1E2222",
"y  c #1C2628",
"u  c #212121",
"i  c #2C2524",
"p  c #252B24",
"a  c #2C2925",
"s  c #242429",
"d  c #2A2629",
"f  c #252A2A",
"g  c #2D2A2A",
"h  c #322524",
"j  c #3B2524",
"k  c #332925",
"l  c #3A2B25",
"z  c #342C2B",
"x  c #3A2D2B",
"c  c #302728",
"v  c #35312C",
"b  c #3B322D",
"n  c #3A3126",
"m  c #282D31",
"M  c #392F31",
"N  c #352B33",
"B  c #353133",
"V  c #3D3532",
"C  c #363933",
"Z  c #3D3A35",
"A  c #3C3A38",
"S  c #2F3126",
"D  c #4A1E1A",
"F  c #511F1E",
"G  c #49231D",
"H  c #47261B",
"J  c #55231A",
"K  c #67281F",
"L  c #471F25",
"P  c #432423",
"I  c #4C2323",
"U  c #4C232A",
"Y  c #412E2A",
"T  c #4B2B2A",
"R  c #412827",
"E  c #522D22",
"W  c #53252A",
"Q  c #582B28",
"!  c #43332D",
"~  c #48382D",
"^  c #5E332E",
"/  c #543327",
"(  c #423534",
")  c #4A3634",
"_  c #443B35",
"`  c #4B3B35",
"'  c #423738",
"]  c #453C3A",
"[  c #4A3C3A",
"{  c #4A3739",
"}  c #503935",
"|  c #533E3C",
" . c #5A3533",
".. c #4C2F31",
"X. c #682C28",
"o. c #65342B",
"O. c #6B352C",
"+. c #663727",
"@. c #76382B",
"#. c #653534",
"$. c #643B33",
"%. c #6C3B31",
"&. c #6A3531",
"*. c #733A33",
"=. c #7A3B36",
"-. c #692D2D",
";. c #2C443D",
":. c #35443C",
">. c #494134",
",. c #45423B",
"<. c #4C423C",
"1. c #4E493D",
"2. c #444237",
"3. c #53453D",
"4. c #54493E",
"5. c #5B4B3D",
"6. c #57433C",
"7. c #7D4032",
"8. c #78423A",
"9. c #734132",
"0. c #313C42",
"q. c #4C3E41",
"w. c #463940",
"e. c #2D4543",
"r. c #3B4C45",
"t. c #384A48",
"y. c #4D4443",
"u. c #4E4B44",
"i. c #484948",
"p. c #534543",
"a. c #594643",
"s. c #544A44",
"d. c #5A4B45",
"f. c #554B4A",
"g. c #5B4D4B",
"h. c #564748",
"j. c #5D5246",
"k. c #5C514C",
"l. c #59544B",
"z. c #574D51",
"x. c #5D5151",
"c. c #575350",
"v. c #464C4E",
"b. c #614F4D",
"n. c #624C45",
"m. c #62524C",
"M. c #69574B",
"N. c #635554",
"B. c #645955",
"V. c #6A5C55",
"C. c #635659",
"Z. c #645A58",
"A. c #6C5D5A",
"S. c #695654",
"D. c #6A5756",
"F. c #6D635A",
"G. c #6E6257",
"H. c #736456",
"J. c #75655B",
"K. c #5A7B78",
"L. c #5B766F",
"P. c #6B6661",
"I. c #7E7265",
"U. c #7F746B",
"Y. c #7C786C",
"T. c #627978",
"R. c #7A7770",
"E. c #87392D",
"W. c #843C33",
"Q. c #863832",
"!. c #864333",
"~. c #86483B",
"^. c #826E67",
"/. c #827366",
"(. c #83736C",
"). c #8C776C",
"_. c #8B7B6E",
"`. c #877768",
"'. c #917A6E",
"]. c #837571",
"[. c #8B7B73",
"{. c #8D7C79",
"}. c #867A72",
"|. c #937E73",
" X c #907D79",
".X c #5A867B",
"XX c #8E8377",
"oX c #98877B",
"OX c #A98C7D",
"+X c #A48B7E",
"@X c #A5907F",
"#X c #689D93",
"$X c #6BA696",
"%X c #72A197",
"&X c #64A18F",
"*X c #79B1A6",
"=X c #7BAFA2",
"-X c #9A9B95",
";X c #9C8F87",
":X c #A49485",
">X c #A4958A",
",X c #A39A8B",
"<X c #AB9A8B",
"1X c #AB9788",
"2X c #B29B8C",
"3X c #B29789",
"4X c #A69991",
"5X c #AB9A92",
"6X c #A89790",
"7X c #A48E80",
"8X c #96A09F",
"9X c #B9A799",
"0X c #AFA397",
"qX c #979CA0",
"wX c #99A2A1",
"eX c #BDAFA2",
"rX c #C5B5A4",
"tX c #CBB3A7",
"yX c #CEBCB5",
"uX c #CCB6AB",
"iX c #90CEBF",
"pX c #A4C4BF",
"aX c #CBC2BA",
"sX c #90CEC1",
"dX c #94D5C7",
"fX c #A8C8C4",
/* pixels */
"y s s > 8 >./.OX+X).~ 1.4XyXyXyXaX4Xp.- 8 8 8 6 6 6 6 6 6 6 i i 7 7 7 , 7 7 i i > 8 7 8 ; s.>XaXaX-X3.` `.OXOXOX:X/.` 8 # u s e ",
"s @ e c n j.|.OX3XoXV.B.XX5X5X6X;X[.s.b b z i i z v v v v c i 6 l x v v v c i 6 z v z l l s.[.4X-X}.` ` '.2X2X3X@X`.j.! i e s w ",
"u u i ! M.`.oX1XrX9X0XXXS.5.3.3.a.d.g.g.k.<.x x p.g.g.g.x.y.M k y.g.k.k.x.y.M z y.k.k.k.m.d.4.3.a.[ 9 <.oXrXrX9X1X+X).V.( 6 u t ",
"# c ! d._.:X1X1X<X:X5X{.a.Y l b Y ) d.N.N.p.x x a.S.S.N.C.p.M x p.N.N.N.Z.p.B z s.Z.N.N.B.3.l 9 k l b s.[.>X<X1X1X2X:X(._ > 6 6 ",
"8 b V.'.oX<X9X<XH.4.3.d.n.m.j.j.b.a.h.p.p.[ h h { p.p.p.h.' h h ] p.p.y.f.' i i ] f.y.y.p._ l l p.g.m.d.4.1.5.H.<X9X5X/.` - 8 6 ",
"_ 5.J.|.:X<X:XXX4.b l ) a.m.k.k.V.d.[ V V x i h x ' ' ( ' M i i x ' V V ' B i i z ' V V ' b ( ( g.N.B.s.( l n 3. XoX{.J.d._ ` ] ",
"I.J.5.M.:X>XG.4.s.g.g.d.` ( ,.u.y.] z a a i i 6 i g i i g i u i i c h i g i u s i i i i i v p.f.s.,.p.d.d.k.d.k.3.4.>.4.J.I././.",
":X'.M.M.XX}.4.b g.N.N.f.k , V V V V i 6 5 5 i 5 6 6 u u u 6 5 5 6 6 u u u u e e u # > u > z p.s.,.b ( [ d.A.N.d.b 9 8 >.[.>X:X:X",
"+X1X:XXXV.>.] ' y.y.y.' g i i i a i u t t 5 t t 6 6 u u t t t t u u u u u u u u u u u 6 u i g z a a i x [ p.p.<.' z 9 1.;XeX1X7X",
"2X2X,XY.2.i V [ ] ' ' B i > e e u u 6 5 5 5 t t 6 6 u u t t t t u u u u u u u u u u u u 6 6 u u 6 6 > i B ' V V ' v 7 _ I.>X<X<X",
"tX:XF.2.a a ' ] { ( z i @ $ # e e e > # t t u u e u u u u u u t t t u t t t t t t t u u t t u > > u > u i d i i i h 7 k <.J.,XrX",
"yX:X1.8 g V ' ( ( ! j , O O # s e u u u u u u u e u u u u u u u t t t t t t t t t t u u u u u u u i u 6 u u u i h ( x l 9 _ Y.,X",
"yX4Xf.g y.y.x h h j j j - O # r e s u u u u u e r e e e e u u u u t u u u u u u u u u u u u u u > u u t u t i z f.x.g.3.l 9 2.1.",
">X[.,.v g.x.' z 9 j T T , + > s e e u u u u u u r e e e e u u u u u u u u u u u u u u u u u u u u u u t u u s c u.x.N.f.V 7 7 8 ",
"s.s.Z V q.p.s.y.l R  . .;   > u e u t t t t t t u u u u u u t t u u u u 6 6 6 6 6 6 u u u u u u s s u u u e e i g V y.,.V z i 7 ",
"8 a V [ { | f.<.9 H #.$.1 . > e u u u t t t t t u u u u u u t t u u u u 6 6 6 6 6 6 u u u e e u t t w u s e , u u g A Z ] ] i > ",
"u i ' [ { [ v a - 2 o.%.2   r r u u u u u u u u u u u u u u u u u u u u u u u u u u u u u u u u u u u u u u u u u g V ] ,.V i > ",
"g z ' { ) ( c 7 9 H O.O.2   e r u u u u u u u u u u u u u u u u u u u u u u u u u u u u u u u u u u u u u u u u e g z V V v i i ",
"C C ' [ ` ! h 9 ~ $.8.o.2 . w t u u u u u u u u u u u u u u u u u u u u u u u u u u u u u u u u u u u u u u u u u i i i c i , , ",
"C C V ( ) Y 9 0 $.8.7.o.1 X # t u u u u u u u u u u u u u u u u u u u u u u u u u u u u u u u u u u u u u u u u u u u i z v x x ",
"p p a i h 3 & 2 o.=.@.J & X 5 t u u u u u u u u u u u u u u u u u u u u u u u u u u u u u u u u u u u u u u u u u e > z y.k.k.k.",
"v v B c h 3 2 H @.@.X.D & X # t u u u u u u u u u u u u u u u u u u u u u u u u u u u u u u u u u u u u u u u u u e > z f.C.C.N.",
"d.g.x.q.M Y / %.W.Q.X.F < + # t u u u u u u u u u u u u u u u u u u u u u u u u u u u u u u u u u u u u u u u u u u > c ] p.p.y.",
"M.m.C.y.z k / 9.W.Q.X.I < + e w u u u u u u u u u u u u u u u u u u u u u u u u u u u u u u u u u u u u u u u u e u u i V ] ] [ ",
"6.| V B f 6 l E *.=.X.I : + e w u u u u u u u u u u u u u u u u u u u u u u u u u u u u u u u u u u u u u u u u e e > i V ] [ [ ",
"{ ( d m e.;.a 0 o.&.^ P = + e u u u u u u u u u u u u u u u u u u u u u u u u u u u u u u u u u u u u u u u u u u u u i V ] [ [ ",
"[ V g t..X.X:.7 j P ..P = $ w t u u u u u u u u u u u u u u u u u u u u u u u u u u u u u u u u u u u u u u u u # > > i V ] [ [ ",
"V z f t.#X*XL.i.x 1 T P = O @ t u u u u u u u u u u u u u u u u u u u u u u u u u u u u u u u u u u u u u u u u u u u i v ' ( ' ",
"a g s t.$XdXfXwXu.h T P % O @ s u u u u u u u u u u u u u u u u u u u u u u u u u u u u u u u u u u u u u u u u u u u u i h h h ",
"v z 6 r.$XdXfXqXi.j W I ; O @ s u u u u u u u u u u u u u u u u u u u u u u u u u u u u u u u u u u u u u u u u w u > i z v x x ",
"c.y.z v.&X*XT.v.N j #.o.1 . # u u u u u u u u u u u u u u u u u u u u u u u u u u u u u u u u u u u u u u u u u u u u v y.g.g.g.",
"Z.u.z :..X.X0.d , P *.O.1 . > u u u u u u u u u u u u u u u u u u u u u u u u u u u u u u u u u u u u u u u u u u u u z s.N.S.N.",
"u.A g f e.e.m , % 2 O.O.1 O # # u u u u u u u u u u u u u u u u u u u u u u u u u u u u u u u u u u u u u u u u u u u g ' y.p.p.",
"[ ' z i f y > ; 2 J @.O.; X # t u u u u u u u u u u u u u u u u u u u u u u u u u u u u u u u u u u u u u u u u u u 6 i V ] [ [ ",
"' ] Z z s @ = 1 E +.7.O.; X # u u u u u u u u u u u u u u u u u u u u u u u u u u u u u u u u u u u u u u u u u u u 6 a V [ [ [ ",
"( ( Z v a r 4 G %.7.!.o.1 X - u u u u u u u u u u u u u u u u u u u u u u u u u u u u u u u u u u u u u u u u u u u 6 i v ' ( ( ",
"h h 7 7 7 j  .%.7.!.!.o.1 X - e u u u u u u u u u u u u u u u u u u u u u u u u u u u u u u u u u u u u e e u u u u 6 u i h h h ",
"x l n k 9 j #.8.W.E.W.Q 1 + - e u u u u u u u u u u u u u u u u u u u u u u u u u u u u u u u u u u u u e u u u u u 6 i z V x x ",
"b.k.k.3.l 4 Q -.E.E.@.J ; + > r u u u u u u u u u u u u u u u u u u u u u u u u u u u u u u u u u u u u e u u u u u u z ,.f.g.g.",
"S.N.m.4.l 0 W -.E.E.X.H & + > s u u u u u u u u u u u u u u u u u u u u u u u u u u u u u u u u u u u u u u u u u u 6 v f.Z.B.S.",
"p.p.1.2.k 4 I -.Q.Q.X.G = + > s u u u u u u u u u u u u u u u u u u u u u u u u u u u u u u u u u u u u u u u u u u u g ' y.p.p.",
"q.' v S 6 i P ^ =.W.X.G = $ # u u u u u u u u u u u u u u u u u u u u u u u u u u u u u u u u u u u u u u u u u u u 6 i V ] [ [ ",
"w.' v p y p , T *.=.o.P = $ @ w u u u u u u u u u u u u u u u u u u u u u u u u u u u u u u u u u u u u u u u u u u 6 a V [ [ [ ",
"V z i p ;.:.i R ^ #.^ P : $ @ t u u u u u u u u u u u u u u u u u u u u u u u u u u u u u u u u u u u u u u u u u u 6 i v ' ( ( ",
"N d i :..X.Xt.i P I W L : + # t u u u u u u u u u u u u u u u u u u u u u u u u u u u u u u u u u u u u u u u u u u 6 u i h h h ",
"N g i r.%X=XT.i.x 4 W L : o # 5 u u u u u u u u u u u u u u u u u u u u u u u u u u u u u u u u u u u u u u u u u u 6 i z V x x ",
"z.i.z r.$XiXpX8Xy.j W U : o # 5 6 u u u u u u u u u u u u u u u u u u u u u u u u u u u u u u u u u u u u u u u u u u z ,.f.g.g.",
"C.f.g t.$XsXfX-Xf.h U U : + u 5 u u u u u u u u u u u u u u u u u u u u u u u u u u u u u u u u u u u u u u u u u u u v f.B.S.N.",
"y.] g t.%X*XK.v.g h U U = + # t u u u u u u u t u u u u u u u u u u u u u u u u u u u u u u u u u e u u e u u u e e u c ] y.p.3.",
"_ V f t.K.K.t.s v l U I < + 5 t u u u u u u u u u u u u u u u u u u u u u u u u u u u u u u u u u u r u u u u u u u e g V [ [ ` ",
"[ V a f :.:.v 9  .^ X.F & % # t u u u u u u u u u u u u u u u u 6 6 6 6 6 6 6 6 6 6 u u 6 6 6 6 u u u u u u u u u u u g V ] [ [ ",
"[ V g p 6 8 q E *.=.@.J * % $ t u u e u u u u u u u u u u u e u 6 6 6 6 6 6 6 6 6 6 u 6 6 6 6 6 u u u u u u u u t u u s B V V ( ",
"] _ Z b 9 q / *.=.!.W.K * % @ t t u u u u u u u u u u u u u u u u u u u u 6 u 6 u u u u u 6 u u t t t u u u u t t t u u d a i i ",
"A V V l 8 H %.~.@.!.W.O.2 . @ y t u u u u u u u u u u t u u u u u u u u u u u u u u u u u u u u t t t u u 6 u u u u u i z B v v ",
"s i c h 8 q o.*.O.@.=.&.1 O @ t t 5 u 5 u u u u u 6 u 5 u 5 u t u t u t u t u t u t u t u t u t u u u 6 6 6 6 6 6 u u z y.f.g.g.",
"B B M c 7 l ^ &.E E O.^ 1 O 5 t 5 6 6 6 6 6 6 6 6 6 6 6 6 6 6 6 u u u u u u u u u u u u u u u u u 6 6 6 6 6 6 6 6 6 6 z f.B.B.N.",
"x.z.x.s.c , l R G D I P 3 , u # 6 6 6 6 6 6 6 6 6 6 6 6 6 6 6 6 6 > u 6 > u > u > u > > u > 6 6 > 6 6 8 7 7 > 7 > i 7 h [ p.| a.",
"D.S.x.f.] k h h ! } | } ` ` _ ] _ V 7 7 V ] _ [ [ ' [ V 7 7 V ] ] ] [ ] [ ( k h b [ ] ] [ ] ] V c c V [ [ _ ` [ [ V i i ( [ ` ` ",
"| a.3.p.j.2.z b F.U.}.(.(.)./.).(.V.l k V.].^.(.].^.(.V.k l V.(.(.(.(.(.(.G.3.` G.(.(.I.(.(.I.G.' ,.Z.].(.I.(.(.].Z.' h ( [ ` ` ",
") } ` 3.j.s.] ,.P.Y.[.[.[.[.).[.{.A.l j A. X{.{. X{. XA.j l A.[.[.[._._.[.J.3.` J.[.[._.[._./.F.] y.P.{.{.[.[.].].A.] x ( [ [ ` ",
"` ` ` [ 1.s.d.d.,.,.d.m.j.j.n.n.m.[ k k <.m.N.b.b.m.b.<.x l <.k.k.m.k.k.M.3.l n 3.m.m.m.m.d.3._ ] ] f.N.g.k.m.s.,.] V V ] ] ] _ ",
"V B ( ( b ] a.p.g p z ( b b ~ ! V c h c z V ( ( ( ( V z c c z V V V V b ( x 7 c x V b V V z k i B B ' ' v b V z i a v V V V V V ",
"m f g g i h x k i u i i a i i i g u u 6 i a c a i z g i u 6 i g g g g d g i e i i g g g g i i u i i g c c c a i u i a g i i a a ",
"y y w u i 7 , , > i u # i i 6 i 5 u u u u 6 6 u 6 6 u u u u t t u u s u u u w u w s u t u u s u s u e 6 7 > 6 i i 6 u u t u i 6 "
};
