/* XPM */
static char *rcp0952599861923[] = {
/* columns rows colors chars-per-pixel */
"64 64 85 1 ",
"  c #3C454C",
". c #5C646B",
"X c #BCC2C7",
"o c #C1C7CC",
"O c #A8B0B6",
"+ c #A4ACB2",
"@ c #A7AFB5",
"# c #BBC1C6",
"$ c #C0C6CB",
"% c #AFB6BB",
"& c #B3BABF",
"* c #B4BAC0",
"= c #ADB4BA",
"- c #BEC4CA",
"; c #AAB1B7",
": c #A5ADB3",
"> c #B8BFC4",
", c #AEB6BB",
"< c #838B91",
"1 c #5E676E",
"2 c #747C82",
"3 c #B5BCC1",
"4 c #B9BFC5",
"5 c #B6BCC2",
"6 c #A6AEB4",
"7 c #B4BBC1",
"8 c #ACB3B9",
"9 c #AEB6BC",
"0 c #B0B7BC",
"q c #ABB2B8",
"w c #B7BDC3",
"e c #B3BAC0",
"r c #ABB3B9",
"t c #AFB6BC",
"y c #B9BFC4",
"u c #8F969C",
"i c #B1B7BD",
"p c #AEB5BB",
"a c #A7AEB4",
"s c #A6ADB3",
"d c #B9C0C5",
"f c #B1B8BD",
"g c #BFC5CA",
"h c #ADB5BB",
"j c #A8AFB5",
"k c #A9B0B6",
"l c #BEC4C9",
"z c #B2B9BE",
"x c #AAB2B7",
"c c #B2B9BF",
"v c #BDC3C8",
"b c #B7BEC3",
"n c #ACB4B9",
"m c #0E071B",
"M c #ACB4BA",
"N c #BEC5CA",
"B c #B8BEC4",
"V c #5AC54F",
"C c #99E65F",
"Z c #ADB5BA",
"A c #C0C6CC",
"S c #ABB3B8",
"D c #C42430",
"F c #A7AFB4",
"G c #EA323C",
"H c #33984B",
"J c #B4BBC0",
"K c #AFB7BC",
"L c #9EA5AC",
"P c #9FA7AE",
"I c #A5ADB4",
"U c #A5AEB4",
"Y c #A5ADB2",
"T c #A2AAB0",
"R c #6C777E",
"E c #7E888F",
"W c #B7BDC2",
"Q c #A9B1B7",
"! c #B0B7BD",
"~ c #AAB2B8",
"^ c #949DA3",
"/ c #515D66",
"( c #6C767E",
") c #B5BCC2",
"_ c #8C969C",
/* pixels */
"  .XooXO++@#oooooo$%+++&ooo*+++=ooooooooooo-;++:>oo$,+++*ooo<   ",
"  .XooXO++@#oooooo$%+++&ooo*+++=ooooooooooo-;++:>oo$,+++*ooo<   ",
"1123445@++67444444>8+++94440+++q44444444444wO++:e44>r+++t44yu111",
"iip@@@a++++6@@@@@@@:+++:@@@s+++:@@@@@@@@@@@@++++6@@@:+++:@@@qiii",
"ood:++++++++++++++++++++++++++++++++++++++++++++++++++++++++fooo",
"ood:++++++++++++++++++++++++++++++++++++++++++++++++++++++++fooo",
"gg>:++++++++++++++++++++++++++++++++++++++++++++++++++++++++0ggg",
"hhq+++++++++++++++++++++++++++++++++++++++++++++++++++++++++jhhh",
"++++++++++++++++++++++++++++++++++++++++++++++++++++++++++++++++",
"++++++++++++++++++++++++++++++++++++++++++++++++++++++++++++++++",
"++++++++++++++++++++++++++++++++++++++++++++++++++++++++++++++++",
"pp8+++++++++++++++++++++++++++++++++++++++++++++++++++++++++kppp",
"ood:++++++++++++++++++++++++++++++++++++++++++++++++++++++++fooo",
"ood:++++++++++++++++++++++++++++++++++++++++++++++++++++++++fooo",
"ood:++++++++++++++++++++++++++++++++++++++++++++++++++++++++fooo",
"ood:++++++++++++++++++++++++++++++++++++++++++++++++++++++++0lll",
"ood:++++++++++++++++++++++++++++++++++++++++++++++++++++++++6;;;",
"ood:++++++++++++++++++++++++++++++++++++++++++++++++++++++++++++",
"ood:++++++++++++++++++++++++++++++++++++++++++++++++++++++++++++",
"ood:++++++++++++++++++++++++++++++++++++++++++++++++++++++++++++",
"zzt+++++++++++++++++++++++++++++++++++++++++++++++++++++++++xccc",
"++++++++++++++++++++++++++++++++++++++++++++++++++++++++++++f$$$",
"++++++++++++++++++++++++++++++++++++++++++++++++++++++++++++fooo",
"++++++++++++++++++++++++++++++++++++++++++++++++++++++++++++fooo",
"xxk+++++++++++++++++++++++++++++++++++++++++++++++++++++++++fooo",
"vvb:++++++++++++++++++++++++++++++++++++++++++++++++++++++++fooo",
"ood:++++++++++++++++++++++++++++++++++++++++++++++++++++++++fooo",
"ood:++++++++++++++++++++++++++++++++++++++++++++++++++++++++fooo",
"$$>:++++++++++++++++++++++++++++++++++++++++++++++++++++++++fooo",
"ttn+++++++++++++++++++++++++++++++++++++++++++++++++++++++++fooo",
"++++++++++++++++++++++++++++++++++++++++++++++++++++++++++++fooo",
"++++++++++++++++++++mmmmmmmmmmmmmmmmmmmmmmmmm+++++++++++++++fooo",
"++++++++++++++++++++mmmmmmmmmmmmmmmmmmmmmmmmm+++++++++++++++fooo",
"MMq+++++++++++++++++mmmmmmmmmmmmmmmmmmmmmmmmm+++++++++++++++Mbbb",
"NNB:++++++++++++mmmmVVVVVVVVVVVVVVVCCCCCCCCCCmmm++++++++++++:666",
"ood:++++++++++++mmmmVVVVVVVVVVVVVVVCCCCCCCCCCmmm++++++++++++++++",
"ood:++++++++++++mmmmVVVVVVVVVVVVVVVCCCCCCCCCCmmm++++++++++++++++",
"ood:++++++++++++mmmmVVVVVVVVVVVVVVVCCCCCCCCCCmmm++++++++++++:666",
"ood:+++++++++mmmVVVVCCCVVVVVVVVVVVVVVVCCCCCCCCCCmmm+++++++++Z444",
"ood:+++++++++mmmVVVVCCCVVVVVVVVVVVVVVVCCCCCCCCCCmmm+++++++++fooo",
"ood:+++++++++mmmVVVVCCCVVVVVVVVVVVVVVVCCCCCCCCCCmmm+++++++++fooo",
"ood:+++++++++mmmCCCCVVVVVVVVVVVVVVVVVVVVVCCCCCCCmmm+++++++++fAAA",
"ood:+++++++++mmmCCCCVVVVVVVVVVVVVVVVVVVVVCCCCCCCmmm+++++++++Seee",
"ood:+++++++++mmmCCCCVVVVVVVVVVVVVVVVVVVVVCCCCCCCmmm+++++++++++++",
"ood:+++++++++mmmVVVVVVVDDDVVVVVVDDDVVVVVVVVVVCCCmmm+++++++++++++",
"ood:+++++++++mmmVVVVVVVDDDVVVVVVDDDVVVVVVVVVVCCCmmm+++++++++++++",
"XX5:+++++++++mmmVVVVVVVDDDVVVVVVDDDVVVVVVVVVVCCCmmm+++++++++:jjj",
"OOF++++++++++mmmVVVVVVVGGGVVVVVVGGGVVVVVVVVVVVVVmmm+++++++++tXXX",
"+++++++++++++mmmVVVVVVVGGGVVVVVVGGGVVVVVVVVVVVVVmmm+++++++++fooo",
"+++++++++++++mmmVVVVVVVGGGVVVVVVGGGVVVVVVVVVVVVVmmm+++++++++fooo",
"+++++++++++++mmmHHHHVVVVVVVVVVVVVVVVVVVVVVVVVHHHmmm+++++++++fooo",
"JJK++++++++++mmmHHHHVVVVVVVVVVVVVVVVVVVVVVVVVHHHmmm+++++++++fooo",
"ood:+++++++++mmmHHHHVVVVVVVVVVVVVVVVVVVVVVVVVHHHmmm+++++++++fooo",
"ood:++++++++++++mmmmHHHVVVVVVVVVVVVVVVVVVHHHHmmm++++++++++++fooo",
"ood:++++++++++++mmmmHHHVVVVVVVVVVVVVVVVVVHHHHmmm++++++++++++fooo",
">>e:++++++++++++mmmmHHHVVVVVVVVVVVVVVVVVVHHHHmmm++++++++++++Z>>>",
"66:+++++++++++++++++mmmmmmmmmmmmmmmmmmmmmmmmm+++++++++++++++:666",
"++++++++++++++++++++mmmmmmmmmmmmmmmmmmmmmmmmm+++++++++++++++++++",
"++++++++++++++++++++mmmmmmmmmmmmmmmmmmmmmmmmm+++++++++++++++++++",
"LLPI66s++++:666++++:66666666666:++++U66:++++:6666666++++Y666TLLL",
"RREJWWJF++6&WWWQ+++KWWWWWWWWWWW!+++k3WWe:++s&WWWWWWW~+++pWWW^RRR",
"//(vooXO++@#oo$8+++)oooooooooooW+++qloo#a++6#oooooo$,+++*ooo_///",
"//(vooXO++@#oo$8+++)oooooooooooW+++qloo#a++6#oooooo$,+++*ooo_///",
"//(vooXO++@#oo$8+++)oooooooooooW+++qloo#a++6#oooooo$,+++*ooo_///"
};
