/* XPM */
static char *rcp0953053612874[] = {
/* columns rows colors chars-per-pixel */
"64 64 85 1 ",
"  c #3C454C",
". c #5C646B",
"X c #BCC2C7",
"o c #C1C7CC",
"O c #A8B0B6",
"+ c #A4ACB2",
"@ c #A7AFB5",
"# c #BBC1C6",
"$ c #C0C6CB",
"% c #AFB6BB",
"& c #B3BABF",
"* c #B4BAC0",
"= c #ADB4BA",
"- c #BEC4CA",
"; c #AAB1B7",
": c #A5ADB3",
"> c #B8BFC4",
", c #AEB6BB",
"< c #838B91",
"1 c #5E676E",
"2 c #747C82",
"3 c #B5BCC1",
"4 c #B9BFC5",
"5 c #B6BCC2",
"6 c #A6AEB4",
"7 c #B4BBC1",
"8 c #ACB3B9",
"9 c #AEB6BC",
"0 c #B0B7BC",
"q c #ABB2B8",
"w c #B7BDC3",
"e c #B3BAC0",
"r c #ABB3B9",
"t c #AFB6BC",
"y c #B9BFC4",
"u c #8F969C",
"i c #B1B7BD",
"p c #AEB5BB",
"a c #A7AEB4",
"s c #A6ADB3",
"d c #B9C0C5",
"f c #B1B8BD",
"g c #BFC5CA",
"h c #ADB5BB",
"j c #A8AFB5",
"k c #A9B0B6",
"l c #BEC4C9",
"z c #0E071B",
"x c #B2B9BE",
"c c #AAB2B7",
"v c #B2B9BF",
"b c #5AC54F",
"n c #99E65F",
"m c #BDC3C8",
"M c #B7BEC3",
"N c #ACB4B9",
"B c #C42430",
"V c #ACB4BA",
"C c #BEC5CA",
"Z c #B8BEC4",
"A c #EA323C",
"S c #ADB5BA",
"D c #C0C6CC",
"F c #ABB3B8",
"G c #33984B",
"H c #A7AFB4",
"J c #B4BBC0",
"K c #AFB7BC",
"L c #9EA5AC",
"P c #9FA7AE",
"I c #A5ADB4",
"U c #A5AEB4",
"Y c #A5ADB2",
"T c #A2AAB0",
"R c #6C777E",
"E c #7E888F",
"W c #B7BDC2",
"Q c #A9B1B7",
"! c #B0B7BD",
"~ c #AAB2B8",
"^ c #949DA3",
"/ c #515D66",
"( c #6C767E",
") c #B5BCC2",
"_ c #8C969C",
/* pixels */
"  .XooXO++@#oooooo$%+++&ooo*+++=ooooooooooo-;++:>oo$,+++*ooo<   ",
"  .XooXO++@#oooooo$%+++&ooo*+++=ooooooooooo-;++:>oo$,+++*ooo<   ",
"1123445@++67444444>8+++94440+++q44444444444wO++:e44>r+++t44yu111",
"iip@@@a++++6@@@@@@@:+++:@@@s+++:@@@@@@@@@@@@++++6@@@:+++:@@@qiii",
"ood:++++++++++++++++++++++++++++++++++++++++++++++++++++++++fooo",
"ood:++++++++++++++++++++++++++++++++++++++++++++++++++++++++fooo",
"gg>:++++++++++++++++++++++++++++++++++++++++++++++++++++++++0ggg",
"hhq+++++++++++++++++++++++++++++++++++++++++++++++++++++++++jhhh",
"++++++++++++++++++++++++++++++++++++++++++++++++++++++++++++++++",
"++++++++++++++++++++++++++++++++++++++++++++++++++++++++++++++++",
"++++++++++++++++++++++++++++++++++++++++++++++++++++++++++++++++",
"pp8+++++++++++++++++++++++++++++++++++++++++++++++++++++++++kppp",
"ood:++++++++++++++++++++++++++++++++++++++++++++++++++++++++fooo",
"ood:++++++++++++++++++++++++++++++++++++++++++++++++++++++++fooo",
"ood:++++++++++++++++++++++++++++++++++++++++++++++++++++++++fooo",
"ood:++++++++++++++++++++++++++++++++++++++++++++++++++++++++0lll",
"ood:++++++++++++++++++++++++++++++++++++++++++++++++++++++++6;;;",
"ood:++++++++++++++++++++++++++++++++++++++++++++++++++++++++++++",
"ood:++++++++++++++++++++++++++++++++++++++++++++++++++++++++++++",
"ood:+++++++++++++++++++zzzzzzzzzzzzzzzzzz+++++++++++++++++++++++",
"xxt++++++++++++++++++++zzzzzzzzzzzzzzzzzz+++++++++++++++++++cvvv",
"+++++++++++++++++++++++zzzzzzzzzzzzzzzzzz+++++++++++++++++++f$$$",
"+++++++++++++++++++zzzzbbbbbbnnnnnnnnnnnnzzz++++++++++++++++fooo",
"+++++++++++++++++++zzzzbbbbbbnnnnnnnnnnnnzzz++++++++++++++++fooo",
"cck++++++++++++++++zzzzbbbbbbnnnnnnnnnnnnzzz++++++++++++++++fooo",
"mmM:++++++++++++zzzbbbbbbbbbbbbbbbbnnnnnnnnnzzzz++++++++++++fooo",
"ood:++++++++++++zzzbbbbbbbbbbbbbbbbnnnnnnnnnzzzz++++++++++++fooo",
"ood:++++++++++++zzzbbbbbbbbbbbbbbbbnnnnnnnnnzzzz++++++++++++fooo",
"$$>:++++++++++++zzzbbbbbbbbbbbbbbbbbbbbbbnnnzzzz++++++++++++fooo",
"ttN+++++++++++++zzzbbbbbbbbbbbbbbbbbbbbbbnnnzzzz++++++++++++fooo",
"++++++++++++++++zzzbbbbbbbbbbbbbbbbbbbbbbnnnzzzz++++++++++++fooo",
"++++++++++++++++zzzbbbbBBBbbbbbbBBBbbbbbbnnnzzzz++++++++++++fooo",
"++++++++++++++++zzzbbbbBBBbbbbbbBBBbbbbbbnnnzzzz++++++++++++fooo",
"VVq+++++++++++++zzzbbbbBBBbbbbbbBBBbbbbbbnnnzzzz++++++++++++VMMM",
"CCZ:++++++++++++zzzbbbbAAAbbbbbbAAAbbbbbbbbbzzzz++++++++++++:666",
"ood:++++++++++++zzzbbbbAAAbbbbbbAAAbbbbbbbbbzzzz++++++++++++++++",
"ood:++++++++++++zzzbbbbAAAbbbbbbAAAbbbbbbbbbzzzz++++++++++++++++",
"ood:++++++++++++zzzbbbbAAAbbbbbbAAAbbbbbbbbbzzzz++++++++++++:666",
"ood:++++++++++++zzzbbbbAAAbbbbbbAAAbbbbbbbbbzzzz++++++++++++S444",
"ood:++++++++++++zzzbbbbAAAbbbbbbAAAbbbbbbbbbzzzz++++++++++++fooo",
"ood:++++++++++++zzzbbbbAAAbbbbbbAAAbbbbbbbbbzzzz++++++++++++fooo",
"ood:++++++++++++zzzbbbbbbbbbbbbbbbbbbbbbbbbbzzzz++++++++++++fDDD",
"ood:++++++++++++zzzbbbbbbbbbbbbbbbbbbbbbbbbbzzzz++++++++++++Feee",
"ood:++++++++++++zzzbbbbbbbbbbbbbbbbbbbbbbbbbzzzz++++++++++++++++",
"ood:++++++++++++zzzGGGGbbbbbbbbbbbbbbbbbbGGGzzzz++++++++++++++++",
"ood:++++++++++++zzzGGGGbbbbbbbbbbbbbbbbbbGGGzzzz++++++++++++++++",
"XX5:++++++++++++zzzGGGGbbbbbbbbbbbbbbbbbbGGGzzzz++++++++++++:jjj",
"OOH++++++++++++++++zzzzGGGbbbbbbbbbbbbGGGzzz++++++++++++++++tXXX",
"+++++++++++++++++++zzzzGGGbbbbbbbbbbbbGGGzzz++++++++++++++++fooo",
"+++++++++++++++++++zzzzGGGbbbbbbbbbbbbGGGzzz++++++++++++++++fooo",
"+++++++++++++++++++++++zzzzzzzzzzzzzzzzzz+++++++++++++++++++fooo",
"JJK++++++++++++++++++++zzzzzzzzzzzzzzzzzz+++++++++++++++++++fooo",
"ood:+++++++++++++++++++zzzzzzzzzzzzzzzzzz+++++++++++++++++++fooo",
"ood:++++++++++++++++++++++++++++++++++++++++++++++++++++++++fooo",
"ood:++++++++++++++++++++++++++++++++++++++++++++++++++++++++fooo",
">>e:++++++++++++++++++++++++++++++++++++++++++++++++++++++++S>>>",
"66:+++++++++++++++++++++++++++++++++++++++++++++++++++++++++:666",
"++++++++++++++++++++++++++++++++++++++++++++++++++++++++++++++++",
"++++++++++++++++++++++++++++++++++++++++++++++++++++++++++++++++",
"LLPI66s++++:666++++:66666666666:++++U66:++++:6666666++++Y666TLLL",
"RREJWWJH++6&WWWQ+++KWWWWWWWWWWW!+++k3WWe:++s&WWWWWWW~+++pWWW^RRR",
"//(mooXO++@#oo$8+++)oooooooooooW+++qloo#a++6#oooooo$,+++*ooo_///",
"//(mooXO++@#oo$8+++)oooooooooooW+++qloo#a++6#oooooo$,+++*ooo_///",
"//(mooXO++@#oo$8+++)oooooooooooW+++qloo#a++6#oooooo$,+++*ooo_///"
};
