/* XPM */
static char *rcp01544037177681[] = {
/* columns rows colors chars-per-pixel */
"64 64 83 1 ",
"  c #3C454C",
". c #5C646B",
"X c #BCC2C7",
"o c #C1C7CC",
"O c #A8B0B6",
"+ c #A4ACB2",
"@ c #A7AFB5",
"# c #BBC1C6",
"$ c #C0C6CB",
"% c #AFB6BB",
"& c #B3BABF",
"* c #B4BAC0",
"= c #ADB4BA",
"- c #BEC4CA",
"; c #AAB1B7",
": c #A5ADB3",
"> c #B8BFC4",
", c #AEB6BB",
"< c #838B91",
"1 c #5E676E",
"2 c #747C82",
"3 c #B5BCC1",
"4 c #B9BFC5",
"5 c #B6BCC2",
"6 c #A6AEB4",
"7 c #B4BBC1",
"8 c #ACB3B9",
"9 c #AEB6BC",
"0 c #B0B7BC",
"q c #ABB2B8",
"w c #B7BDC3",
"e c #B3BAC0",
"r c #ABB3B9",
"t c #AFB6BC",
"y c #B9BFC4",
"u c #8F969C",
"i c #B1B7BD",
"p c #AEB5BB",
"a c #A7AEB4",
"s c #A6ADB3",
"d c #B9C0C5",
"f c #B1B8BD",
"g c #BFC5CA",
"h c #ADB5BB",
"j c #A8AFB5",
"k c #A9B0B6",
"l c #BEC4C9",
"z c #0E071B",
"x c #B2B9BE",
"c c #AAB2B7",
"v c #B2B9BF",
"b c #FFEB57",
"n c #FFA214",
"m c #FFC825",
"M c #BDC3C8",
"N c #B7BEC3",
"B c #ACB4B9",
"V c #ACB4BA",
"C c #BEC5CA",
"Z c #B8BEC4",
"A c #ADB5BA",
"S c #C0C6CC",
"D c #ABB3B8",
"F c #A7AFB4",
"G c #B4BBC0",
"H c #AFB7BC",
"J c #9EA5AC",
"K c #9FA7AE",
"L c #A5ADB4",
"P c #A5AEB4",
"I c #A5ADB2",
"U c #A2AAB0",
"Y c #6C777E",
"T c #7E888F",
"R c #B7BDC2",
"E c #A9B1B7",
"W c #B0B7BD",
"Q c #AAB2B8",
"! c #949DA3",
"~ c #515D66",
"^ c #6C767E",
"/ c #B5BCC2",
"( c #8C969C",
/* pixels */
"  .XooXO++@#oooooo$%+++&ooo*+++=ooooooooooo-;++:>oo$,+++*ooo<   ",
"  .XooXO++@#oooooo$%+++&ooo*+++=ooooooooooo-;++:>oo$,+++*ooo<   ",
"1123445@++67444444>8+++94440+++q44444444444wO++:e44>r+++t44yu111",
"iip@@@a++++6@@@@@@@:+++:@@@s+++:@@@@@@@@@@@@++++6@@@:+++:@@@qiii",
"ood:++++++++++++++++++++++++++++++++++++++++++++++++++++++++fooo",
"ood:++++++++++++++++++++++++++++++++++++++++++++++++++++++++fooo",
"gg>:++++++++++++++++++++++++++++++++++++++++++++++++++++++++0ggg",
"hhq+++++++++++++++++++++++++++++++++++++++++++++++++++++++++jhhh",
"++++++++++++++++++++++++++++++++++++++++++++++++++++++++++++++++",
"++++++++++++++++++++++++++++++++++++++++++++++++++++++++++++++++",
"++++++++++++++++++++++++++++++++++++++++++++++++++++++++++++++++",
"pp8+++++++++++++++++++++++++++++++++++++++++++++++++++++++++kppp",
"ood:++++++++++++++++++++++++++++++++++++++++++++++++++++++++fooo",
"ood:++++++++++++++++++++++++++++++++++++++++++++++++++++++++fooo",
"ood:++++++++++++++++++++++++++++++++++++++++++++++++++++++++fooo",
"ood:++++++++++++++++++++++++++++++++++++++++++++++++++++++++0lll",
"ood:++++++++++++++++++++++++++++++++++++++++++++++++++++++++6;;;",
"ood:++++++++++++++++++++zzzzzzzzzzzzzzz+++++++++++++++++++++++++",
"ood:++++++++++++++++++++zzzzzzzzzzzzzzz+++++++++++++++++++++++++",
"ood:++++++++++++++++++++zzzzzzzzzzzzzzz+++++++++++++++++++++++++",
"xxt+++++++++++++++++++++zzzzzzzzzzzzzzz+++++++++++++++++++++cvvv",
"+++++++++++++++++++++zzzbbbbbbbbbbbbbbbzzzz+++++++++++++++++f$$$",
"+++++++++++++++++++++zzzbbbbbbbbbbbbbbbzzzz+++++++++++++++++fooo",
"+++++++++++++++++++++zzzbbbbbbbbbbbbbbbzzzz+++++++++++++++++fooo",
"cck++++++++++++++zzzznnnmmmmmmmmmmmmbbbbbbbzzzz+++++++++++++fooo",
"MMN:+++++++++++++zzzznnnmmmmmmmmmmmmbbbbbbbzzzz+++++++++++++fooo",
"ood:+++++++++++++zzzznnnmmmmmmmmmmmmbbbbbbbzzzz+++++++++++++fooo",
"ood:+++++++++++++zzzznnnmmmmmmmmmmmmbbbbbbbzzzz+++++++++++++fooo",
"$$>:+++++++++++++zzzznnnmmmmnnnnmmmmmmmbbbbzzzz+++++++++++++fooo",
"ttB++++++++++++++zzzznnnmmmmnnnnmmmmmmmbbbbzzzz+++++++++++++fooo",
"+++++++++++++++++zzzznnnmmmmnnnnmmmmmmmbbbbzzzz+++++++++++++fooo",
"+++++++++++++++++zzzznnnmmmmnnnnmmmmmmmbbbbzzzz+++++++++++++fooo",
"+++++++++++++++++zzzznnnmmmmmmmmnnnnmmmbbbbzzzz+++++++++++++fooo",
"VVq++++++++++++++zzzznnnmmmmmmmmnnnnmmmbbbbzzzz+++++++++++++VNNN",
"CCZ:+++++++++++++zzzznnnmmmmmmmmnnnnmmmbbbbzzzz+++++++++++++:666",
"ood:+++++++++++++zzzznnnmmmmmmmmnnnnmmmbbbbzzzz+++++++++++++++++",
"ood:+++++++++++++zzzznnnnnnnmmmmmmmmmmmbbbbzzzz+++++++++++++++++",
"ood:+++++++++++++zzzznnnnnnnmmmmmmmmmmmbbbbzzzz+++++++++++++:666",
"ood:+++++++++++++zzzznnnnnnnmmmmmmmmmmmbbbbzzzz+++++++++++++A444",
"ood:+++++++++++++++++zzznnnnnnnnnnnnnnnzzzz+++++++++++++++++fooo",
"ood:+++++++++++++++++zzznnnnnnnnnnnnnnnzzzz+++++++++++++++++fooo",
"ood:+++++++++++++++++zzznnnnnnnnnnnnnnnzzzz+++++++++++++++++fSSS",
"ood:+++++++++++++++++zzznnnnnnnnnnnnnnnzzzz+++++++++++++++++Deee",
"ood:++++++++++++++++++++zzzzzzzzzzzzzzz+++++++++++++++++++++++++",
"ood:++++++++++++++++++++zzzzzzzzzzzzzzz+++++++++++++++++++++++++",
"ood:++++++++++++++++++++zzzzzzzzzzzzzzz+++++++++++++++++++++++++",
"XX5:++++++++++++++++++++zzzzzzzzzzzzzzz+++++++++++++++++++++:jjj",
"OOF+++++++++++++++++++++++++++++++++++++++++++++++++++++++++tXXX",
"++++++++++++++++++++++++++++++++++++++++++++++++++++++++++++fooo",
"++++++++++++++++++++++++++++++++++++++++++++++++++++++++++++fooo",
"++++++++++++++++++++++++++++++++++++++++++++++++++++++++++++fooo",
"GGH+++++++++++++++++++++++++++++++++++++++++++++++++++++++++fooo",
"ood:++++++++++++++++++++++++++++++++++++++++++++++++++++++++fooo",
"ood:++++++++++++++++++++++++++++++++++++++++++++++++++++++++fooo",
"ood:++++++++++++++++++++++++++++++++++++++++++++++++++++++++fooo",
">>e:++++++++++++++++++++++++++++++++++++++++++++++++++++++++A>>>",
"66:+++++++++++++++++++++++++++++++++++++++++++++++++++++++++:666",
"++++++++++++++++++++++++++++++++++++++++++++++++++++++++++++++++",
"++++++++++++++++++++++++++++++++++++++++++++++++++++++++++++++++",
"JJKL66s++++:666++++:66666666666:++++P66:++++:6666666++++I666UJJJ",
"YYTGRRGF++6&RRRE+++HRRRRRRRRRRRW+++k3RRe:++s&RRRRRRRQ+++pRRR!YYY",
"~~^MooXO++@#oo$8+++/oooooooooooR+++qloo#a++6#oooooo$,+++*ooo(~~~",
"~~^MooXO++@#oo$8+++/oooooooooooR+++qloo#a++6#oooooo$,+++*ooo(~~~",
"~~^MooXO++@#oo$8+++/oooooooooooR+++qloo#a++6#oooooo$,+++*ooo(~~~"
};
