/* XPM */
static char *rcp09395222377662[] = {
/* columns rows colors chars-per-pixel */
"64 64 130 2 ",
"   c #3C454C",
".  c #5C646B",
"X  c #BCC2C7",
"o  c #C1C7CC",
"O  c #A8B0B6",
"+  c #A4ACB2",
"@  c #A7AFB5",
"#  c #BBC1C6",
"$  c #C0C6CB",
"%  c #AFB6BB",
"&  c #B3BABF",
"*  c #B4BAC0",
"=  c #ADB4BA",
"-  c #BEC4CA",
";  c #AAB1B7",
":  c #A5ADB3",
">  c #B8BFC4",
",  c #AEB6BB",
"<  c #838B91",
"1  c #5E676E",
"2  c #747C82",
"3  c #B5BCC1",
"4  c #B9BFC5",
"5  c #B6BCC2",
"6  c #A6AEB4",
"7  c #B4BBC1",
"8  c #ACB3B9",
"9  c #AEB6BC",
"0  c #B0B7BC",
"q  c #ABB2B8",
"w  c #B7BDC3",
"e  c #B3BAC0",
"r  c #ABB3B9",
"t  c #AFB6BC",
"y  c #B9BFC4",
"u  c #8F969C",
"i  c #B1B7BD",
"p  c #AEB5BB",
"a  c #A7AEB4",
"s  c #A6ADB3",
"d  c #B9C0C5",
"f  c #B1B8BD",
"g  c #BFC5CA",
"h  c #ADB5BB",
"j  c #A8AFB5",
"k  c #A9B0B6",
"l  c #BEC4C9",
"z  c #9EA1B1",
"x  c #908CAD",
"c  c #8A81AB",
"v  c #B2B9BE",
"b  c #694CA4",
"n  c #552BA0",
"m  c #AAB2B7",
"M  c #B2B9BF",
"N  c #7268AA",
"B  c #443AA6",
"V  c #2D22A4",
"C  c #2257B3",
"Z  c #1066B9",
"A  c #223BAC",
"S  c #0D6EBC",
"D  c #0288C4",
"F  c #0680C1",
"G  c #BDC3C8",
"H  c #B7BEC3",
"J  c #0284C7",
"K  c #027BCD",
"L  c #0276D0",
"P  c #0361DF",
"I  c #0353E9",
"U  c #0369D9",
"Y  c #044FEC",
"T  c #0442F5",
"R  c #0446F2",
"E  c #ACB4B9",
"W  c #ACB4BA",
"Q  c #043EE6",
"!  c #0336C7",
"~  c #0731C1",
"^  c #0E31D4",
"/  c #0E36E4",
"(  c #073EEF",
")  c #BEC5CA",
"_  c #B8BEC4",
"`  c #021D6B",
"'  c #0C105A",
"]  c #221093",
"[  c #231DC1",
"{  c #0331B8",
"}  c #01103D",
"|  c #0B001D",
" . c #210056",
".. c #04000A",
"X. c black",
"o. c #ADB5BA",
"O. c #C0C6CC",
"+. c #ABB3B8",
"@. c #A7AFB4",
"#. c #B4BBC0",
"$. c #AFB7BC",
"%. c #9EA5AC",
"&. c #9FA7AE",
"*. c #A5ADB4",
"=. c #8B82AD",
"-. c #562BA0",
";. c #562CA0",
":. c #A2AAB0",
">. c #6C777E",
",. c #7E888F",
"<. c #B7BDC2",
"1. c #988DB7",
"2. c #592FA3",
"3. c #5A2FA4",
"4. c #949DA3",
"5. c #515D66",
"6. c #6C767E",
"7. c #A7A1C2",
"8. c #7455AD",
"9. c #453AA6",
"0. c #473CA8",
"q. c #7657AF",
"w. c #8C969C",
"e. c #B9BAC9",
"r. c #A39DBF",
"t. c #746BAC",
"y. c #7B70B1",
"u. c #8D84AE",
"i. c #3B0099",
"p. c #968BB6",
/* pixels */
"    . X o o X O + + @ # o o o o o o $ % + + + & o o o * + + + = o o o o o o o o o o o - ; + + : > o o $ , + + + * o o o <       ",
"    . X o o X O + + @ # o o o o o o $ % + + + & o o o * + + + = o o o o o o o o o o o - ; + + : > o o $ , + + + * o o o <       ",
"1 1 2 3 4 4 5 @ + + 6 7 4 4 4 4 4 4 > 8 + + + 9 4 4 4 0 + + + q 4 4 4 4 4 4 4 4 4 4 4 w O + + : e 4 4 > r + + + t 4 4 y u 1 1 1 ",
"i i p @ @ @ a + + + + 6 @ @ @ @ @ @ @ : + + + : @ @ @ s + + + : @ @ @ @ @ @ @ @ @ @ @ @ + + + + 6 @ @ @ : + + + : @ @ @ q i i i ",
"o o d : + + + + + + + + + + + + + + + + + + + + + + + + + + + + + + + + + + + + + + + + + + + + + + + + + + + + + + + + f o o o ",
"o o d : + + + + + + + + + + + + + + + + + + + + + + + + + + + + + + + + + + + + + + + + + + + + + + + + + + + + + + + + f o o o ",
"g g > : + + + + + + + + + + + + + + + + + + + + + + + + + + + + + + + + + + + + + + + + + + + + + + + + + + + + + + + + 0 g g g ",
"h h q + + + + + + + + + + + + + + + + + + + + + + + + + + + + + + + + + + + + + + + + + + + + + + + + + + + + + + + + + j h h h ",
"+ + + + + + + + + + + + + + + + + + + + + + + + + + + + + + + + + + + + + + + + + + + + + + + + + + + + + + + + + + + + + + + + ",
"+ + + + + + + + + + + + + + + + + + + + + + + + + + + + + + + + + + + + + + + + + + + + + + + + + + + + + + + + + + + + + + + + ",
"+ + + + + + + + + + + + + + + + + + + + + + + + + + + + + + + + + + + + + + + + + + + + + + + + + + + + + + + + + + + + + + + + ",
"p p 8 + + + + + + + + + + + + + + + + + + + + + + + + + + + + + + + + + + + + + + + + + + + + + + + + + + + + + + + + + k p p p ",
"o o d : + + + + + + + + + + + + + + + + + + + + + + + + + + + + + + + + + + + + + + + + + + + + + + + + + + + + + + + + f o o o ",
"o o d : + + + + + + + + + + + + + + + + + + + + + + + + + + + + + + + + + + + + + + + + + + + + + + + + + + + + + + + + f o o o ",
"o o d : + + + + + + + + + + + + + + + + + + + + + + + + + + + + + + + + + + + + + + + + + + + + + + + + + + + + + + + + f o o o ",
"o o d : + + + + + + + + + + + + + + + + + + + + + + + + + + + + + + + + + + + + + + + + + + + + + + + + + + + + + + + + 0 l l l ",
"o o d : + + + + + + + + + + + + + + + + + + + + + + + + + + + + + + + + + + + + + + + + + + + + + + + + + + + + + + + + 6 ; ; ; ",
"o o d : + + + + + + + + + + + + + + + + + + + + + + + + + + + + + + + + + + + + + + + + + + + + + + + + + + + + + + + + + + + + ",
"o o d : + + + + + + + + + + + + + + + + + + + + + + + + + + + + + + + + + + + + + + + + + + + + + + + + + + + + + + + + + + + + ",
"o o d : + + + + + + + + + + + + + + + + + + + + + z x c c c c c c c c c c x z + + + + + + + + + + + + + + + + + + + + + + + + + ",
"v v t + + + + + + + + + + + + + + + + + + + + + + x b n n n n n n n n n n b x + + + + + + + + + + + + + + + + + + + + + m M M M ",
"+ + + + + + + + + + + + + + + + + + + + + + + z x N B V V V V V V V V V V B N x z + + + + + + + + + + + + + + + + + + + f $ $ $ ",
"+ + + + + + + + + + + + + + + + + + + + + + + x b B C Z Z Z Z Z Z Z Z Z Z C B b x + + + + + + + + + + + + + + + + + + + f o o o ",
"+ + + + + + + + + + + + + + + + + + + z x c c N B A S D D D D D D D D D D S A B N c c x z + + + + + + + + + + + + + + + f o o o ",
"m m k + + + + + + + + + + + + + + + + x b n n B C S F D D D D D D D D D D F S C B n n b x + + + + + + + + + + + + + + + f o o o ",
"G G H : + + + + + + + + + + + + + z x N B V V A S J K L L L L L L L L L L K J S A V V B N x z + + + + + + + + + + + + + f o o o ",
"o o d : + + + + + + + + + + + + + x b B C Z Z S F K P I I I I I I I I I I P K F S Z Z C B b x + + + + + + + + + + + + + f o o o ",
"o o d : + + + + + + + + + + + z x N B A S D D J K U Y T T T T T T T T T T Y U K J D D S A B N x z + + + + + + + + + + + f o o o ",
"$ $ > : + + + + + + + + + + + x b B C S F D D K P Y R T T T T T T T T T T R Y P K D D F S C B b x + + + + + + + + + + + f o o o ",
"t t E + + + + + + + + + + z x N B A S J K L L U Y T T T T T T T T T T T T T T Y U L L K J S A B N x z + + + + + + + + + f o o o ",
"+ + + + + + + + + + + + + x b B C S F K P I I Y R T T T T T T T T T T T T T T R Y I I P K F S C B b x + + + + + + + + + f o o o ",
"+ + + + + + + + + + + z x N B A S J K U Y T T T T T T T T T T T T T T T T T T T T T T Y U K J S A B N x z + + + + + + + f o o o ",
"+ + + + + + + + + + + x b B C S F K P Y R T T T T T T T T T T T T T T T T T T T T T T R Y P K F S C B b x + + + + + + + f o o o ",
"W W q + + + + + + + + c n V Z J K U Y T T T T T T Q ! ~ ^ / ( T T ( / ^ ~ ! Q T T T T T T Y U K J Z V n c + + + + + + + W H H H ",
") ) _ : + + + + + + + c n V Z K P Y R T T T T T T ! ` ' ] [ / T T / [ ] ' ` ! T T T T T T R Y P K Z V n c + + + + + + + : 6 6 6 ",
"o o d : + + + + + z x N B A S L I T T T T T T T T { } |  .] ^ T T ^ ]  .| } { T T T T T T T T I L S A B N x z + + + + + + + + + ",
"o o d : + + + + + x b B C S F L I T T T T T T T T { } ..| ' ~ T T ~ ' | ..} { T T T T T T T T I L F S C B b x + + + + + + + + + ",
"o o d : + + + z x N B A S J K U Y T T T T T T T T { } X.X.} { T T { } X.X.} { T T T T T T T T Y U K J S A B N x z + + + : 6 6 6 ",
"o o d : + + + x b B C S F K P Y R T T T T T T T T { } X.X.} { T T { } X.X.} { T T T T T T T T R Y P K F S C B b x + + + o.4 4 4 ",
"o o d : + + + c n V Z J K U Y T T T T T T T T T T ! ` } } ` ! T T ! ` } } ` ! T T T T T T T T T T Y U K J Z V n c + + + f o o o ",
"o o d : + + + c n V Z K P Y R T T T T T T T T T T Q ! { { ! Q T T Q ! { { ! Q T T T T T T T T T T R Y P K Z V n c + + + f o o o ",
"o o d : + + + c n V Z L I T T T T R Y Y R T T T T T T T T T T T T T T T T T T T T T T T T T T T T T T I L Z V n c + + + f O.O.O.",
"o o d : + + + c n V Z L I T T T T Y U U Y T T T T T T T T T T T T T T T T T T T T T T T T T T T T T T I L Z V n c + + + +.e e e ",
"o o d : + + + c n V Z L I T T T T I L L I T T T T T T T T T T T T T T T T T T T T T T R Y Y R T T T T I L Z V n c + + + + + + + ",
"o o d : + + + c n V Z L I T T T T I L L I T T T T T T T T T T T T T T T T T T T T T T Y U U Y T T T T I L Z V n c + + + + + + + ",
"o o d : + z x N B A S L I T T R Y P K L I T T T T T T T T T T T T T T T T T T T T T T I L L I T T T T I L S A B N x z + + + + + ",
"X X 5 : + x b B C S F L I T T Y U K J L I T T T T T T T T T T T T T T T T T T T T T T I L L I T T T T I L F S C B b x + : j j j ",
"O O @.+ + c n V Z J K U Y T T I L D D L I T T T T T T T T T T T T T T T T T T T T T T I L L I T T T T I L D D Z V n c + t X X X ",
"+ + + + + c n V Z K P Y R T T I L D D L I T T T T T T T T T T T T T T T T T T T T T T I L L I T T T T I L D D Z V n c + f o o o ",
"+ + + + + c n V Z L I T T T T I L D D L I T T T T T T T T T T T T T T T T T T T T T T I L L I T T T T Y U K J Z V n c + f o o o ",
"+ + + + + c n V Z L I T T T T I L D D L I T T T T T T T T T T T T T T T T T T T T T T I L L I T T T T R Y P K Z V n c + f o o o ",
"#.#.$.+ + c n V Z L I T T T T I L D D K P Y R T T T T T T T T T T T T T T T T T T R Y P K L I T T T T T T I L Z V n c + f o o o ",
"o o d : + c n V Z L I T T T T I L D D J K U Y T T T T T T T T T T T T T T T T T T Y U K J L I T T T T T T I L Z V n c + f o o o ",
"o o d : + c n V Z L I T T T T Y U K J D D K P I I Y R T T T T T T T T T T T T R Y P K J K U Y T T T T T T I L Z V n c + f o o o ",
"o o d : + c n V Z L I T T T T R Y P K D D J K L L U Y T T T T T T T T T T T T Y U K J K P Y R T T T T T T I L Z V n c + f o o o ",
"> > e : + c n V Z L I T T T T T T Y U L L L L L L U Y T T T T T T T T T T T T Y U L L U Y T T T T T T T T I L Z V n c + o.> > > ",
"6 6 : + + c n V Z L I T T T T T T R Y I I I I I I Y R T T T T T T T T T T T T R Y I I Y R T T T T T T T T I L Z V n c + : 6 6 6 ",
"+ + + + + c n V Z L I T T T T T T T T T T T T T T T T T T T T T T T T T T T T T T T T T T T T T T T T T T I L Z V n c + + + + + ",
"+ + + + + c n V Z L I T T T T T T T T T T T T T T T T T T T T T T T T T T T T T T T T T T T T T T T T T T I L Z V n c + + + + + ",
"%.%.&.*.6 =.-.V Z K P I I I I I I I I I I I I I I I I I I I I I I I I I I I I I I I I I I I I I I I I I I P K Z V ;.=.6 :.%.%.%.",
">.>.,.#.<.1.2.V Z J K L L L L L L L L L L L L L L L L L L L L L L L L L L L L L L L L L L L L L L L L L L K J Z V 3.1.<.4.>.>.>.",
"5.5.6.G o 7.8.9.C Z Z Z Z Z Z Z Z Z Z Z Z Z Z Z Z Z Z Z Z Z Z Z Z Z Z Z Z Z Z Z Z Z Z Z Z Z Z Z Z Z Z Z Z Z Z C 0.q.7.o w.5.5.5.",
"5.5.6.G o e.r.t.B V V V V V V V V V V V V V V V V V V V V V V V V V V V V V V V V V V V V V V V V V V V V V V B y.7.e.o w.5.5.5.",
"5.5.6.G o o X u.n i.i.i.i.i.i.i.i.i.i.i.i.i.i.i.i.i.i.i.i.i.i.i.i.i.i.i.i.i.i.i.i.i.i.i.i.i.i.i.i.i.i.i.i.i.i.n p.o o o w.5.5.5."
};
