/* XPM */
static char *rcp08091572311736[] = {
/* columns rows colors chars-per-pixel */
"64 64 238 2 ",
"   c #010103",
".  c #0C0202",
"X  c #01060A",
"o  c #020B0D",
"O  c #0B0C0D",
"+  c #0B0609",
"@  c #130B0C",
"#  c #180909",
"$  c #050E11",
"%  c #0B0E11",
"&  c #120E15",
"*  c #0B1213",
"=  c #091519",
"-  c #141214",
";  c #1C1514",
":  c #121518",
">  c #151A1B",
",  c #1B1C1D",
"<  c #191717",
"1  c #13110F",
"2  c #2A0D14",
"3  c #221614",
"4  c #241A13",
"5  c #2A1B14",
"6  c #221D1D",
"7  c #2C1B1A",
"8  c #281617",
"9  c #321C16",
"0  c #351A17",
"q  c #240D0B",
"w  c #2C221E",
"e  c #23211E",
"r  c #33221D",
"t  c #3A221B",
"y  c #1C1E20",
"u  c #131F22",
"i  c #0A1D20",
"p  c #231E21",
"a  c #2A1E22",
"s  c #3E1528",
"d  c #391924",
"f  c #1C2222",
"g  c #192628",
"h  c #193435",
"j  c #0F272C",
"k  c #232323",
"l  c #2A2625",
"z  c #2B2827",
"x  c #25292A",
"c  c #2D2A29",
"v  c #242728",
"b  c #322423",
"n  c #3A2623",
"m  c #332C2C",
"M  c #3A2A26",
"N  c #29302D",
"B  c #35302E",
"V  c #39312F",
"C  c #293737",
"Z  c #343232",
"A  c #3C3333",
"S  c #3B3936",
"D  c #373C3B",
"F  c #322F31",
"G  c #48181C",
"H  c #492519",
"J  c #5B2C1E",
"K  c #592719",
"L  c #632C1E",
"P  c #63321E",
"I  c #7B341D",
"U  c #441A27",
"Y  c #4B1D27",
"T  c #421729",
"R  c #441928",
"E  c #4B1C2A",
"W  c #4B1622",
"Q  c #561B27",
"!  c #5C1E31",
"~  c #420F20",
"^  c #4E2027",
"/  c #482727",
"(  c #532226",
")  c #53212A",
"_  c #5A2628",
"`  c #593529",
"'  c #5C2431",
"]  c #423636",
"[  c #423936",
"{  c #453C39",
"}  c #4B3D3C",
"|  c #483332",
" . c #533E3D",
".. c #48322B",
"X. c #642E23",
"o. c #69262F",
"O. c #6D292F",
"+. c #63272C",
"@. c #732D2E",
"#. c #742E20",
"$. c #653122",
"%. c #6C3323",
"&. c #6E322D",
"*. c #733623",
"=. c #753921",
"-. c #7B3A24",
";. c #7C342D",
":. c #793728",
">. c #652331",
",. c #6A2432",
"<. c #6E2931",
"1. c #602832",
"2. c #722634",
"3. c #742A31",
"4. c #7B2E32",
"5. c #782B38",
"6. c #7D3131",
"7. c #22403F",
"8. c #4C433D",
"9. c #46423D",
"0. c #52423F",
"q. c #7F4024",
"w. c #313E41",
"e. c #183D40",
"r. c #2B4343",
"t. c #294846",
"y. c #364745",
"u. c #355654",
"i. c #2C504D",
"p. c #4C4642",
"a. c #484A49",
"s. c #544542",
"d. c #5A4644",
"f. c #5C4945",
"g. c #564C47",
"h. c #58534C",
"j. c #475B58",
"k. c #595C59",
"l. c #634E49",
"z. c #624A45",
"x. c #65514B",
"c. c #6B544E",
"v. c #6D5750",
"b. c #6B5A53",
"n. c #715750",
"m. c #735B54",
"M. c #7A5F58",
"N. c #67625C",
"B. c #7D6159",
"V. c #7F695D",
"C. c #756256",
"Z. c #527672",
"A. c #796C62",
"S. c #6D6A69",
"D. c #58645F",
"F. c #823B26",
"G. c #893D26",
"H. c #853A2B",
"J. c #8B3C2C",
"K. c #84362E",
"L. c #933E2E",
"P. c #993F2E",
"I. c #823232",
"U. c #8A3634",
"Y. c #933B31",
"T. c #822E35",
"R. c #84341F",
"E. c #8C412B",
"W. c #814124",
"Q. c #94422B",
"!. c #9C442C",
"~. c #9B4728",
"^. c #9C4531",
"/. c #A1462C",
"(. c #A3492C",
"). c #AC4B2E",
"_. c #A74731",
"`. c #B34F30",
"'. c #83645C",
"]. c #816C5F",
"[. c #876A61",
"{. c #8A7668",
"}. c #937B6B",
"|. c #987A6B",
" X c #87746F",
".X c #4B807D",
"XX c #978779",
"oX c #8E8378",
"OX c #A18674",
"+X c #AB8E7B",
"@X c #A68A77",
"#X c #AD917E",
"$X c #B0907E",
"%X c #529A96",
"&X c #499994",
"*X c #708782",
"=X c #5BA39D",
"-X c #58BEB6",
";X c #51B2AC",
":X c #63B1AA",
">X c #76C3BD",
",X c #6CC2BB",
"<X c #69CCC5",
"1X c #6BD5CE",
"2X c #7AE3DA",
"3X c #7BF1E8",
"4X c #93908C",
"5X c #A89988",
"6X c #B89A86",
"7X c #B8A795",
"8X c #B5A18E",
"9X c #BAB3AD",
"0X c #A9AAAA",
"qX c #C3A28C",
"wX c #C5AB96",
"eX c #D5B49D",
"rX c #CAAF99",
"tX c #CAB8A3",
"yX c #D1BBA5",
"uX c #E3BEA5",
"iX c #ECD0B6",
"pX c #85C8C1",
"aX c #91DAD2",
"sX c #81E0D7",
"dX c #9EF2E8",
"fX c #A0F4EA",
"gX c #CCC9C5",
"hX c #CAD4CB",
"jX c #D8D4CD",
"kX c #F5DDC2",
"lX c #DBE5DD",
"zX c #E7E7DE",
"xX c #FFEED2",
"cX c #E6E9E6",
"vX c white",
"bX c #F1F0F1",
"nX c #E0F1E6",
"mX c #DFF1E6",
/* pixels */
"bXvXvXcXw.B {.rXqXc.O l 8XxXkXkXxXwX9.X $ f k k , : > > : , k k , : > > : , k k , > , % X { 7XxXxX7X{ z C.+XXX@XqX{.Z w.cXvXvXbX",
"vXvXlX0Xg.g.{.qXrXXXh.h.oX7X8X8X7XoXp.z c m l k m V m m V m k k m V m m V m k k m V A l l p.oXtXtX Xc c }.eXwX6X6X}.g.g.9XcXvXvX",
"vXbXS.k.A.XXOX#XeXiXyXXXh.S { p.9.p.g.c.v.0.z z 0.c.x.x.c.0.z z 0.c.x.x.c.0.z z 0.c.c.l.x.l.g.g.g.B * S 5XiXiXrX#XOX}.A.N.4XbXvX",
"gX0Xp.C.@XqXqX6X5X7XtX5X{ & < , < m l.[.[.f.z z l.'.B.B.'.l.z z l.'.B.B.'.l.z z l.'.B.'.[.z.,   - 6 l g.XX7X7X5X6XrXeX@X9.f 4XgX",
"D g.A.6X@X6XiXwXb.N S g.f.z.z.d.f.f.d.f.l.} l z } l.f.f.l.} z z } l.f.f.l.} z z } l.f.f.l.[ : : ] c.n.l.p.Z c b.7XiXuX|.A $ C a.",
"S 8.C.@X6XwXwXoX{ % % m l.B.B.'.'.v.{ m A m l l m A A A A m l l m A A A A m l l m A A A A Z Z 8.v.[.'.l.V - O { XX7X@Xm.8.V A 9.",
"@XC.m p.wXyXN.Z } x.z.0.A A 0.l.l.0.m l l z l z z c c z z l l l z c c z z z l z z c c l k A l.n.l.s.d.f.f.z.z.g.p.S Z 8.m.{.}.}.",
"rXXXp.h.5XXXZ - d.{.[.l.z > c [ ] m y : , , , > > > : > , , , , > : : > , , , > > > > : : m f.x.} m m } v.[.[.c.M X X S +XeXqX$X",
"@X6X7X5XN.S c A } l.l.} z , k m m k * o * : * $ $ $ $ * - - * * $ $ $ * - - * $ $ $ $ $ % , z Z c z k m 0.l.l.s.} a % 9.wXiXqX|.",
"@X8XyX4Xz o V f.} A A m l , > > > , 5 4 - - 3 5 5 5 5 8 - & - 8 5 5 5 3 - - 3 5 5 5 9 4 1 - 7 w , : : y m A A A } m , S oXwX7X6X",
"yX8XA.B * , ] f.s.] m k , - * $ o 4 %.X.3 - J F.-.=.F.J 3 & d +.%.-.F.J ; ; J F.=.-.G.J ; 3 X.%.8 o o : k c z l l y , , z A.wXiX",
"xX7XS   k { A A [ A f * O - 5 8 ; H Q.F.8 ; =.).(.(.).-.5 & E T.L.).`.-.4 3 =.).(./._.%.< 5 G.Q.H ; 4 5 6 , , k c A [ p   B oXtX",
"xX7XS O 0.c.m , l l : o o 8 L -.=.G./.=.3 ; *.).!.!.(.=.4 & E 4.J.(.`.-.3 ; *.).(.L.U.) - 8 -.!.-.*.-.L 5 $ : m g.M.M.0., , S g.",
"wXoX9.m l.m.} l f e 7 ; O 7 -.).!.Q.!.%.; ; %.!.Q.E.!.%.4 & T 3.H.Q.L._ < ; %.!.Q.F.<.s & 4 %.!.!.(.).-.5 o : A f.M.B.c.[ k - % ",
"p.9.[ ] } l.n.g.c r %.L ; 4 -.!.6.;.Q.*.3 ; %.!.Q.Q.!.*.4 & s 3.J.J.6.U & 4 %./.Q.H.3.T & 4 %./.!.(.(.-.5 $ , m m [ 0.s.} m , : ",
"o , A } A } n.g.g r E.G.5 ; %.J.>.>.L.=.4 ; %./.Q.Q.!.%.4 - Y I.L.J.I.Y & 4 %.(.!.J.4.U & 4 *.!.J.H.Q.*.5 $ : , > f A } s.{ m k ",
"* , A 8.{ ] ] l $ 5 G.F.5 ; *.L.o.o.L.*.4 ; %./.!.!./.%.3 ; X.Q.Q.Q.!.X.; ; %.(.~.J.4.U & 4 =.L.@.@.L.-.9 o $ * > z A s.s.{ c k ",
"c V ] s.s.A l : - H G.*.3 ; *.L.O.O.Q.=.4 ; %.!.J.J.!.%.; 3 *.(.Q.Q.!.%.; ; %.!.Q.;.3.U & 5 -.L.o.>.J.-.7 O ; 7 e x A { ] m k , ",
"{ } } s.s.A v w J G.!.%.; 4 *.L.O.O.Q.=.4 ; *.L.O.O.L.*.4 ; %.(.!.J.I.^ & 4 *.Q.;.,.<.Y & 5 -.L.O.o.L.*.4 ; J %.n f v l k , , > ",
"A A A A [ F u r -.`.).$.< 4 *.L.O.o.J.%.; 4 =.L.@.@.L.*.4 ; %./.!.H.3.s % 5 =.L.<.! ,.Y - 4 %.K.>.O.Q.*.; 8 G.!...y , k c V V m ",
"k k y k m f $ ; *.).).$.< 4 *.Q.@.>.3.( - 4 *.!.J.J.!.%.3 ; %.(.!.H.3.T & 4 =.L.@.! ,.Y - ; _ 2.! O.!.=.; 4 -./.3.d , c s.n.c.c.",
"m m V m l , 4 H =.!.(.%.; 4 *.L.@.! >.U & 4 *.!.Q.Q.!.%.; ; %.(.!.J.4.U & 4 =.L.O.! ,.^ < - U >.>.@.J.%.; ; X.L.I.( a c x.'.M.n.",
"x.c.n.g.c l $.G.G.Q.!.%.; 4 %.L.O.! >.Y & 4 =.L.@.@.Q.*.4 ; %./.!.J.3.U & 4 =.L.<.! ,.( ; - U 3.;.H.6.^ - - ^ I.Y.*.b v { f.g.s.",
"m.M.M.s.k 5 %.Q.Q.!.).*.; 4 =.!.;.,.<.Y & 4 =.J.>.>.L.*.4 ; %.(.!.J.3.U & 4 *.!.;.,.,.Y - - E I.!.Q.4.R - - s 3.!.q.n f F { [ ] ",
"d.s.{ l ; ; b ` E.).`.:.6 4 =.).!.K.3.U & 5 =.L.o.o.L.*.3 ; %.(.!.J.4.U & 4 %./.Q.K.<.R - - E I.^.^.4.U - - s 3.!.W.n f Z { { ] ",
"} V , f y.r.= @ K R.I H # # _ E.E.K.3.U & 5 =.L.O.O.Q.=.4 - X.!.!.J.3.T & 4 *.!.Q.H.I._ ; - d +.#.#.+.d - ; ( I.L.%.b v A s.0.} ",
"s.V ; r.=X%Xj   # 0 q # . # w / +.3.2.U & 4 =.L.O.O.Q.-.5 & Y I.Q.J.3.s % 4 =.L.@.@.L.-.5 = v n 0 0 n v = 7 =.P.4.E a v [ s.0.} ",
"{ b 3 u.<XsX*Xp.y.u.j.k.j.t.j p ) 3.2.U & 4 =.L.O.o.K.%.4 & T 3.J.Q.I.Y & 4 =.L.@.O.:.%.4 + + f w.w.f +   4 $.J.6.( l k m A A A ",
"v < ; t.;XdXcXhX>X>XhXlXaX&Xe.8 L Y.4.R & 4 =.L.@.>.3._ ; - U 3.H.!.!.%.; 3 %./.L.&...w ; . . C %X%XC . . < w ` G.:.M u y k k k ",
"S l 3 t.;XdXnXhX>XpXjXzXaX&Xr.0 I ^.I.R & 4 =.L.@.! >.Y - - Y 3.J.!.!.X.; ; %.).).-.w j r.y.D Z.2X2XZ.D y.r.j b -.F.M f x V m m ",
"m. .8 i.<XsX*Xp.y.j.k.N.j.t.g n -.!.4.R & 4 =.L.@.' >.Y - - U 4.J.L.I.Y - 4 %.).).#.5 h %X,X,X<X3X3X<X,X,X%XC 8 +.+.b x s.n.c.x.",
"[.z.7 r.=X%Xh   . +     . @ = b -.L.4.R & 4 =.L.@.>.,.( ; - U 4.J.J.6.U & 4 *.(.^.L 2 i.-X3X1X:X:X:X:X1X3X-Xi.2 Q ) a c l.'.M.n.",
"f.{ l f r.y.v @ +       @ + o 4 =.!.4.T & 4 =.L.@.>.,.Y < - Y 3.J.Q.!.X.- 4 =./.U.W q i.-X<X.Xy.y.y.y..X<X-Xi.2 Q ' a v { f.d.s.",
"{ ] B a ; - , k w 7 7 6 < * - H -.L.4.T & 4 =.L.O.! ,.Y ; - U 3.H.!.(.*.3 ; %.Y.5.~ # u.aXpXC         C pXaXu.q Q ' b v Z { { ] ",
"} } } A w * $ < ` :.O.d - ; J G.E.J.4.U & 4 =.L.<.! ,.^ ; - T 3.H.!.(.*.4 - ( 4.5.~ # D.nXlX{         { lXmXD.# W ' b v S  .} } ",
"A A ] A c f ; H G._.U.U & 4 -.).(.J.3.T & 4 =.Q.;.,.<.Y - - ( 6.J.Q.!.%.4 & T 2.5.G + a.9XjXoXa.k.k.a.oXjX9Xa.@ W 1.b f B ] A A ",
"k k k f f b $.G.~.L.4.U & 4 =.).(.J.3.T & 4 *.!.Q.K.3.E & 4 $.L.E.Q.!.*.4 & U 2.2.Y - * Z  XgXcXzXzXcXgX XZ * ; Q ' b f f k k k ",
"m m m x f n :.!.Q.F.3.U & 4 %.!.J.K.4.^ - 4 %.(.~.J.3.T & 4 =.(.Q.Q.!.*.4 - Y 2.,._ n .   Z 9XbXcXzXbX9XZ     d ' ' b f z m m m ",
"x.c.c.s.z a _ I.J.J.4.R & 4 =.L.O.O.J.%.; ; %.(.~.J.3.T & 4 *./.!.Q.!.%.4 - Y <.>.O.:.K # * a.S.N.N.S.a.: . 0 1.<.) a c s.n.c.x.",
"n.M.'.x.B p R 3.J.J.4.R & 5 =.L.@.@.!.=.4 ; %./.!.J.6.Y - 4 %.!.J.J.!.*.4 - Y ,.' @.!.E.t o             o 7 ' 2.2.E 6 c l.'.M.n.",
"s.d.z.8.N l E 3.J.J.3.R & 4 %.!.J.J./.*.3 ; %./.Q.Q.Q.X.< 4 *.L.@.@.L.=.4 & Y ,.' @.!.F.r o             o 8 ( 2.2.^ a x { f.d.s.",
"[ [ ] c , 3 U &.E.Q.I.U & 4 =.(.Q.Q.!.%.; ; %.!.Q.Q.(.*.; 4 *.L.,.>.L.=.4 & Y ,.! O.J.=.5 % 6 t r r t 4 - ; Y <.<.) a v A { { ] ",
" .{ m , - - p ` E._.U.E : 5 -./.;.@.Q.*.3 ; %.!.Q.Q.(.%.; 4 *.L.o.o.L.=.4 & Y ,.! O.L.*.8 - _ F.-.-.F.J ; - Y 2.2.) a v S  .} } ",
"] m a x y.7.i q K #.Q 2 + q P ;.' ,.L.*.4 ; %.!.Q.Q.!.%.; 4 *.L.O.O.L.=.4 & Y <.,.;.!.%.; 3 -.).(.(.).-.8 - U 2.,.^ a v B ] A A ",
"v , @ y.=X%Xh   # 0 # . . # w / ) 3.P.*.4 ; %.!.Q.Q.!.%.; 4 *.L.O.O.L.=.5 & U 3.;.Q./.%.; 3 *.(.!.!.(.=.4 - U 2.,.E l f f k k k ",
"S w ; u.<XsX*Xp.y.u.j.k.j.t.j 6 E 4.!.%.4 ; %.(.Q.Q.!.%.; 4 *.L.O.O.L.=.5 & R 4.J.~.(.%.; ; %.!.Q.E.!.%.4 - U 2.3._ b f z m m m ",
"m. .7 r.;XfXcXhX>X>XhXlXaX&X7.3 W 6.^.%.4 ; *.(.Q.Q.!.%.; 4 *.L.O.O.L.=.5 & U 4.J.~.(.%.; ; %.!.Q.Q.!.%.4 & R 4.Y.%.r x s.n.c.x.",
"[.z.0 r.;XfXcXhX>XpXjXcXaX&Xr.8 W 6.^.*.4 - X.Q.Q.Q.(.%.; 4 *.L.O.O.L.=.5 & U 3.H.!.(.%.; ; %.!.Q.Q.!.*.4 & R I.!.-.r x f.'.M.n.",
"x.| 8 i.<XsX*Xs.y.j.k.N.j.t.N a E 4.!.=.4 & Y 6.J.!.(.*.; 4 *.L.O.O.L.=.5 & U 4.J.!.(.%.; ; %.!.Q.Q.!.%.4 & R 4.!.-.r g { f.d.s.",
"} M ; r.=X%Xh     +     . @ : p E 4.P.*.4 & s 3.H.Q.!.X.- 4 *.L.o.o.J.=.5 & T 3.H.!.(.%.; 3 %./.Q.Q./.*.4 & R 4.!.-.n f Z { { ] ",
"} A p v y.r.u X         + + o : U 4.L.%.4 & s 3.J.J.;.Y & 4 *.J.>.>.J.=.5 % s <.F.Q.!.%.; 3 %.(.Q.Q.!.*.4 & s 4.!.-.r f S 0.} } ",
"} { Z 6 & 3 M ..n r t r < - 4 0 ) 6./.-.5 & U I.Q.Q.4.T & 5 -.!.6.6.!.-.4 & ) U.L.(.).*.4 ; X.!.!.!.!.%.4 - U T.Y.:.n f m ] A A ",
"} 0.0.m , 9 %.Q.G.G.Q.$.; ; P H.<.4./.F.5 & E I.!.!.I.U & 5 -.).!.!.).-.4 ; %._.!.(.).-.8 - Q U.!.!.U.( - < E 5.T.+.b f f k k k ",
"A A ] Z x M %.G.F.G.E.X.; 4 %.H._ ( *.P 4 & d +.*.=.+.d & ; J F.-.-.F.J ; ; J G.-.=.F.J 4 & d +.*.*._ d - ; d ! Q U a v c m m m ",
"k k k v v k 7 9 9 t t 7 - ; 7 0 8 8 5 4 - - ; 8 7 7 8 ; & - 8 9 9 9 9 8 - - 4 9 7 7 9 8 ; - ; 8 5 5 8 ; - - 3 8 8 ; , m d.c.c.x.",
"m m m c k > = $ o X X o O O o X o o * * % O o o o o o O < : o X X o o o O % * $ o X o o O O o o * * o o O O o o o o : V x.B.M.n.",
"x.c.v.s.l : > , = $ $ % * * $ $ $ * , , : % % * $ $ $ : , , * $ $ $ $ $ % : , , = $ $ % * * o * , , * % * * * $ $ * , m 8.f.d.s.",
"m.M.B.c.{ z , z [ 0.8.{ { { } 8.8.A l k A 8.8.{ } 8.8.A k k A 8.8.} } 8.8.A k k [ 8.8.{ { 8.p.[ k k A 8.8.{ { 8.s.[ l k V { ] ] ",
"s.s.s.l.n.0., c V.+XOX}.}.}.}.OX+XC.6 6 C.+XOX}.}.OX+XC.6 6 C.+XOX}.}.OX+XC.6 6 C.+XOX}.}.OX#XC., , C.+XOX}.}.OX+X].V , m } { ] ",
"{ ] A s.M.c.] { [.+X+XOX@XOXOX$X6XV.6 6 V.6X$XOXOX$X6XV.6 6 V.6X$XOXOX$X6XV.6 6 V.6X#XOXOX+X#XC.l l ].6X+XOXOX+X+X[.[ z A s.} } ",
"} { { } s.x.n.x.8.8.x.b.b.c.c.m.M.s.k k s.M.m.c.c.m.M.s.k k s.M.m.c.c.m.M.s.k k s.M.b.v.b.x.s.[ A { l.n.b.v.b.x.p.{ [ { } } } } ",
"A ] ] A m { c.g.k * k m m m m m m c l l c m m m m m m c l l c m m m m m m c l l c m m m m k : , A { V c c m m k : > m { [ A A A ",
"z z z l k z V m k , y k k k k k k k k k k k k k k k k k k k k k k k k k k k k k k k k k k p , , z c l k k k k p , , l c z z z z ",
", , , f k , > > k z k k k k k k k k k k k k k k k k k k k k k k k k k k k k k k k k k k k k l l , , f k k k k k l l f , , , , , "
};
