/* XPM */
static char *rcp13342516778327[] = {
/* columns rows colors chars-per-pixel */
"64 64 236 2 ",
"   c #030102",
".  c #070508",
"X  c #161214",
"o  c #191416",
"O  c #1A1619",
"+  c #1D1A1B",
"@  c #171518",
"#  c #11100E",
"$  c #211E1E",
"%  c #24201F",
"&  c #211E22",
"*  c #242225",
"=  c #292526",
"-  c #262429",
";  c #29272B",
":  c #2C292C",
">  c #322C2E",
",  c #2E2B32",
"<  c #332E32",
"1  c #362F35",
"2  c #343134",
"3  c #3A3335",
"4  c #363339",
"5  c #3B353B",
"6  c #3E393E",
"7  c #3F3A34",
"8  c #3E3A2F",
"9  c #41373C",
"0  c #43393E",
"q  c #4C3D3E",
"w  c #4A3736",
"e  c #573E35",
"r  c #3E443B",
"t  c #55411E",
"y  c #64411B",
"u  c #7E6717",
"i  c #4B433C",
"p  c #45433A",
"a  c #584639",
"s  c #554C34",
"d  c #6C5B22",
"f  c #775A2A",
"g  c #684836",
"h  c #6B5736",
"j  c #735330",
"k  c #79642A",
"l  c #78683B",
"z  c #3D3642",
"x  c #3E3A41",
"c  c #443443",
"v  c #453C43",
"b  c #493E45",
"n  c #453D4B",
"m  c #4A3E4A",
"M  c #47354C",
"N  c #533E4B",
"B  c #553C46",
"V  c #4C3D52",
"C  c #4A3B57",
"Z  c #533E56",
"A  c #3D4844",
"S  c #454245",
"D  c #4B4245",
"F  c #4D4A44",
"G  c #464249",
"H  c #4C434B",
"J  c #4D494D",
"K  c #444B4B",
"L  c #514545",
"P  c #524B44",
"I  c #51464D",
"U  c #534B4D",
"Y  c #594D49",
"T  c #5A4847",
"R  c #4C5449",
"E  c #545246",
"W  c #55524D",
"Q  c #5A524A",
"!  c #595240",
"~  c #454452",
"^  c #4D4453",
"/  c #4E4851",
"(  c #4B435B",
")  c #4E4A59",
"_  c #474A5D",
"`  c #524554",
"'  c #534A52",
"]  c #594D54",
"[  c #54445B",
"{  c #534A5B",
"}  c #5C4D5C",
"|  c #5A4353",
" . c #5A5159",
".. c #565253",
"X. c #614B43",
"o. c #685543",
"O. c #6B524C",
"+. c #726143",
"@. c #544662",
"#. c #5D5061",
"$. c #9C6E01",
"%. c #9D7400",
"&. c #9E7C02",
"*. c #8B6919",
"=. c #987A14",
"-. c #90661C",
";. c #A26D02",
":. c #A76F0E",
">. c #A57401",
",. c #AA7601",
"<. c #A57A01",
"1. c #AB7C01",
"2. c #A7750A",
"3. c #AB790B",
"4. c #B17D02",
"5. c #B17B0B",
"6. c #A77B17",
"7. c #B27C1A",
"8. c #876829",
"9. c #826734",
"0. c #98763A",
"q. c #8E7527",
"w. c #8D5A2B",
"e. c #C47F00",
"r. c #968612",
"t. c #AD8202",
"y. c #AC850B",
"u. c #B38301",
"i. c #BA8502",
"p. c #B58A01",
"a. c #BB8B01",
"s. c #BC8C0A",
"d. c #B8840A",
"f. c #BD9301",
"g. c #BE9C01",
"h. c #B79707",
"j. c #A78717",
"k. c #B38312",
"l. c #B88A18",
"z. c #B4961A",
"x. c #B3A300",
"c. c #BAAA16",
"v. c #9C8721",
"b. c #B39D23",
"n. c #C28E02",
"m. c #C58908",
"M. c #C39401",
"N. c #CA9501",
"B. c #C59A01",
"V. c #CB9C02",
"C. c #C3940A",
"Z. c #CC950A",
"A. c #C69B0B",
"S. c #CC9B0B",
"D. c #D29E03",
"F. c #D59A09",
"G. c #C69916",
"H. c #C08B17",
"J. c #C5A202",
"K. c #CDA301",
"L. c #CAAC01",
"P. c #CAA709",
"I. c #D3A402",
"U. c #DAA503",
"Y. c #D6AB01",
"T. c #DCAC01",
"R. c #D3A40B",
"E. c #DBAC0B",
"W. c #D8A60A",
"Q. c #D4B201",
"!. c #DCB301",
"~. c #DDBD00",
"^. c #DAB70B",
"/. c #CCAB0E",
"(. c #E0AE00",
"). c #E3AE08",
"_. c #E3B402",
"`. c #E9B602",
"'. c #E5BB02",
"]. c #EBBC01",
"[. c #E2B409",
"{. c #ECBC0A",
"}. c #E8B809",
"|. c #F0BE09",
" X c #E9B810",
".X c #DFC602",
"XX c #E4C202",
"oX c #ECC303",
"OX c #EBCC03",
"+X c #E6CA06",
"@X c #F3C301",
"#X c #F4CB00",
"$X c #FCCD01",
"%X c #F3C30B",
"&X c #FAC60C",
"*X c #FDCC0B",
"=X c #F7C906",
"-X c #EAD300",
";X c #F4D302",
":X c #FDD302",
">X c #F5DB02",
",X c #FEDB02",
"<X c #FFD50C",
"1X c #FEDD0B",
"2X c #F3D80A",
"3X c #FBCA13",
"4X c #FFD613",
"5X c #FAD613",
"6X c #E2CB17",
"7X c #F3E300",
"8X c #FEE400",
"9X c #FDEB02",
"0X c #FDE30B",
"qX c #FDEC0D",
"wX c #F6EF01",
"eX c #F5F300",
"rX c #FDF401",
"tX c #FEFD01",
"yX c #FFFD0A",
"uX c #FAF505",
"iX c #FBE217",
"pX c #FCF613",
"aX c #EBE800",
"sX c #F9F324",
"dX c #FEEE2D",
"fX c #FEEA5D",
"gX c #FBFA57",
"hX c #FDFF41",
"jX c #FDED6F",
"kX c #FEFC68",
"lX c #FEF675",
"zX c #FDFF93",
"xX c #FFF8B8",
"cX c #FFEDC1",
"vX c #FFFFDB",
"bX c #FFF1EA",
/* pixels */
"  .         .         .                                                                                           .         .   ",
". * : 4 2 2 2 2 4 2 4 4 2 < 2 2 4 2 2 2 2 2 2 2 2 2 2 2 2 2 2 2 4 2 2 < , < < < < 2 2 2 2 2 < , < , , , < 2 2 , : , , , < * $ . ",
"  : 6 v 6 0 v 6 v v v v 6 6 v 6 v v x 6 x v v x 5 x v v x 6 x x v v 6 5 5 5 6 6 6 x x x x x 5 4 5 5 4 4 5 5 4 4 4 2 4 4 < : *   ",
". 2 6 v v D D v S D H H S D H S D G G S v S S G v G D D D D H H D D G G G D D G G G v S G G G G v v v v v v v v v x x x 4 < < . ",
"  : 3 v D H D S D D H I D H I D D H H H D D H H H D D H H H H H H H H D D H H H ^ H n H H H H H v v n n H n n G v v n v 2 : :   ",
"  > 3 b H H H ' ' I ' ] ' I ' ' H ' ' ] ' / ' ' ' ' / ' ' ' ' H ' ' / H H / ' ^ / H H / / H H H H H H ^ H D G H H G H G 1 ; :   ",
"  : 2 9 v D D U ] H ' ] ' H ' ' ' ' ] ] ] ' ' ' ' ' ' ' ] ' I H ' ' ' H H ' ' ' / H H ' / D H ' / H ^ H H v v D ' D G v 4 : , . ",
"  2 3 v H U I U ] H H ' J D H ' I ' ' ] ] ' H D H H ' ] ] ' I H H ' ' ' ' ] ' I ' H H ' I H I ] H H H H H m D ' H m v v 5 , =   ",
"  > 3 0 H ' ' ' ' ' ' I I H I  .I [ [ J W  .{ ( Z Y E { { U ] | F F H I ^ ^ H J ( ' J F S D ' ] J H ' H D D n H ^ H G v 5 , ;   ",
"  > 3 0 D I I ' H ' ' ' ' H H ' P P P ' { ' L Y / { U H ) J J ) i J ' ' U ] ] ' U D i H [ @.( H J H ' H H H H ' ^ H D v 5 , :   ",
"  > 3 9 D I I ' H ' ' I H D D I { } ] ' U ] ' m Z N [ ..F / W J { ' D D ^ ` ' ..` ^ ` ' H H ' ' / H ^ H D H H ' ' ^ H v 4 , :   ",
"  > 3 0 D I I ' I ] ' H H H H I @.' U ' ` m H J A E U | } [ ) W F J ) ' U P U ] J / { { ' ' H b H H H H H H D H ^ H H v 4 , :   ",
"  > 3 0 D I I I H ' ' ' ' ' I D L D I { ' U J ( I @.! o.9.x.2X1X1X<X^.y.8.O.#.( { H J J H / H ` G G H H H / D D n H H v 4 , :   ",
"  > 3 0 D I I I ' ' ' ' ] ] ' ' U ^ ` P P { } Y 0.^.2X0X8X,X,X1X,X,X,X$X#X$X&X}.l a I ` U P D ` G D / H H ^ G v G H H G 5 , :   ",
"  > 3 0 D ' ' ' ] ] ' I ' ' '  .} m D U I | 0.L.,X8XqXsXjXjXyX9XqX9X9X8X8X:X$X#X2Xh.8.X.N | H ' H H ' H H H v v ^ G G G z , ;   ",
"  : 2 9 D I ' ' ' ' ' ' ' I I ] H F / ` l c.>X,XuXlXxXcXfXwX0X,X,X,X,X,X,X1X,X:X$X$X+Xj.h | m U / / ' H H / H H { G v v z , -   ",
". > 3 v D I U ] [  .D ) H L @.Y ) U [ q.+X:X9XkXbXlXfX+XoX!.g.L.S.J.J.Q.K._.<X,X:X$X$X`.E.j I K R @.| H H I H H ^ D D v 5 , ;   ",
"  : 2 v H U U ' ' ' ] U U ` ' ' C F v.XX1X7XpXiXqX-XJ.P.g.J.1X>XQ.;X7XB.7.;.,.'.*X:X$X|.{.~.8.C ) I M ' J m ' H H n v v 4 , :   ",
"  : < 0 D U U ' U H { P ' { E ) s v.OX2X9XrX0X'.L.Y.].>XdXpXtX7XQ.>XyX8X;X#XT.l.i.D.OX].].{.~.-.N / ~ H b v U n H n v v 4 , :   ",
"  > 2 5 v H U ] ]  .I D { ' Q ' e XX=X9XrX2XXXK.!.iXdXgXvXhXtXOX^.~.>X8X:X:X,XoXN.4.M.Y.}.`.{.'.d m K v Z D W { ^ H D v 5 , :   ",
". < 3 0 v D I ' U  .' ^ ] ] L h Y.6XqX9XOXL.Q.;XsXcXxXgXyXpX7X.X4XI.;X,X$X$X$X#X&XoXa.7.I.U.`.%XG.+.S D [ S v ^ ' H H n z , :   ",
"  < 5 0 b H H H F [ { J U ] a z.[.Q.9X>XQ.K.2XfXzXkXsXrX,X,X-XeX$X].`.:X$X<X|.,X:X$X:X3.>.T.Y.T.!.j.a ` S ^ / ] ^ H D v 5 , ;   ",
"  > 3 0 D H H D F ^ H F H I 8.^._.#X<X.XL.1X9XtXtXeX9X,X4X1XY.9X:X`.N.3X$X$X$X*X$X#X@X{.u.M.K.T.T.Y.8.| 6 G { H H D D v 5 , ;   ",
"  > < 5 D U H D ^ Q i F ( e l._.`.;XE.n.5X7XtXtXtX0X1X8X>XXXOX;X$X]._.I.:X$X$X:X#X<X@X}.T.2.m.U.U.I.j.I _ F ` ^ H D D v 5 , ;   ",
"  > 3 5 v U ' H C J J m S w.).Y.{.*X,.g.rXyXtX9X,X8X4X,X,Xx.qX$X$X@X%XY.*X$X:X#X$X$X].@X].i.2.K.R.I.D.k ) [ G ^ D H D v 4 , ;   ",
"  : 2 9 v U U H P P ( Y J h.E.Y.`.K.i.;XtXrX9X0X>X8X,X1X>XrXtX,X$X`.`.$X@X$X:X:X4X@X]._.'.I.1.p.K.T.R.r.J L ~ S D ^ H v 5 , =   ",
"  = > 9 v H H D ! H ) ` Q L.D.I.`.%._.iXeXrX:X-XQ.L.Q.!.OXtX0X:X<X`._.&X(.(.D.W.I.`.|.].%XE.G.$.f.U.V.g.a B ~ D D ^ ^ n 5 , -   ",
"  = < 0 v D D H ` m U V o.P.N.K.n.%.E.Q.6X9X8XrX9X;X:X#X8X8X4X:X#X]._.`.=X=X`.|._._.Y.Y.V.1.C.>.t.N.B.G.! M S H m H H n 5 , ;   ",
"  : 3 v v D H I C P D H 9.R.N.K.7.3.9XeX.X9X7X:X;X4X:X:X:X:X$X$X$X]._.T.{.]._.'.!._.[.N.Z.T.[.;.3.a.B.V.h M S D m D G v 5 , ;   ",
"  : 3 0 v b D H H U L J y.I.N.B.&.M.uXtX#XK.tX#XXX#X$X$X$X*X$X*X#X_._. XT._.[.[.'.V.n.S.)._.'.u.<.4.V.V.&.V D H D D v v 5 , =   ",
"  : < 9 v D D D P ` Y ) K.N.M.p.<.}.7XrX$X@XOX0XXX`.|.].=X@X@X#X].T._.'.!._.!.Y.a.Z.n.T.].].3XV.%.y.M.V.M.~ T ^ H D G v 5 , -   ",
"  : < 5 v D D v H [ ` W I.D.d.s.>.P.,XoX3X*X#X'.-X%X).^.!.(.}.Q.[._.`.Y._.T.V.s.m.I.].@X].{._.V.>.p.n.S.Z.r T ^ H H D v 5 , -   ",
"  : < 5 v b D H S I ( P U.V.t.s.<.K.;XoX'.@X*X@X`.XXoXT.`.[.Q.`._._.!._.E.C.u.d.Y.`.].|.`.{._.V.>.y.s.J.F.q K | H v S v 4 , ;   ",
"  : > 5 v D D D D I ^ F U.K.p.u.>.K.oXoX].].].]._.!.'.oX`.T.^._._._._.T.V.p.p.K.{.].].].`._.Y.M.>.t.a.B.N.L K I H D S v 4 , ;   ",
"  : > 5 b H I I D I D S C.V.f.u.2.B.T.'.@X{.`.{.&X_.~.,X&XQ. XT.T._._._.U.a.B.'.].`.`.`._.T.T.Z.>.t.f.A.f.I H D ^ n v v 5 , =   ",
"  : > 3 v D D D J ] U D j.V.M.a.2.u.W.T.].{.].|._.Y.~.$X&XQ.)._.'._.T._.Y.a.a.I.`.`.`.T.T.T.R.4.1.u.a.A.=.I H I ^ D v v z , =   ",
"  : > 3 0 v v b G I n 0 f B.a.u.1.>.Y.U.`.].{.].oX{.0X,X$XQ.(.[.V.N.I.!.!.C.i.M._.!.T.Y.T.T.S.;.<.u.a.B.f D v ` H D v v z , -   ",
"  : < 9 v b D I / | n D X.V.n.u.t.;.R.U.!.`.{.].'.'.9X:X$X[.!.I.C.C.M.B.V.M.a.M.T.T.Y.T.!.I.C.>.1.d.n.B.X.D v ^ m D S v x , -   ",
"  : > 3 v D I I G N v D L B.n.u.t.>.a.I.Y.T.}.].}.-X8X@X{.T.J.a.<.u.a.M.V.B.a.a.R._.T.T.W.B.u.>.t.u.B.N.U b v H n H G v z , *   ",
"  : > 3 0 v v v S N i H S f.N.a.u.t.,.V.I.V.T.'.I.wX,XoX).D.f.Z.R.S.a.u.a.C.a.s.i.T.T.U.V.M.u.<.u.u.V.s.F v D D v H D v z , *   ",
"  : 2 5 v D b D ' i ' F ^ h J.n.u.p.>.1.Z.S.V.K.aXpX#X(.V.R.Y.U._.Y.U.R.u.a.a.p.M.K.N.N.B.u.>.u.t.m.G.d J b ` S b H H v 4 : -   ",
"  : 3 9 v D D I H D ` H D a j.V.4.p.>.<.B.V.B.B.tX;XU.F.W.Q.!.(.Y.T._.[.K.B.a.u.B.n.V.I.f.2.2.u.a.I.6.w S n V F m H H n 5 , =   ",
"  = > 3 0 D b H D D ^ ^ D b f J.S.,.u.1.1.B.A.E.-XK.n.Z.I.Y.Y.W.E.E.U.Y.Y.I.M.M.n.s.C.f.u.1.u.t.M.x.f V P ' m p m D D v 4 , -   ",
"  = > 3 v H D H b m m ^ F b a r.M.H.i.u.>.<.f.p.P.f.V.N.V.V.V.S.V.V.V.V.D.V.V.N.M.M.p.2.1.u.u.a.I.q.I ^ q H H n D D G v 4 : -   ",
"  = > 3 v I D D i n v H S S c h g.A.i.1.d.<.$.G.C.S.I.N.M.S.M.V.V.M.V.N.N.M.N.N.V.f.1.1.1.4.i.V.k.X.S D c G G m H H D v 5 , -   ",
"  * = < 0 D v v i V D F v L n V y h.M.i.i.3.5.>.u.M.B.V.K.I.M.V.V.B.V.V.V.V.S.M.d.<.t.u.5.d.B.f.g b F H C G x v D D D v 5 ; -   ",
"  = > 3 0 D b D D ^ D L H I H H V u h.M.u.k.k.1.>.t.p.M.V.M.V.S.B.V.V.M.S.C.a.1.:.>.t.u.u.M.h.*.m ^ H D ^ G v D v v n v 4 ; *   ",
"  = > 1 9 b v H D D v D ` Z b p r 9 -.M.f.p.u.u.u.<.2.$.2.>.N.B.M.S.C.>.>.$.>.1.u.u.y.u.M.f.8.w S ( C I D n p M v v n v 4 ; *   ",
"  = > 5 v D D D v b D D D D D b P ` V t b.f.i.e.u.1.k.t.<.<.%.<.>.>.>.<.1.1.t.u.u.4.n.M.j.g v r H D D G v v G D D v v v 5 , *   ",
"  = > 3 9 v b D b v v b b b v v m m ] m g =.P.a.p.t.4.u.i.i.4.1.y.t.t.t.u.u.u.u.k.f.g.=.o.q b C D G n v v v D H v v v 5 4 : *   ",
"  = > 3 5 0 v v D v v D D D D D D z D Y q w k v.m.N.a.p.t.t.u.u.u.u.u.u.u.a.a.a.z.=.k b M 0 i v H D G D D v G H D v v z 4 : *   ",
"  = > 3 0 v v 0 b 0 0 v D v v b 0 P 0 6 i I M w k v.h.B.M.M.M.i.t.p.f.C.C.C.f.a.f e m 0 p S D L H D D H H n n H H D D x 4 : *   ",
"  = : 3 v b v 5 D v v b b 0 0 v c i I C v 7 0 c w s s a h *.h.B.D.Z.k.*.d s I ~ H n U S v n n v D v v v n v G H D S D x 1 ; &   ",
"  * = 1 9 v v 0 b b D D D v v b b C m 3 v D D 7 M v q T | m S S D I I b v 0 v v p n C M c v H ) H G v v v v G H v v G x 2 ; *   ",
"  = = 1 9 v v 0 9 0 v b b v v v v H q w m v 0 m i S G S x 9 9 q K G G S S H U U n ^ m D q 9 v D H H D n v v v v v v D v 4 : *   ",
"  = > 3 9 0 v v v v b D D D b 0 9 p v M v v b D H ( [ v 0 H V H D b v b m m m m b i 8 v ~ G S v v D H D D D v 5 v v D v 4 : *   ",
"  $ > < 3 0 b D v v v v b D b v v v v v b b b v D D D D D D b b D b v b b b b D m v v v D H H H H H D D v v v v v v v v 2 ; + . ",
"  % > > 3 0 b b b b v v b D b v v v b D D b b v v v v v v v v v v b b D v v b D H D m b m D D m v v v v v v v v v v v 6 2 : $   ",
"  % : > 3 0 v v b v v 0 v v v v v v b D b b v v b b b D D D b v v v b D b v b D m m b b b b b b v v v v v v v v v v v z 4 , &   ",
"  % > > 3 0 v 9 v v 0 9 0 0 0 9 v v v v v v v v v v v b v v 0 0 b v v v b b v v v v v v v v b D v v v v v v v v 9 v v v 1 , &   ",
"  $ > > 3 9 0 5 9 9 5 5 5 5 5 3 0 0 9 9 9 0 0 v v 0 0 0 0 9 5 5 v 0 0 0 0 v 0 0 0 v v v 0 0 0 v v v v v v v 9 9 4 6 x 5 1 , &   ",
"  + * = > : > > > > > > > > > : > > > > > > > > 2 < < < < < < < < < 2 < : > < < < < < < < < < < < < < < < < > > < < : < , : & . ",
"  # X X o X o @ o o o o o o o X o o o o @ o o o @ o o o o @ @ o o + + @ X X @ @ o o o o o @ @ + o o o o o o o o + o X @ @ @ X   ",
"                                                                                                                      .         "
};
