/* XPM */
static char *rcp02421526296434[] = {
/* columns rows colors chars-per-pixel */
"64 64 5 1 ",
"  c #000A1A",
". c #001426",
"X c #002038",
"o c #002C4A",
"O c #00385C",
/* pixels */
" ..ooOooOOOOOOOOOOOOOOOooooooOOO ..ooOooOOOOOOOOOOOOOOOooooooOOO",
" .oooooooooooOOOOoooooooooooooOO .oooooooooooOOOOoooooooooooooOO",
" ..XooooooooooooooooXXXXXXXooooO ..XooooooooooooooooXXXXXXXooooO",
"   .XXooooooXXXXXXXXXXXXXXXXoooO   .XXooooooXXXXXXXXXXXXXXXXoooO",
"  ..XXXXXXXXXXXXXXXXXXXXXXXXoooO  ..XXXXXXXXXXXXXXXXXXXXXXXXoooO",
"  .XXXXXXXXXXXXXXXXXXXXXXXXXoooO  .XXXXXXXXXXXXXXXXXXXXXXXXXoooO",
" ..XXXXXXXXXXXXXXXXXXXXXXXXXXooo ..XXXXXXXXXXXXXXXXXXXXXXXXXXooo",
" .XXXXXXXXXXXXXXXXXXXXXXXXXXXXoo .XXXXXXXXXXXXXXXXXXXXXXXXXXXXoo",
" .XXXXXXXXXXXXXXXXXXXXXXXXXXXXoo .XXXXXXXXXXXXXXXXXXXXXXXXXXXXoo",
"  .XXXXXXXXXXXXXXXXXXXXXXXXXXooO  .XXXXXXXXXXXXXXXXXXXXXXXXXXooO",
"  .XXXXXXXXXXXXXXXXXXXXXXXXXXooO  .XXXXXXXXXXXXXXXXXXXXXXXXXXooO",
"  ...XXXXXXXXXXXXXXXXXXXXXXXXooO  ...XXXXXXXXXXXXXXXXXXXXXXXXooO",
"  .  .XXXX..XXXXXXXXXXXXXXXXXXoo  .  .XXXX..XXXXXXXXXXXXXXXXXXoo",
"      ........X......XXXXXX...oo      ........X......XXXXXX...oo",
"       ..    ..     ........  ..       ..    ..     ........  ..",
"                                                                ",
" ..ooOooOOOOOOOOOOOOOOOooooooOOO ..ooOooOOOOOOOOOOOOOOOooooooOOO",
" .oooooooooooOOOOoooooooooooooOO .oooooooooooOOOOoooooooooooooOO",
" ..XooooooooooooooooXXXXXXXooooO ..XooooooooooooooooXXXXXXXooooO",
"   .XXooooooXXXXXXXXXXXXXXXXoooO   .XXooooooXXXXXXXXXXXXXXXXoooO",
"  ..XXXXXXXXXXXXXXXXXXXXXXXXoooO  ..XXXXXXXXXXXXXXXXXXXXXXXXoooO",
"  .XXXXXXXXXXXXXXXXXXXXXXXXXoooO  .XXXXXXXXXXXXXXXXXXXXXXXXXoooO",
" ..XXXXXXXXXXXXXXXXXXXXXXXXXXooo ..XXXXXXXXXXXXXXXXXXXXXXXXXXooo",
" .XXXXXXXXXXXXXXXXXXXXXXXXXXXXoo .XXXXXXXXXXXXXXXXXXXXXXXXXXXXoo",
" .XXXXXXXXXXXXXXXXXXXXXXXXXXXXoo .XXXXXXXXXXXXXXXXXXXXXXXXXXXXoo",
"  .XXXXXXXXXXXXXXXXXXXXXXXXXXooO  .XXXXXXXXXXXXXXXXXXXXXXXXXXooO",
"  .XXXXXXXXXXXXXXXXXXXXXXXXXXooO  .XXXXXXXXXXXXXXXXXXXXXXXXXXooO",
"  ...XXXXXXXXXXXXXXXXXXXXXXXXooO  ...XXXXXXXXXXXXXXXXXXXXXXXXooO",
"  .  .XXXX..XXXXXXXXXXXXXXXXXXoo  .  .XXXX..XXXXXXXXXXXXXXXXXXoo",
"      ........X......XXXXXX...oo      ........X......XXXXXX...oo",
"       ..    ..     ........  ..       ..    ..     ........  ..",
"                                                                ",
" ..ooOooOOOOOOOOOOOOOOOooooooOOO ..ooOooOOOOOOOOOOOOOOOooooooOOO",
" .oooooooooooOOOOoooooooooooooOO .oooooooooooOOOOoooooooooooooOO",
" ..XooooooooooooooooXXXXXXXooooO ..XooooooooooooooooXXXXXXXooooO",
"   .XXooooooXXXXXXXXXXXXXXXXoooO   .XXooooooXXXXXXXXXXXXXXXXoooO",
"  ..XXXXXXXXXXXXXXXXXXXXXXXXoooO  ..XXXXXXXXXXXXXXXXXXXXXXXXoooO",
"  .XXXXXXXXXXXXXXXXXXXXXXXXXoooO  .XXXXXXXXXXXXXXXXXXXXXXXXXoooO",
" ..XXXXXXXXXXXXXXXXXXXXXXXXXXooo ..XXXXXXXXXXXXXXXXXXXXXXXXXXooo",
" .XXXXXXXXXXXXXXXXXXXXXXXXXXXXoo .XXXXXXXXXXXXXXXXXXXXXXXXXXXXoo",
" .XXXXXXXXXXXXXXXXXXXXXXXXXXXXoo .XXXXXXXXXXXXXXXXXXXXXXXXXXXXoo",
"  .XXXXXXXXXXXXXXXXXXXXXXXXXXooO  .XXXXXXXXXXXXXXXXXXXXXXXXXXooO",
"  .XXXXXXXXXXXXXXXXXXXXXXXXXXooO  .XXXXXXXXXXXXXXXXXXXXXXXXXXooO",
"  ...XXXXXXXXXXXXXXXXXXXXXXXXooO  ...XXXXXXXXXXXXXXXXXXXXXXXXooO",
"  .  .XXXX..XXXXXXXXXXXXXXXXXXoo  .  .XXXX..XXXXXXXXXXXXXXXXXXoo",
"      ........X......XXXXXX...oo      ........X......XXXXXX...oo",
"       ..    ..     ........  ..       ..    ..     ........  ..",
"                                                                ",
" ..ooOooOOOOOOOOOOOOOOOooooooOOO ..ooOooOOOOOOOOOOOOOOOooooooOOO",
" .oooooooooooOOOOoooooooooooooOO .oooooooooooOOOOoooooooooooooOO",
" ..XooooooooooooooooXXXXXXXooooO ..XooooooooooooooooXXXXXXXooooO",
"   .XXooooooXXXXXXXXXXXXXXXXoooO   .XXooooooXXXXXXXXXXXXXXXXoooO",
"  ..XXXXXXXXXXXXXXXXXXXXXXXXoooO  ..XXXXXXXXXXXXXXXXXXXXXXXXoooO",
"  .XXXXXXXXXXXXXXXXXXXXXXXXXoooO  .XXXXXXXXXXXXXXXXXXXXXXXXXoooO",
" ..XXXXXXXXXXXXXXXXXXXXXXXXXXooo ..XXXXXXXXXXXXXXXXXXXXXXXXXXooo",
" .XXXXXXXXXXXXXXXXXXXXXXXXXXXXoo .XXXXXXXXXXXXXXXXXXXXXXXXXXXXoo",
" .XXXXXXXXXXXXXXXXXXXXXXXXXXXXoo .XXXXXXXXXXXXXXXXXXXXXXXXXXXXoo",
"  .XXXXXXXXXXXXXXXXXXXXXXXXXXooO  .XXXXXXXXXXXXXXXXXXXXXXXXXXooO",
"  .XXXXXXXXXXXXXXXXXXXXXXXXXXooO  .XXXXXXXXXXXXXXXXXXXXXXXXXXooO",
"  ...XXXXXXXXXXXXXXXXXXXXXXXXooO  ...XXXXXXXXXXXXXXXXXXXXXXXXooO",
"  .  .XXXX..XXXXXXXXXXXXXXXXXXoo  .  .XXXX..XXXXXXXXXXXXXXXXXXoo",
"      ........X......XXXXXX...oo      ........X......XXXXXX...oo",
"       ..    ..     ........  ..       ..    ..     ........  ..",
"                                                                "
};
