/* XPM */
static char *rcp01583616887974[] = {
/* columns rows colors chars-per-pixel */
"64 64 79 1 ",
"  c #3C454C",
". c #515D66",
"X c #5C646B",
"o c #5E676E",
"O c #6C767E",
"+ c #6C777E",
"@ c #747C82",
"# c #7E888F",
"$ c #838B91",
"% c #8C969C",
"& c #8F969C",
"* c #949DA3",
"= c #9EA5AC",
"- c #9FA7AE",
"; c #A2AAB0",
": c #A4ACB2",
"> c #A5ADB2",
", c #A5ADB3",
"< c #A6ADB3",
"1 c #A5ADB4",
"2 c #A5AEB4",
"3 c #A6AEB4",
"4 c #A7AEB4",
"5 c #A7AFB4",
"6 c #A7AFB5",
"7 c #A8AFB5",
"8 c #A8B0B6",
"9 c #A9B0B6",
"0 c #A9B1B7",
"q c #AAB1B7",
"w c #AAB2B7",
"e c #AAB2B8",
"r c #ABB2B8",
"t c #ABB3B8",
"y c #ABB3B9",
"u c #ACB3B9",
"i c #ACB4B9",
"p c #ACB4BA",
"a c #ADB4BA",
"s c #ADB5BA",
"d c #ADB5BB",
"f c #AEB5BB",
"g c #AEB6BB",
"h c #AFB6BB",
"j c #AEB6BC",
"k c #AFB6BC",
"l c #AFB7BC",
"z c #B0B7BC",
"x c #B0B7BD",
"c c #B1B7BD",
"v c #B1B8BD",
"b c #B2B9BE",
"n c #B2B9BF",
"m c #B3BABF",
"M c #B3BAC0",
"N c #B4BAC0",
"B c #B4BBC0",
"V c #B4BBC1",
"C c #B5BCC1",
"Z c #B5BCC2",
"A c #B6BCC2",
"S c #B7BDC2",
"D c #B7BDC3",
"F c #B7BEC3",
"G c #B8BEC4",
"H c #B8BFC4",
"J c #B9BFC4",
"K c #B9BFC5",
"L c #B9C0C5",
"P c #BBC1C6",
"I c #BCC2C7",
"U c #BDC3C8",
"Y c #BEC4C9",
"T c #BEC4CA",
"R c #BEC5CA",
"E c #BFC5CA",
"W c #C0C6CB",
"Q c #C0C6CC",
"! c #C1C7CC",
/* pixels */
"  XI!!I8::6L!!!!!!Wf:::m!!!V:::f!!!!!!!!!!!E8:::K!!Wf:::V!!!$   ",
"  XI!!I8::6L!!!!!!Wf:::m!!!V:::f!!!!!!!!!!!E8:::K!!Wf:::V!!!$   ",
"oo@CKKC6::6VKKKKKKKu:::jKKKc:::rKKKKKKKKKKKC8:::MKKKr:::jKKK%ooo",
"ccf6666::::66666666:::::666:::::666666666666::::6666:::::666rccc",
"!!L:::::::::::::::::::::::::::::::::::::::::::::::::::::::::m!!!",
"!!L:::::::::::::::::::::::::::::::::::::::::::::::::::::::::m!!!",
"EEK:::::::::::::::::::::::::::::::::::::::::::::::::::::::::cEEE",
"ffr:::::::::::::::::::::::::::::::::::::::::::::::::::::::::7fff",
"::::::::::::::::::::::::::::::::::::::::::::::::::::::::::::::::",
"::::::::::::::::::::::::::::::::::::::::::::::::::::::::::::::::",
"::::::::::::::::::::::::::::::::::::::::::::::::::::::::::::::::",
"ffu:::::::::::::::::::::::::::::::::::::::::::::::::::::::::8fff",
"!!L:::::::::::::::::::::::::::::::::::::::::::::::::::::::::m!!!",
"!!L:::::::::::::::::::::::::::::::::::::::::::::::::::::::::m!!!",
"!!L:::::::::::::::::::::::::::::::::::::::::::::::::::::::::m!!!",
"!!L:::::::::::::::::::::::::::::::::::::::::::::::::::::::::cEEE",
"!!L:::::::::::::::::::::::::::::::::::::::::::::::::::::::::6888",
"!!L:::::::::::::::::::::::::::::::::::::::::::::::::::::::::::::",
"!!L:::::::::::::::::::::::::::::::::::::::::::::::::::::::::::::",
"!!L:::::::::::::::::::::::::::::::::::::::::::::::::::::::::::::",
"mmj:::::::::::::::::::::::::::::::::::::::::::::::::::::::::8mmm",
"::::::::::::::::::::::::::::::::::::::::::::::::::::::::::::mWWW",
"::::::::::::::::::::::::::::::::::::::::::::::::::::::::::::m!!!",
"::::::::::::::::::::::::::::::::::::::::::::::::::::::::::::m!!!",
"888:::::::::::::::::::::::::::::::::::::::::::::::::::::::::m!!!",
"UUC:::::::::::::::::::::::::::::::::::::::::::::::::::::::::m!!!",
"!!L:::::::::::::::::::::::::::::::::::::::::::::::::::::::::m!!!",
"!!L:::::::::::::::::::::::::::::::::::::::::::::::::::::::::m!!!",
"WWK:::::::::::::::::::::::::::::::::::::::::::::::::::::::::m!!!",
"jjf:::::::::::::::::::::::::::::::::::::::::::::::::::::::::m!!!",
"::::::::::::::::::::::::::::::::::::::::::::::::::::::::::::m!!!",
"::::::::::::::::::::::::::::::::::::::::::::::::::::::::::::m!!!",
"::::::::::::::::::::::::::::::::::::::::::::::::::::::::::::m!!!",
"ffr:::::::::::::::::::::::::::::::::::::::::::::::::::::::::fCCC",
"EEK::::::::::::::::::::::::::::::::::::::::::::::::::::::::::666",
"!!L:::::::::::::::::::::::::::::::::::::::::::::::::::::::::::::",
"!!L:::::::::::::::::::::::::::::::::::::::::::::::::::::::::::::",
"!!L::::::::::::::::::::::::::::::::::::::::::::::::::::::::::666",
"!!L:::::::::::::::::::::::::::::::::::::::::::::::::::::::::fKKK",
"!!L:::::::::::::::::::::::::::::::::::::::::::::::::::::::::m!!!",
"!!L:::::::::::::::::::::::::::::::::::::::::::::::::::::::::m!!!",
"!!L:::::::::::::::::::::::::::::::::::::::::::::::::::::::::m!!!",
"!!L:::::::::::::::::::::::::::::::::::::::::::::::::::::::::rMMM",
"!!L:::::::::::::::::::::::::::::::::::::::::::::::::::::::::::::",
"!!L:::::::::::::::::::::::::::::::::::::::::::::::::::::::::::::",
"!!L:::::::::::::::::::::::::::::::::::::::::::::::::::::::::::::",
"IIC::::::::::::::::::::::::::::::::::::::::::::::::::::::::::777",
"886:::::::::::::::::::::::::::::::::::::::::::::::::::::::::jIII",
"::::::::::::::::::::::::::::::::::::::::::::::::::::::::::::m!!!",
"::::::::::::::::::::::::::::::::::::::::::::::::::::::::::::m!!!",
"::::::::::::::::::::::::::::::::::::::::::::::::::::::::::::m!!!",
"VVj:::::::::::::::::::::::::::::::::::::::::::::::::::::::::m!!!",
"!!L:::::::::::::::::::::::::::::::::::::::::::::::::::::::::m!!!",
"!!L:::::::::::::::::::::::::::::::::::::::::::::::::::::::::m!!!",
"!!L:::::::::::::::::::::::::::::::::::::::::::::::::::::::::m!!!",
"KKM:::::::::::::::::::::::::::::::::::::::::::::::::::::::::fKKK",
"66:::::::::::::::::::::::::::::::::::::::::::::::::::::::::::666",
"::::::::::::::::::::::::::::::::::::::::::::::::::::::::::::::::",
"::::::::::::::::::::::::::::::::::::::::::::::::::::::::::::::::",
"---666::::::666:::::66666666666:::::666::::::6666666:::::666;---",
"++#VCCV6::6mCCC8:::jCCCCCCCCCCCc:::8CCCM::::mCCCCCCCr:::fCCC*+++",
"..+U!!I8::6L!!Wu:::C!!!!!!!!!!!C:::rE!!L6::6L!!!!!!Wf:::V!!!%...",
"..+U!!I8::6L!!Wu:::C!!!!!!!!!!!C:::rE!!L6::6L!!!!!!Wf:::V!!!%...",
"..+U!!I8::6L!!Wu:::C!!!!!!!!!!!C:::rE!!L6::6L!!!!!!Wf:::V!!!%..."
};
