/* XPM */
static char *rcp08060758293323[] = {
/* columns rows colors chars-per-pixel */
"64 64 215 2 ",
"   c #000102",
".  c #01060B",
"X  c #0A0B0E",
"o  c #1B0E0F",
"O  c #030D12",
"+  c #0C0D10",
"@  c #140E13",
"#  c #0D1113",
"$  c #05181C",
"%  c #131315",
"&  c #1C1313",
"*  c #14191B",
"=  c #1B1C1D",
"-  c #191618",
";  c #221413",
":  c #221519",
">  c #241C1C",
",  c #2B1B19",
"<  c #281817",
"1  c #331E1A",
"2  c #1C211F",
"3  c #23201E",
"4  c #2C201E",
"5  c #34211B",
"6  c #1D1F20",
"7  c #151E21",
"8  c #071B20",
"9  c #231E21",
"0  c #2A1E21",
"q  c #1C2122",
"w  c #1C2528",
"e  c #132F30",
"r  c #15312F",
"t  c #232323",
"y  c #292525",
"u  c #2D2728",
"i  c #252929",
"p  c #2C2A2A",
"a  c #262827",
"s  c #332D2C",
"d  c #3A2E2E",
"f  c #372724",
"g  c #2C302D",
"h  c #35302E",
"j  c #3B302D",
"k  c #352E31",
"l  c #273939",
"z  c #363230",
"x  c #3C3433",
"c  c #3C3936",
"v  c #3D3C39",
"b  c #35373C",
"n  c #49251A",
"m  c #5A2D1E",
"M  c #5F301E",
"N  c #602E1E",
"B  c #4B1C2B",
"V  c #471B29",
"C  c #541E2B",
"Z  c #412D27",
"A  c #54212A",
"S  c #5B252B",
"D  c #5D2631",
"F  c #5B2A34",
"G  c #423636",
"H  c #423937",
"J  c #453B39",
"K  c #4B3D3C",
"L  c #483332",
"P  c #533937",
"I  c #55372D",
"U  c #672A2D",
"Y  c #6A3126",
"T  c #643626",
"R  c #7A3A24",
"E  c #773728",
"W  c #782B30",
"Q  c #6E313A",
"!  c #7B3239",
"~  c #753238",
"^  c #6B2F3A",
"/  c #36403F",
"(  c #46413C",
")  c #4C423E",
"_  c #52423E",
"`  c #363E40",
"'  c #3B3D42",
"]  c #433E49",
"[  c #294544",
"{  c #354342",
"}  c #3C4242",
"|  c #324A48",
" . c #335351",
".. c #434545",
"X. c #4C4641",
"o. c #444648",
"O. c #464949",
"+. c #4D4E4E",
"@. c #484747",
"#. c #544442",
"$. c #5A4644",
"%. c #554A44",
"&. c #5B4A46",
"*. c #524F4B",
"=. c #5F4C49",
"-. c #58534C",
";. c #4E5151",
":. c #515252",
">. c #4E504F",
",. c #624A45",
"<. c #624E4A",
"1. c #644945",
"2. c #65514C",
"3. c #6B544E",
"4. c #6B5651",
"5. c #6E5953",
"6. c #635A54",
"7. c #735B54",
"8. c #755F58",
"9. c #7B5F59",
"0. c #775B54",
"q. c #6C6359",
"w. c #756357",
"e. c #7D615A",
"r. c #7A695C",
"t. c #7B6C62",
"y. c #746A60",
"u. c #757676",
"i. c #79797A",
"p. c #696461",
"a. c #843D26",
"s. c #8B3D2A",
"d. c #913E2C",
"f. c #843D32",
"g. c #863736",
"h. c #903E30",
"j. c #8D412B",
"k. c #88412A",
"l. c #94432B",
"z. c #9D442D",
"x. c #95452B",
"c. c #964734",
"v. c #A2452D",
"b. c #A94C34",
"n. c #AD5134",
"m. c #83645C",
"M. c #88665F",
"N. c #846660",
"B. c #846B61",
"V. c #8B6A62",
"C. c #867164",
"Z. c #8A7669",
"A. c #937C6C",
"S. c #987B6B",
"D. c #90736B",
"F. c #928678",
"G. c #9A8777",
"H. c #958273",
"J. c #A18674",
"K. c #A68A77",
"L. c #A58B79",
"P. c #AA8D7B",
"I. c #A98975",
"U. c #AB917E",
"Y. c #B1927F",
"T. c #539A95",
"R. c #748785",
"E. c #5BA39D",
"W. c #52AFA9",
"Q. c #4DACA6",
"!. c #60A6A0",
"~. c #66CAC3",
"^. c #93908C",
"/. c #A89988",
"(. c #B59683",
"). c #BC9D89",
"_. c #B79B87",
"`. c #B8A18E",
"'. c #B4A593",
"]. c #BAA996",
"[. c #BAA996",
"{. c #AFA08E",
"}. c #9FA0A2",
"|. c #A9AAAA",
" X c #A4A6A6",
".X c gray69",
"XX c #C09F8C",
"oX c #C3A28C",
"OX c #C1AD9A",
"+X c #C8A992",
"@X c #C7B19C",
"#X c #D5B49D",
"$X c #D0AB93",
"%X c #C6B6A7",
"&X c #D1BBA5",
"*X c #E3BEA5",
"=X c #E6CBB2",
"-X c #EED4BA",
";X c #EFD1B7",
":X c #83E3DA",
">X c #A3FCF3",
",X c #CBCCCC",
"<X c #C4C5C6",
"1X c #D2D2D2",
"2X c #DCDCDC",
"3X c #D7D9D9",
"4X c #CFD0D0",
"5X c #F5DDC2",
"6X c #FFE9CD",
"7X c #FFEED2",
"8X c #FFF5D7",
"9X c #EBEDED",
"0X c #E2E2E2",
"qX c #F5F5F5",
"wX c #FEFEFE",
/* pixels */
"9XwXwX0X' h C.$XoX3.X t '.7X5X5X6XOX( . O t t t = * - - * = t t = * - - * = t t = - = + . J '.8X8X'.J a w.P.J.I.).Z.z ' 0XwXwX9X",
"wXwX2X|.+.&.Z.oX$XG.-.-.F.[.{.'.[.F.X.a s s t t s h s s h s t t s h s s h s t t s j x u y X.F.%X%XZ.p p A.#X+X)._.A.%.*..X0XwXwX",
"wX9Xi.:.t.G.J.Y.#X=X&XG.-.c J X.( @.&.3.5._ a a _ 3.2.2.3._ a a _ 3.2.2.3._ a a _ 3.3.<.2.<.%.%.*.h # c /.-X-X@XY.S.A.t.p.^.qXwX",
",X X@.q.K.+X+X_./.[.&X/.J + - = - s 2.V.V.<.p p <.M.e.e.M.<.p p <.M.e.e.M.<.p p <.M.e.m.V.<.= . % > y %.G.[.'./._.$X#XL.( w }.,X",
"b *.r.(.I.).=XOX6.g c %.=.,.,.$.$.&.<.2.4.#.p p #.4.2.2.4.#.p p #.4.2.2.4.#.s s #.4.<.2.5.K * % G 3.5.<.X.z p 6.[.;X*XS.x O g O.",
"c ) w.L.(.+XOXF.J + + s <.e.m.m.M.5.J s x z t t s x x x x s t t s x x x x h t t s x x x x x z ) 5.V.V.2.d % + J G.[.L.7.) h x ( ",
"L.w.s %.OX&Xq.z K 2.1._ x x $.4.4._ s t a p t t p p p p p p t t p p p p p p t t p p p t t x <.9.4.=.=.<.&.,.,.&.X.v z ( 7.Z.A.Z.",
"$XG.%.*./.G.h % #.D.D.2.a - p J G s ..+.+.+.:.:.+.+.;.+.+.+.:.:.+.>.;.+.+.+.:.:.+.+.+.@.O.*.<.5.K p p J 5.V.V.3.f . . c U.#X+XY.",
"I._.]./.q.c p x K <.<._ u = t p s c  X,X,X,X,X1X,X,X4X4X4X1X1X1X,X,X,X4X4X1X1X1X,X,X,X,X,X|.X.c s t t s _ 3.<.#.J 9 + ( OX=XoXS.",
"K.`.&X^.p . j =.K x x s t p @.;.:.i.9XwXwXwXwXwXwXwXwXwXwXwXwXwXwXwXwXwXwXwXwXwXwXwXwXwXwX9Xu.+.+.:.>...s x x x K s = c F.OX]._.",
"&X{.t.h # = G &.#.G g 2 - v |.,X1X3XwXwXwXwXwXwXwXwXwXwXwXwXwXwXwXwXwXwXwXwXwXwXwXwXwXwXwXwX3X,X,X1X1X Xc p p p a 6 = = p y.OX-X",
"6X'.c   t J x x G G d > % ..2XwXwXwXwXqXqXqXqXqXqXqXqXqXqXqXqXqXqXqXqXqXqXqXqXqXqXqXqXqXqXwXwXwXwXwXwX9Xi...p p s x G 9 . h F.%X",
"7X[.v + _ 3.s * q d F V : } 3XwXwXwXwXwXwXwXwXwXwXwXwXwXwXwXwXwXwXwXwXwXwXwXwXwXwXwXwXwXwXwXwXwXwXwXwXwX2X|...c &.e.9._ = = c *.",
"OXF.( s <.0.K t * f ~ U , { <XqXqXqXqXwXwXwXwXwXwXwXwXwXwXwXwXwXwXwXwXwXwXwXwXwXwXwXwXwXwXwXqXqXqXqXqXwXwX2X..x =.N.m.3.H t % + ",
"@.( H G K <.7.%.i f f.E 1 ` ,XwXwXqXwXwXwXwXwXwXwXwXwXwXwXwXwXwXwXwXwXwXwXwXwXwXwXwXwXwXwXwXwXwXwXqXqXwXwX3X..p s K #.#.K s = % ",
"X = x K x K 5.&.w 5 k.a.5 ` ,XwXwXqXwXwXwXwXwXwXwXwXwXwXwXwXwXwXwXwXwXwXwXwXwXwXwXwXwXwXwXwXwXwXwXwXqXwXqX3Xi...t a x K #.J s t ",
"# = x ) J G G t O , a.a.5 ` ,XwXwXqXwXwXwXwXwXwXwXwXwXwXwXwXwXwXwXwXwXwXwXwXwXwXwXwXwXwXwXwXwXwXwXwXwXwXqXqX3X|...p G $.$.J p t ",
"p h G #.#.G t % % n l.a.5 ` ,XwXwXqXwXwXwXwXwXwXwXwXwXwXwXwXwXwXwXwXwXwXwXwXwXwXwXwXwXwXwXwXwXwXwXwXwXwXqXwXwX2X@.s x ) H s t = ",
"J J K #.#.x t 4 m j.b.R , ` ,XwXwXqXwXwXwXwXwXwXwXwXwXwXwXwXwXwXwXwXwXwXwXwXwXwXwXwXwXwXwXwXwXwXwXwXwXwXqXwXwX3X..p p s t = = * ",
"x x x x J z 7 5 R n.b.Y , { ,XwXwXqXwXwXwXwXwXwXwXwXwXwXwXwXwXwXwXwXwXwXwXwXwXwXwXwXwXwXwXwXwXwXwXwXwXwXqXwXqX3Xi.O.p p s h h h ",
"t t 6 t u 6 O ; R b.g.A : { ,XwXwXqXwXwXwXwXwXwXwXwXwXwXwXwXwXwXwXwXwXwXwXwXwXwXwXwXwXwXwXwXwXwXwXwXwXwXwXwXqXqX3X|.} s &.7.5.3.",
"s s h s t = ; n R h.! V - } ,XwXwXqXwXwXwXwXwXwXwXwXwXwXwXwXwXwXwXwXwXwXwXwXwXwXwXwXwXwXwXwXwXwXwXwXwXwXwXwXqXwXwX2X;.x 3.N.9.7.",
"2.3.7.%.p y T d.j.f.~ B : } ,XwXwXqXwXwXwXwXwXwXwXwXwXwXwXwXwXwXwXwXwXwXwXwXwXwXwXwXwXwXwXwXwXwXwXwXwXwXwXwXqXwXwX3X;.s ) <.&.#.",
"0.9.9.#.t , Y z.z.h.! B : } ,XwXwXqXwXwXwXwXwXwXwXwXwXwXwXwXwXwXwXwXwXwXwXwXwXwXwXwXwXwXwXwXwXwXwXwXwXwXwXwXqXwXqX,X+.p x K J G ",
"#.#.J u & & f T j.z.g.B : } ,XwXwXqXwXwXwXwXwXwXwXwXwXwXwXwXwXwXwXwXwXwXwXwXwXwXwXwXwXwXwXwXwXwXwXwXwXwXwXwXqXwXwX,X+.p x K J G ",
"K d = q { l $ & M f.! B : { ,XwXwXqXwXwXwXwXwXwXwXwXwXwXwXwXwXwXwXwXwXwXwXwXwXwXwXwXwXwXwXwXwXwXwXwXwXwXwXwXqXwXwX,X+.p J $.#.K ",
"$.d & [ E.T.e   & P Q C < { ,XwXwXqXwXwXwXwXwXwXwXwXwXwXwXwXwXwXwXwXwXwXwXwXwXwXwXwXwXwXwXwXwXwXwXwXwXwXwXwXqXwXwX,X+.p J &.#.K ",
"J f ;  .~.:XR.J q t F S < { ,XwXwXqXwXwXwXwXwXwXwXwXwXwXwXwXwXwXwXwXwXwXwXwXwXwXwXwXwXwXwXwXwXwXwXwXwXwXwXwXqXwXwX,X>.p x J x x ",
"t - & [ W.>X9X%X..@ C D < { ,XwXwXqXwXwXwXwXwXwXwXwXwXwXwXwXwXwXwXwXwXwXwXwXwXwXwXwXwXwXwXwXwXwXwXwXwXwXwXwXqXwXwX1X:.t t t t t ",
"c y ; [ W.>X9X%X@.< U U , { ,XwXwXqXwXwXwXwXwXwXwXwXwXwXwXwXwXwXwXwXwXwXwXwXwXwXwXwXwXwXwXwXwXwXwXwXwXwXwXwXqXwXwX,X+.p s x h s ",
"8.P <  .~.:XR.J t Z f.E 1 ` ,XwXwXqXwXwXwXwXwXwXwXwXwXwXwXwXwXwXwXwXwXwXwXwXwXwXwXwXwXwXwXwXwXwXwXwXwXwXwXwXqXwXwX,X+.s &.0.5.2.",
"N.,., [ E.T.l   . j c.a.1 ` ,XwXwXqXwXwXwXwXwXwXwXwXwXwXwXwXwXwXwXwXwXwXwXwXwXwXwXwXwXwXwXwXwXwXwXwXwXwXwXwXqXwXwX,X@.z 2.N.e.7.",
"=.K y w [ { t X . 4 k.a.5 ` ,XwXwXqXwXwXwXwXwXwXwXwXwXwXwXwXwXwXwXwXwXwXwXwXwXwXwXwXwXwXwXwXwXwXwXwXwXwXwXwXqXwXwX,X+.s ) <.&.#.",
"J G z t & & 6 q - n j.R 1 ` ,XwXwXqXwXwXwXwXwXwXwXwXwXwXwXwXwXwXwXwXwXwXwXwXwXwXwXwXwXwXwXwXwXwXwXwXwXwXwXwXqXwXwX,X+.p x K J G ",
"J K K x > # O - m j.b.E , ` ,XwXwXqXwXwXwXwXwXwXwXwXwXwXwXwXwXwXwXwXwXwXwXwXwXwXwXwXwXwXwXwXwXwXwXwXwXwXwXwXqXwXwX4X+.p J $.) J ",
"x x G x p q - n a.n.n.E , ` ,XwXwXqXwXwXwXwXwXwXwXwXwXwXwXwXwXwXwXwXwXwXwXwXwXwXwXwXwXwXwXwXwXwXwXwXwXwXwXwXqXwXwX1X>.p x J x x ",
"t t t q q f T a.l.v.n.R , ` ,XwXwXqXwXwXwXwXwXwXwXwXwXwXwXwXwXwXwXwXwXwXwXwXwXwXwXwXwXwXwXwXwXwXwXwXwXwXwXwXqXwXwX1X:.t t t t t ",
"s s s i q f E z.d.j.c.Y , { ,XwXwXqXwXwXwXwXwXwXwXwXwXwXwXwXwXwXwXwXwXwXwXwXwXwXwXwXwXwXwXwXwXwXwXwXwXwXwXwXqXwXwX,X+.p s x h s ",
"2.3.3.#.p 0 S g.d.j.g.A < { ,XwXwXqXwXwXwXwXwXwXwXwXwXwXwXwXwXwXwXwXwXwXwXwXwXwXwXwXwXwXwXwXwXwXwXwXwXwXwXwXqXwXwX,X+.s &.0.5.2.",
"7.9.m.2.h 9 V W s.j.! V : } ,XwXwXqXwXwXwXwXwXwXwXwXwXwXwXwXwXwXwXwXwXwXwXwXwXwXwXwXwXwXwXwXwXwXwXwXwXwXwXwXqXwXwX,X@.z 2.N.e.7.",
"#.$.,.) g y B W s.s.! B : } ,XwXwXqXwXwXwXwXwXwXwXwXwXwXwXwXwXwXwXwXwXwXwXwXwXwXwXwXwXwXwXwXwXwXwXwXwXwXwXwXqXwXwX,X+.s ) <.&.#.",
"H H G p = : V U j.l.g.B : } ,XwXwXqXwXwXwXwXwXwXwXwXwXwXwXwXwXwXwXwXwXwXwXwXwXwXwXwXwXwXwXwXwXwXwXwXwXwXwXwXqXwXwX,X+.p x K J G ",
"K J s = & & 9 I k.z.g.B : } ,XwXwXqXwXwXwXwXwXwXwXwXwXwXwXwXwXwXwXwXwXwXwXwXwXwXwXwXwXwXwXwXwXwXwXwXwXwXwXwXqXwXwX,X+.p J $.) J ",
"G s 9 i { l 8 & M f.! B : { ,XwXwXqXwXwXwXwXwXwXwXwXwXwXwXwXwXwXwXwXwXwXwXwXwXwXwXwXwXwXwXwXwXwXwXwXwXwXwXwXqXwXwX,X+.p x J x x ",
"t = o | !.T.r   ; I Q C < { ,XwXwXqXwXwXwXwXwXwXwXwXwXwXwXwXwXwXwXwXwXwXwXwXwXwXwXwXwXwXwXwXwXwXwXwXwXwXwXwXqXwXwX1X:.t t t t t ",
"c 4 o  .~.:XR.J q t F S < { ,XwXwXqXwXwXwXwXwXwXwXwXwXwXwXwXwXwXwXwXwXwXwXwXwXwXwXwXwXwXwXwXwXwXwXwXwXwXwXwXqXwXwX,X+.p s x h s ",
"8.P , [ Q.>X9X%X@.& A D , { ,XwXwXqXwXwXwXwXwXwXwXwXwXwXwXwXwXwXwXwXwXwXwXwXwXwXwXwXwXwXwXwXwXwXwXwXwXwXwXwXqXwXwX,X+.s &.0.5.2.",
"N.,.1 [ Q.>X9X%X@.& A D , { ,XwXwXqXwXwXwXwXwXwXwXwXwXwXwXwXwXwXwXwXwXwXwXwXwXwXwXwXwXwXwXwXwXwXwXwXwXwXwXwXqXwXwX,X@.z 2.N.e.7.",
"2.L <  .~.:XR.J q y F S , { ,XwXwXqXwXwXwXwXwXwXwXwXwXwXwXwXwXwXwXwXwXwXwXwXwXwXwXwXwXwXwXwXwXwXwXwXwXwXwXwXqXwXwX,X+.s ) <.&.#.",
"K f & | E.T.e   ; I ^ C < { ,XwXwXqXwXwXwXwXwXwXwXwXwXwXwXwXwXwXwXwXwXwXwXwXwXwXwXwXwXwXwXwXwXwXwXwXwXwXwXwXqXwXwX,X+.p x K J G ",
"K x 9 i { l 8 & M f.! B : } ,XwXwXqXwXwXwXwXwXwXwXwXwXwXwXwXwXwXwXwXwXwXwXwXwXwXwXwXwXwXwXwXwXwXwXwXwXwXwXwXqXwXwX,X+.p J $.) J ",
"K J z > & & y I j.v.g.A : { ,XwXwXqXqXwXwXwXwXwXwXwXwXwXwXwXwXwXwXwXwXwXwXwXwXwXwXwXwXwXwXwXwXwXwXwXwXwXwXqXqXwXwX,X+.p x J x x ",
"K _ K z = , S k.x.z.c.Y , b <XqXqXqXqXqXqXqXqXqXqXqXqXqXqXqXqXqXqXqXqXqXqXqXqXqXqXqXqXqXqXqXqXqXqXqXqXqXqXqXqXqXqX,X+.t t t t t ",
"x x G z w j k.v.d.j.n.a.1 { 3XwXwXwXwXwXwXwXwXwXwXwXwXwXwXwXwXwXwXwXwXwXwXwXwXwXwXwXwXwXwXwXwXwXwXwXwXwXwXwXwXwXwX3X:.p s x h s ",
"t t t q q Z j.v.W g.n.j.5 } 2XwXwXwXwXwXwXwXwXwXwXwXwXwXwXwXwXwXwXwXwXwXwXwXwXwXwXwXwXwXwXwXwXwXwXwXwXwXwXwXwXwXwX0X:.s &.0.5.2.",
"s s h a 7 5 T E C B Y N < g }.,X,X<X4X1X,X,X,X,X,X,X,X,X1X1X,X,X,X,X,X,X,X,X,X,X,X,X,X,X,X,X,X,X,X,X,X,X,X,X<X,X,X X} z 2.M.e.7.",
"2.3.7.#.t = f f : - < < - * b } } o.:.:.O.} } ....} } O.:.:.O.} } ......} o.+.+.o.} } ....} } ..+.*.O.} } ..} } } b t s ) &.$.#.",
"0.9.9.3.J t * q z ( v c J ( ( ) ) c t t c ) ) ( ( ) ) c t t c ) ) ( ( ) ) G p p G ) ) ( ( ) X.H p p v ) ) ( J ) X.G t t d J G G ",
"#.#.#.<.7._ * i r.L.G.Z.A.S.A.J.P.w.3 3 w.P.J.A.A.J.P.w.3 3 w.P.J.A.A.G.K.r.v v r.L.G.A.A.J.P.t.b b t.P.J.A.A.J.P.B.h = s K J G ",
"J G x #.0.3.G J B.P.P.K.K.K.L.(.XXB.y y C.XX(.K.K.(.XXC.y y C.XX(.P.P.(.).Z.( ( Z.).(.P.P.Y.(.Z.] @.D.).(.P.P.(.(.C.G a x #.K K ",
"K K K K #.2.7.3.) ) 2.7.5.3.4.7.8.%.t t %.8.7.4.4.7.8.%.t t %.8.7.4.4.7.0.&.p p &.0.5.5.5.2.%.J J #.2.7.5.5.5.2.%.J G K K K K K ",
"x G G x s J 3.&.t # t s s s s s s p t t p s s s s s s p t t p s s s s s s u t t u s s s s t % = s G d u s s s t % = s J G x x x ",
"a a y t t p h s t = 6 t t t t t t t t t t t t t t t t t t t t t t t t t t t t t t t t t t 9 = = a a t t t t t 9 = = t p p a a a ",
"= = = q t = - - t a t t t t t t t t t t t t t t t t t t t t t t t t t t t t t t t t t t t t t t q = q t t t t t t t q = = = = = "
};
