/* XPM */
static char *rcp0940529661425[] = {
/* columns rows colors chars-per-pixel */
"64 64 45 1 ",
"  c #020202",
". c #130E0E",
"X c #171214",
"o c #191416",
"O c #1A1618",
"+ c #241D1E",
"@ c #241E22",
"# c #262125",
"$ c #2B2325",
"% c #2C262B",
"& c #2D282D",
"* c #30272B",
"= c #322A2D",
"- c #2C2730",
"; c #2E2932",
": c #342D32",
"> c #382F32",
", c #363135",
"< c #3A3235",
"1 c #363139",
"2 c #3B353C",
"3 c #3E393E",
"4 c #40363C",
"5 c #42393E",
"6 c #3D3740",
"7 c #3F3941",
"8 c #453D43",
"9 c #483F45",
"0 c #463F48",
"q c #483F48",
"w c #464046",
"e c #4A4047",
"r c #474149",
"t c #4C434B",
"y c #4F484F",
"u c #50474E",
"i c #51484F",
"p c #4F4750",
"a c #4F4851",
"s c #504750",
"d c #534A52",
"f c #584F57",
"g c #584F58",
"h c #575058",
"j c #585058",
/* pixels */
"                                                                ",
" #&,:,<,,,,,::,,1,::,11::,:,,::121:::::::::::::&:--::,:---::-#@ ",
" :3558538ww83588r8888833388835788873237773788872221262322:111-& ",
" :288wwwwwwwweewew88888ew8wretewt88wwrrer88880r07888788887761;& ",
" =<8tttteeyyyyyttyyteetteyyyaadysytyyydtyeteerry88rrr0r000071-& ",
" =<8ettidtdduiddudffdddaduupdddyydpyttdtyyyystedteyyyr8ttre82-& ",
" =<5ettdfydfdtidyydffddddyddffypyfdydadsfyeddyeddtdpyeeyate82-& ",
" =<5etudfdiddeuddydffdytyyfdddtyydusdddsdpyayyafptyytrepyre81-% ",
" =<8tidddffyytufutddfhdtyfdddddyttyssydydddyeyfdptaye8ryt0881-% ",
" <,2eyyuyddddutduuddffdutdddudddytdddyfddyeteddyptddpytddpt82-& ",
" :<2eddiydddyetudfddddytydddddffdtyyyddfdpyssyyyspyetytsppt82-& ",
" =<5etidtfdiiyyyddffdyttydddffdddttddfdddydddpyyteytttetyyt81-% ",
" =<5eyidtduidddtuytdiddsydddddsddydddfdddpyysstteeypppyeere02-& ",
" =<5eiddidddddfddutddfffdffduddddtdddfdddddydsytredpyyqqrtt02-& ",
" =<5eididddddudjdttdddffddfdddsdyyddddsstsdyysyyepdpyy80pte82;& ",
" =:5eidddddddyifdyidudfddyddddyyyuddudppddpeeyydpddppyrydr006;% ",
" =<5eydfdfyuiudfyfdyuyiddtuyuddduyyyufddpsdetyydddtypttyyee82-& ",
" =<5eidddfddiidutdytdyuuyddyudsysyyuydddytyetytedyeytypeeet81;& ",
" %=2eudidududfffdfdttyddifytdfyefddsuddddtyyydt8steyr8pte0882-% ",
" :<49yddffdydfddfdiuyytidseedduydsytyddddtyyusteddee0qydpt082-& ",
" :228tuidffdfduuddiutttuudyyussudddyyyyuddyysdytsdyytttyptt02;& ",
" :<5etitiuutdddfiddduttuuuuuyyyuddddsyeyyytyddtqyyddreddprt82:& ",
" *<5etytuuttuiyuydfdidydduudddddfgfdsdtydtysdsytptddtedytet82;% ",
" *<29yyeuuttyyeydddyifdyddudddddsddddsetptsdyttydttyppdttye82-% ",
" =<28idutuittuutddytyddetfdddsdfdysdddyydysdtq8tdpeydptptye81;& ",
" =<49tituudduidsyutyeysytddfyuddydydfgddfddstyp0ddeyytetepp01-& ",
" %=2eiutduddudittutttuusdidetuffddfdsdfffdysddfytypyeqtttdy81-& ",
" *=28tetitttufdttdtydduussyetyffsdfdyesfydpssydypydpe89trqe06:& ",
" *<489eitettuuduudduyyteest99tdfddyyutssyuyyytyddydpe88tte083-% ",
" =<589ttuiiuiuddddiuttttydyye9tdy99yyetydyeysytydedpe8eeet882-% ",
" %:25te9iddiuttddytttyetysdsyytyyttdstudsttye8eue8yddyyayt882-% ",
" $:45et9tudduettutetudyysuuduyuyistdytsddytteetyteyteepseyr82;% ",
" %:459eeetiduyttdtetuudddyuytystysusyyddytdsteyyypye89tytt081-% ",
" *:<8tetettuuittuttuttudeetyyysdduystudysusyttteeyteeeyyy0881-% ",
" $=28teuyteettyttdyteeeytyutyusdytystssdsdstteyypt8eettyp8q82:$ ",
" *=48eteudy95eysidduye9tydfddssyyyudyyssusteyyuddy9eyseyp0882;$ ",
" =:25ee8tt88etteteetdyteeudduyyyyytueet8tdsyyt9ydy88yy8ee8086;% ",
" $:<59eiiy9et89t8999yuteuuudtyysddqtsyytydpypteste89e08teye86-# ",
" %=<ettueeetteeettyyyttyyyyyudyudsttyydsysyyyeeteytty88e8tt82-# ",
" *=<5888eetttut8etetteee99t9ydyttsdytddsqq9ydy8eystyteqe8et02-$ ",
" $=28etettutett9e9eeeetde8yteyttq9uetdde88eyytetteeeetee8ty02-$ ",
" %=49eetttuuutte989ee9tueeudyyte9tutyyye89eeyyteeteeeeeteyy82-$ ",
" $=<599tttttt9ett9ee9tteuuyuuyytttyeeyssye99tt89ettetye80ee81-# ",
" $:<eteu9euitett89889ttyuutetttyeeydyttysyeyytese9eytytete881-$ ",
" $*<8u9te89ut99ttttee98etueetteyytttttetyteettyseee880e8eyt71&# ",
" $*<8988t98ee9eeeeette999t8eeeyttye8tsteeyytte8ettyyee80ete82&# ",
" $=>59eteetuuutt9559teettyeeeeyeee8esdde8eett88eyyepy0ee08881&@ ",
" $*<498tte9ette5888ettetyteee8etee9etttye988eee8etqte88880e81&# ",
" $=289ee89e9ete9ytetee89eteet9ee88988eeyte88tt88eye988eteq871-# ",
" $=>59eee889e998eett9989etddyetyt8tt99tyyeeee98eee8e88et08832-@ ",
" $=:<588e58ett989eee998tyttuteee88ee9eteyeqe8889yeee88eer8881&@ ",
" $=<585898858e9999988e88ee889t999888889eyee98eeeyeetteqeter81&@ ",
" #*<8e559899e8898ee8855589etee9etee888eeeet888etq88ee00etee7:&@ ",
" #*<4e5499tt85598t958995589eee9eyyt8898eee8888eptt8888qt88861&# ",
" $$<<4885559e9888e9588899eye885etteeetys8eee888eyye8ee8880e81&# ",
" #%>2595589t9e955588899eytt88eeet99e9ey9e9888eq88teee08889e71&@ ",
" @$:<5998888et8858889e98teeeee98ee8889eee888eetyytee88888e83:&@ ",
" #$>289e989889e989ee989985888e88988ee88tye9eee8988888e888883:&@ ",
" @*:<48595888585499ee88988eeee888988988e98898ee98588888e88881&@ ",
" @*=<5858555558588888989888988858888e999888888ee8888888888881-@ ",
" +*=<45<25<<242<242223248552232<5854855435555858588888833331:-# ",
" +$%**=====:=:=*=:::::=::::::::=:>:===:::::::::::::::==::==::&# ",
" .XXXXXoXooXXoXXXoXooooOoOoooOoooOooXXoOOOOOooOOOOOooooOOOOOOOX ",
"                                                                "
};
