/* XPM */
static char *rcp0251318886679[] = {
/* columns rows colors chars-per-pixel */
"64 64 75 1 ",
"  c #171315",
". c #181416",
"X c #1A1619",
"o c #1C181C",
"O c #3F270E",
"+ c #261E24",
"@ c #272025",
"# c #292126",
"$ c #2C252B",
"% c #2F282F",
"& c #30292F",
"* c #3F2E2C",
"= c #312A31",
"- c #402400",
"; c #402D00",
": c #402C0F",
"> c #422A12",
", c #433313",
"< c #703F00",
"1 c #41312E",
"2 c #443432",
"3 c #483736",
"4 c #463835",
"5 c #483836",
"6 c #43353D",
"7 c #4A3B3A",
"8 c #704200",
"9 c #704D00",
"0 c #4F413F",
"q c #453741",
"w c #463942",
"e c #4A3C46",
"r c #4C3F49",
"t c #513F49",
"y c #4D414C",
"u c #53424D",
"i c #554651",
"p c #584752",
"a c #554A55",
"s c #5B4A56",
"d c #574D58",
"f c #5D4D5A",
"g c #5D515D",
"h c #604F5C",
"j c #62515E",
"k c #5F5361",
"l c #655462",
"z c #685765",
"x c #665966",
"c c #695966",
"v c #675968",
"b c #6B5B6A",
"n c #705F6E",
"m c #6F5F70",
"M c #705F70",
"N c #6F606E",
"B c #6F6070",
"V c #716171",
"C c #965506",
"Z c #966B06",
"A c #BF6B00",
"S c #BF7200",
"D c #CF7500",
"F c #CF7B00",
"G c #BF8600",
"H c #CF8C00",
"J c #CF9100",
"K c #EF8600",
"L c #EF8D00",
"P c #EF9A00",
"I c #FF9B00",
"U c #EFA100",
"Y c #EFA800",
"T c #FFAB00",
"R c #FFB300",
/* pixels */
"lggglxllllllkkljffgllkfdddiiiiaadfggfffggggfdddddddfggdauadffddf",
"llllxvlgggglkggggglxlkfddddadfffgklkgfgkkkggggggffggkgfaidgggggk",
"xxxxvvlgfffggggglxvvxkffggffffffgllkggklxlggjllllklllkgfdglxllll",
"xxxcvxllgfsfggklxbbbvlllxlkfffffglllkklxxljjlccxxxvvvxlgjxvbbvxx",
"cxxcxxxllffglxxxcvvvxllxbvlkffgllllxxllxxllllxvvbbNbbbxxxxbbbbxl",
"cxllxxxljfflvvxxxxxxlllxbbvlllxvxgiyyyyyyyyyyyydlbVVBbvxcbbbbvxl",
"cxlllllljfjxbbxllxlllllxbbbvxxvvxi%oooooooooooo%dNVVbbbbbbbbvxll",
"vxlllljhjllvbbvxxlljhlxxvbbvxxvli5>-----;;;O;OO,0fvbbbbbbbbbvxll",
"vljhjlffjlvbVVbbvxjfhlllzbMbvxxi%>CAAAASGGGGGGGZ,=fbvvbbbbvbbvvv",
"vlfffjhjlzbbnVVVVvlfjlllvbVbvji5>8FIIIIITRRRRRRJ9,7ijvbbvcxcvvvv",
"zjffhjllxcvvbnVVVmxjjlxvbbbbxi$>CFPTTTTTRRRRRRRYJZ,%abbvxxllxcvv",
"jhhjlllcczzccbnVVmvljlvbbbbli5>8FITRRRRRRRRRRRRRRJ9,7dlxlllllllx",
"fhjjlxxzllzcbbccbbvxllcbbvcd%>CFPTRRRRRRRRRRRRRRRYJZ,%ijjjlljjjl",
"sfjlzzxljjlcbzlllcvxjjlvvcvio-AITRRRRYJGGGGHUTRRRRRG;oefglllljgj",
"fhjcvvxjjlzvvxlhjlxlffjlxzvuo-AITRRRRJ9;;;;9FITRRRRG;oejlxxxllll",
"fjlcbbxjjzbbbxlhhjllfssjlxzyo-AITRRYJZ,ooo.>CFPTRRRG;oyxvvxlxxxx",
"jjlznbvlzbnnbvxljjjfspsjlxxyo-AITRRJ9,7yree5>8FITRRG;oycvvlllxcc",
"jjjjzbvcvbnbbbbvljhfssfjlllyo-AITRRG;orljgjyo-AITRRGOoycvxggjlxv",
"xlfshzzxzbbbvbMmvxljhjjjllxyo-AITRRG;oejgjlyo-AITRRG;oycvxjffjlv",
"clspshjlzcbbbbVVbvxllxljjlcyo-AITRRG;oyjjlxyo-AITRRG;orzvclgffjl",
"zjssffjlzbbnnnnnbbvccvxljlzyo-AITRRG;oyxxccyo-AITRRG;orlxvxlfffj",
"lhsfhhhjzbbVVVVnbbbvvvxlllzyo-AITRRJ9,7yuuu7>8FITRRG;orllxxlffff",
"hhhfhhhjllcnVVVVbbvvvzllllxyo-AITRRYJZ,oooo>CFPTRRRG;orjjllgffff",
"fhllhhjjjjlvnMMbbbvvzlhhjlli%>CFPTRRRJ9;;;;9FITRRRRGOorjjllggjjj",
"jlzxlhllljjzbvzxxccxljffhjlfi5>8FITRRYJGGGGHUTRRRRRG;oyllljjlxxx",
"lzczljlllljlzljhhjjjjhhjlljfi5>8FITRRRRRRRRRRRRRRYJZ,%dxllllvbbb",
"zlllljjhjlzxlhfsssssfhlxxlju$>CFPTRRRRRRRRRRRRRRRJ9,0fxvcxlxvbbm",
"lljhhfsshlzlljjfsssssflzcji5>8FITYJHUTTTTTRRRRRYJZ,=fbbbvxllxcvb",
"jljfssspfjlllxxlhffsssjlzi%>CFPTRJ99FIIIIITRRRRJ9,7dlbbbvxllxxxv",
"jljhhfssfhljlzcxljjfsshfu5>8FITYJZ,>CAAAASGGGGGZ,%svcccvxxlxcccv",
"jjjjljhffhjllzzljlxlffju$>CFPTRJ9,22>-----;;;;;,7sxvxllxllllcbvv",
"jffjlxljjjllzzljhlxxhsu3>8FITYJZ,#ee#.ooooooooo&sbbvclllllllcbvx",
"jhfhlcvxlljlzxjssjzxlu$>CFPTRJ9,7uiieereeeryyyyscbbbvccvvxlllvvx",
"ljjjlcvvzlllxlhssjzli3>8FITYJZ,%dlfssjlljlxzxllcbbbvvvbbbvxllzxl",
"llllzzllllljllffflci$>CFPTRJ9,7sllfdfjllxcvcljllccvvxzvbbvxjhjll",
"hjzzzjssfhhhfhhjjji5>8FITYJZ,%ivvxljjjllcvxljjlczxvxljjzbvlfssfl",
"shjlljfssssspsfjli%>CFPTRJ9,4ujzczxxxllxxlhsfjcbvcvxjssjlxlfssjl",
"shhlljjfssspipsfi5>8FITYJZ,#rjjllxcvxllxlhspsjvbbvvxfsshlljffjll",
"hhhjlllljhfspsfu%>CFPTRJ9,4ysjjlllcvxjlxljfssjcbbvzlfffjljffjlcv",
"lljjjlzczzljfsu5>8FITRRH9>3ufjjlllllljjlljjffhlzvclhhjllxlfsjzbb",
"zxljjlcvcczlhu$>CFPTRRRUFC>$ujjjjllljffjjjjjjjjlxljhlllxxlffjzbB",
"zzzlllzzxzlfy3>8FITRRRRTIF8>5usffjlljfsfjjjlljjlllhjlzcvvljfhlcb",
"llzllllllllu$>CFPTRRRRRRTPFC>$rssflcljffhjjllljjllljlvbbvljfffjl",
"fhjjljjjlhu3>8FITRRRRYJGGHLA-oefsflcxljjjlllljhhlllllcbnbxjfsssf",
"ssssfhhhli$>CFPTRRRRRJ9;;8DA-orjffjjlllllljjlljjlcxljlcbvljffffh",
"sppppsspr3>8FITRRRRYJZ,. >CC>$iljffjjhfhjjllxlllcbvlhjjllljjjljj",
"hssppppe#>CFPTRRRRRJ9,4ew2>>3ugxlffjjsssfjlcvxjjzvxlfhjjljjllxxl",
"jhfspuw2>8FITRRRRRTH8>3usr##rfjljffjjfsssjzbbxjjlzljhjlllllllxxl",
"jhhfsw#>CFPTRRRRRTILDC>#eierpsfffssjljffshlbbvzlzljfhjxzzlljjjll",
"fjjhfw.-AITRRRRYJGSDKA- wffhhfssssfjlljfsshlcbvczljffjxczllfsfhj",
"hjjhhw.-AITRRRRJ9;-<DA- whhhhhfssshlclhsspsfjxcvzlljhjlxllljssff",
"jjjjjy#>CFPTRYJZ,  >CC>#rjjhjjhsssjcbxjsssssfjlzcxljhhllllxlhfff",
"fffhhie2>8FITJ9:1qw2>>2eslljlljsipjcbzlhfjjffhlcvxljffhjjllxljjj",
"iuuiiiuw#>CFPH8O*wue##esjlxlllhsppsjxccljjljhhjzcxjjhffssfhlljjj",
"piuuuuuue2>8FLDC:+wuerisfjlllhffsppsflvcljjjhsfjljhhffssssfjjffh",
"jfpuutuppe@>CDKA- 6shjfssfjjhsfjjfsppflxjhhhhssfffhhffsffffjhsps",
"zlhsuuipiuq1><DA- 6phjfssfhfsssjlljspsfhfssfjjjjhfhjjjjjlljjjspp",
"llhsuuuuuuu6+>CC>+6pffssfffssssflllhsppssssfjlljhfjlllllxxxxljsp",
"fjsiutrtupur61>>2wupffssfhfssppshjjjffspssfhjjhjjhjzczxlxzzcvxlf",
"ffsiutrtissuu6++qissffffhhfssiupfhfsfjhspshjjfsfjjlcbvxllxzvvvxl",
"ssiiuuuupfhspt66risfffhjjhfssppsffspsjjspsjllfsfjjlccxljhjlzzczx",
"ppiuuppsfhjlfpuuuisfffhjjffssffjjfsipfhspsjzxjfffjlzlhhhhjllljll",
"uuuuisjljjjlhpuuuipssssfffssfhjjjfpuusfpuuslljffssjlfspfjlllffhj",
"urtusjcvlhffsiuuisspiiipsssssffssspipssiuupfhfsiupfjsiushjlhsssf"
};
