/* XPM */
static char *rcp12250770043313[] = {
/* columns rows colors chars-per-pixel */
"64 64 151 2 ",
"   c #6F563F",
".  c #7B623D",
"X  c #4E3D46",
"o  c #4F3F48",
"O  c #513F49",
"+  c #54424D",
"@  c #564551",
"#  c #584752",
"$  c #554A55",
"%  c #5B4A56",
"&  c #574D58",
"*  c #5D4D5A",
"=  c #5D515D",
"-  c #6F5846",
";  c #715743",
":  c #765D44",
">  c #785E44",
",  c #755F4E",
"<  c #604F5C",
"1  c #62515E",
"2  c #7D6544",
"3  c #7B634B",
"4  c #796352",
"5  c #5F5361",
"6  c #655462",
"7  c #685765",
"8  c #665866",
"9  c #695966",
"0  c #675968",
"q  c #6B5B6A",
"w  c #705F6E",
"e  c #6F5E70",
"r  c #705F70",
"t  c #6F606F",
"y  c #6F6070",
"u  c #716271",
"i  c #9A751F",
"p  c #A17300",
"a  c #A77900",
"s  c #AA7C00",
"d  c #A77D0B",
"f  c #A37C1A",
"g  c #85652D",
"h  c #8B6C2C",
"j  c #916F2E",
"k  c #967426",
"l  c #9B7723",
"z  c #96732B",
"x  c #997729",
"c  c #927829",
"v  c #9A792B",
"b  c #8E6E30",
"n  c #82663A",
"m  c #856A3C",
"M  c #937436",
"N  c #9D7F3A",
"B  c #806446",
"V  c #836A44",
"C  c #886E47",
"Z  c #816B4D",
"A  c #88704F",
"S  c #927A47",
"D  c #816951",
"F  c #877252",
"G  c #AF8000",
"H  c #B38400",
"J  c #B78800",
"K  c #BB8C00",
"L  c #BE9000",
"P  c #BD9D00",
"I  c #BD920D",
"U  c #AE8511",
"Y  c #B08714",
"T  c #B38B15",
"R  c #BC9315",
"E  c #9D8338",
"W  c #A2802E",
"Q  c #AC8A2D",
"!  c #AF9127",
"~  c #B6942F",
"^  c #B79D2C",
"/  c #AB8830",
"(  c #C39400",
")  c #C69801",
"_  c #CA9B00",
"`  c #C69A0D",
"'  c #C99F17",
"]  c #C3A300",
"[  c #CFA300",
"{  c #C5A800",
"}  c #CAAA00",
"|  c #D4A400",
" . c #D3AB00",
".. c #DCAC00",
"X. c #CCB300",
"o. c #D6B500",
"O. c #DFB101",
"+. c #D3BD00",
"@. c #DEBF00",
"#. c #CBA214",
"$. c #D2B414",
"%. c #E2B200",
"&. c #E8B700",
"*. c #E3BC00",
"=. c #ECBC00",
"-. c #F0BF00",
";. c #DBC400",
":. c #E2C101",
">. c #E8C400",
",. c #E5CD00",
"<. c #EDCB00",
"1. c #EBC00E",
"2. c #EBCD0E",
"3. c #F5C400",
"4. c #F8C700",
"5. c #F1CC00",
"6. c #FECD00",
"7. c #E3D400",
"8. c #ECD700",
"9. c #EADA00",
"0. c #F5D301",
"q. c #FDD400",
"w. c #FFDD00",
"e. c #FFDF0D",
"r. c #EEE400",
"t. c #F7E700",
"y. c #FFE400",
"u. c #F3EB00",
"i. c #FFEC00",
"p. c #FFEC09",
"a. c #F6F200",
"s. c #FEF500",
"d. c #FFFD00",
"f. c #FFEA13",
"g. c #FFEA18",
"h. c #FFFF14",
"j. c #FFFF1A",
"k. c #96814C",
"l. c #FFEE53",
"z. c #FFFE55",
"x. c #FFFF5E",
"c. c #FFEA66",
"v. c #FFED6A",
"b. c #FFFC7B",
"n. c #FFFF83",
"m. c #FFFCA7",
"M. c #FFFFC0",
"N. c #FFF9D1",
"B. c #FFFFD9",
"V. c #FFFFEE",
"C. c #FFFFFD",
/* pixels */
"6 = = = 6 8 6 6 6 6 6 6 5 5 6 1 * * = 6 6 5 * & & & @ @ @ @ $ $ & * = = * * * = = = = * & & & & & & & * = = & $ + $ & * * & & * ",
"6 6 6 6 8 0 6 = = = = 6 5 = = = = = 6 8 6 5 * & & & & $ & * * * = 5 6 5 = * = 5 5 5 = = = = = * * * = = 5 = * $ @ & = = = = = 5 ",
"8 8 8 8 0 0 6 = * * * = = = = = 6 8 0 0 8 5 * * = = * * * * * * * 6 6 5 = = 5 6 8 6 = = 6 8 8 6 6 6 6 6 6 5 = * & = 6 8 6 6 6 6 ",
"8 8 8 9 0 8 6 6 = * % * = = 5 6 8 q q q 0 6 6 6 8 6 5 * * * * * * 6 6 6 6 5 6 8 8 6 1 1 6 9 0 8 8 8 0 0 0 8 6 = 1 8 0 q q 0 8 8 ",
"9 8 8 9 8 8 8 6 6 * * = 6 8 8 8 9 0 0 0 8 6 6 8 q 0 6 5 * * = 6 6 6 6 8 8 6 6 8 8 6 6 6 6 8 0 0 q q q q q q 8 8 8 8 q q q q 8 6 ",
"9 8 6 6 8 8 8 6 1 * * 6 0 0 8 8 8 8 8 8 6 6 6 8 q q 0 6 6 6 8 0 8 8 6 8 8 8 6 8 8 8 6 6 8 9 0 0 q q u u y q 0 8 9 q q q q 0 8 6 ",
"9 8 6 6 6 6 6 6 1 * 1 8 q q 8 6 6 8 6 6 6 6 6 8 q q q 0 8 8 0 0 8 8 8 8 8 8 6 8 8 8 6 6 6 9 0 0 q t u u q q q q q q q q 0 8 6 6 ",
"0 8 6 6 6 6 1 < 1 6 6 0 q q 0 8 8 6 6 1 < 6 8 8 0 q q 0 8 8 0 8 8 9 0 0 8 6 6 8 8 8 6 = 1 6 8 9 q t u q q q q q q q q q 0 8 6 6 ",
"0 6 1 < 1 6 * * 1 6 0 q u u q q 0 8 1 * < 6 6 6 7 q r q 0 8 8 6 8 0 q q 9 6 6 9 8 6 = * * * 6 9 q t q q 0 0 q q q q 0 q q 0 0 0 ",
"0 6 * * * 1 < 1 6 7 q q w u u u u 0 6 * 1 6 6 6 0 q u q 9 6 6 6 8 0 q q 9 6 8 0 0 8 1 * * * 1 0 t t 0 8 8 0 q q q 9 7 9 0 0 0 0 ",
"7 1 * * < 1 6 6 8 9 0 0 q w u u u e 8 1 1 6 8 0 q q F k.E  .w.w.w.w.4.) N S Z q q q 8 6 1 = 6 9 q q 0 8 9 q q 0 8 8 6 6 8 9 0 0 ",
"1 < < 1 6 6 6 9 9 7 7 9 9 q w u u e 0 6 1 6 0 q ! 2.0.w.w.w.w.w.w.w.w.6.6.6.4.1.Q y q 8 6 1 6 9 q q q 0 0 0 0 8 6 6 6 6 6 6 6 8 ",
"* < 1 1 6 8 8 7 6 6 7 9 q q 9 9 q q 0 8 6 2 ^ 0.w.w.y.p.v.l.s.i.i.i.i.y.q.6.6.6.6.4.~ 3 8 6 6 8 q t t q 0 9 6 1 1 1 6 6 1 1 1 6 ",
"% * 1 6 7 7 8 6 1 1 6 9 q 7 6 6 6 9 0 7 m w.w.w.i.d.B.C.x.d.d.y.w.w.w.w.d.d.y.6.6.6.6.=.V 6 6 8 q y u q 0 6 1 * = 6 6 6 6 1 = 1 ",
"* < 1 9 0 0 8 1 1 6 7 0 0 8 6 < 1 6 9 $.w.w.y.b.M.C.c.e.w.<.o.o.o.o.o.<.6.6.6.y.w.6.6.4.=.#.6 8 0 q u q 0 8 1 6 6 8 8 8 6 6 6 6 ",
"* 1 6 9 q q 8 1 1 7 q q q 8 6 < < n :.w.w.s.N.N.w.0.<.P P ] } } L } } ] p p %.=.6.6.6.4.=.=.&.2 8 9 q u q 8 8 8 0 0 8 6 8 8 8 8 ",
"1 1 6 7 w q 0 6 7 q w w q 0 8 6 c *.0.i.d.i.w.w.} P P <.<.0.i.s.s s.s.u.&.&.p p J 6.6.4.=.=.=...g 6 q w q 0 9 0 0 0 6 6 6 8 9 9 ",
"1 1 1 1 7 q 0 9 0 q w q q q q V *.5.y.d.y.w.@.P } 0.y.g.z.h.d.7.6.;.s.s.q.q.6.=.K p ( =.&.=.=.=.... 9 q q 0 7 9 0 8 = = 1 6 8 0 ",
"8 6 * % < 7 7 8 7 q q q 0 q r O.<.y.d.w.w.} P <.w.d.B.V.x.d.d.t.6.( w.w.6.6.6.6.6.&.p s | | =.=.=.| 9 0 0 8 6 9 0 8 1 * * 1 6 0 ",
"9 6 % # % < 1 6 7 9 q q q q ' %.5.s.w.<.P o.0.f.m.C.n.h.s.i.w.,.6...>.w.6.6.6.6.6.6.3.K p ) | %.=.=.R 9 9 8 6 8 0 9 6 = * * 1 6 ",
"7 1 % % * * 1 6 7 q q w w j %.%.t.w.w.P { w.v.V.j.d.d.y.w.w.J i.6.=.H q.6.6.6.6.6.6.6.4.s p | | ..=.| m 0 8 6 6 8 0 8 6 * * * 1 ",
"6 < % * < < < 1 7 q q u D %.%.&.6.w.} o.w.i.d.d.d.i.y.w.w.<.r.i.6.=...=.6.6.6.6.6.6.6.4.=.H s | | ..%.| 3 8 6 6 6 8 8 6 * * * * ",
"< < < * < < < 1 6 6 9 q / %.%.=.6...P 0.y.d.d.d.i.w.w.w.w.>.a.q.6.=.3.&.6.6.6.6.6.6.6.4.=...p K | | ..| W 8 6 1 1 6 6 = * * * * ",
"* < 6 6 < < 1 1 1 1 6 0 | %...6...p =.i.d.d.d.y.w.w.w.w.w.] d.6.6.=.&.| 6.6.6.6.6.6.6.=.=.&.( p ( | | | _ 8 6 1 1 6 6 = = 1 1 1 ",
"1 6 7 8 6 < 6 6 6 1 1 f ..O.*.4.G K 6.d.d.s.w.w.w.w.w.w.*.d.d.6.6.=.&.3.( 6.6.6.6.6.4.=.=.=...s a _ | | | l 6 6 6 6 1 1 6 8 8 8 ",
"6 7 9 7 6 1 6 6 6 6 1 ` | K &.( p 3.d.d.d.q.w.w.w.w.w.w.y.d.q.6.6.=.%.4.&.4.6.6.6.6.-.=.=.=.&.) p H | | _ I 8 8 6 6 6 6 0 q q q ",
"7 6 6 6 6 1 1 < 1 6 3 | | K &.G p [ X.;.q.w.y.;.+.+.+.;.s.d.q.6.6.=.%.&.4...) ( ( ( %.&.&.| ( K p G ( | ) ) D 0 9 8 6 8 0 q q e ",
"6 6 1 < < * % % < 6 C | ) ( ( p &.0.7.s.d.d.d.d.q.6.6.6.6.6.6.6.6.=.%.%.=.6.6.6.4.&.%.%...( ( | ) p J ) ) ) A q 0 8 6 6 8 9 0 q ",
"1 6 1 * % % % # * 1 z | ) | ( p &.d.d. .d.0.6.6.6.6.6.6.6.6.6.6.6.=.%.%.%.%.%.%.%.%.%.| ) ( &.=.) p J ) ) ) M q 0 8 6 6 8 8 8 0 ",
"1 6 1 < < * % % * 1 K | ( | s s 5.d.y.6.L a.q.&.4.4.6.6.6.6.6.6.6.%.%.%.%.%.%.%.%..._ ( J =.=.=.| a s H ) ) J 0 8 8 6 8 9 9 9 0 ",
"1 1 1 1 6 1 < * * 1 | | J _ s s 8.u.q.6.6.=.9.q.%.%.&.&.&.&.=.&.&.%.%.%.%.%.%.%.| G ) K &.=.=.=.&.s s H _ _ ) 6 6 6 6 6 9 q 0 0 ",
"1 * * 1 6 8 6 1 1 1 | | J K s s 7.8.4.4.6.6.3.+.0.%.%.%.%.%.%.%.%.%.%.%.%.%...K H K ..=.=.=.=.=...a s H ( _ _ 6 6 6 6 6 9 q 0 8 ",
"1 < * < 6 9 0 8 6 6 | | J J s s ,.8.=.=.=.4.6.6.{ q.%.%.%.%.%.%.%.%.%.%.%.) J a G =.=.=.=.=.=.%...a a H L ) ) 0 0 7 6 6 6 0 0 8 ",
"6 1 1 1 6 9 0 0 7 6 | | J J s s | <.=.=.=.=.=.=.%.:.5.%.%.%.%.%.%.%.%.%...K H J %.=.=.=.=.&.%...| a a H L ) ) q q 0 8 6 6 7 8 6 ",
"6 6 6 6 7 7 6 6 6 6 | | J J s s | %.=.=.=.=.=.=.=.=.;.6.%.%.%.%.%.%.%.%...) a &.=.=.=.=.&.......) a a H L ) ) q q 0 8 1 < 1 6 6 ",
"< 1 7 7 7 1 % % * < K | ( J s a [ | &.=.=.=.=.=.=.K y.6.&.%.%.%.%.%.%.%.%._ K H =.=.=.%.........( p s H L ) J 7 q 0 6 * % % * 6 ",
"% < 1 6 6 1 * % % % h ) ( J J p ) | %.=.=.=.=.=.&.{ y.6.6.%.%.%.......%.%.) J ) %.&...........| ( p H H L ) h 1 6 8 6 * % % 1 6 ",
"% < < 6 6 1 1 * % % . ) K H J p ) | | %.=.=.=.=.| s.q.6.=.%.%...) ) ) ) | ) K ( _ ............_ ( p H H L ) . < 6 6 1 * * 1 6 6 ",
"< < < 1 6 6 6 6 1 < : ) ) H H s p | | ..&.=.=.=.@.d.6.6.&.%...( s J ) ) ) ) ) p K .........._ ) p s H H ) ( > 1 6 1 * * 1 6 9 0 ",
"6 6 1 1 1 6 7 9 7 7 6 I ) H H G p ( | | | &.=.=.+.s.6.=.%...K J a J p K ( ) ) s ) ........| ) ( p G H H ) I 6 6 6 6 * % 1 7 q q ",
"7 7 6 1 1 6 9 0 9 9 7 i ) ( H H a s ) _ _ | %.( d.q.4.%...K | | %...( s K K ) ) K J ....| ) ) s a H H ) ) k 6 7 8 6 * * 1 7 q y ",
"7 7 7 6 6 6 7 7 8 7 6 6 ( ) J H H p L ) ) ) ) u.d.q.%.| J ..............J K H ( K ( | ) ) ) ( p H H J ) ( 9 9 0 0 6 1 * < 6 9 q ",
"6 6 7 6 6 6 6 6 6 6 6 6 x ) K H H s p ( ) ) ) u.i.&.) | ..................| ( K H ( ) ) ) ( p s H H K ) v 0 q q 0 6 1 * * * 1 6 ",
"* < 1 1 6 1 1 1 6 6 6 6 > ) ) H H H a s ) ) ) 7.| ) ) ) | | | ........| | | [ ) L K H ) ) s a H H H ) ) > 9 q w q 8 1 * % % % * ",
"% % % % * < < < 6 7 6 8 6 n ) ( H H H p a ) s ) ) ) ) ) ) ) _ _ ) ) ) ) ) ) ) ) ) ) s J a p H H H ( ) > 1 6 9 q 0 6 1 * * * * < ",
"% # # # # % % % < 1 7 q 0 9 T ) K H H s p a ( _ ) ) ) ) ) ) _ _ ) ) ) ) ) ) ) ) ) ) ( s p s H H K ) T 1 < 1 1 6 6 6 1 1 1 6 1 1 ",
"< % % # # # # % % < 1 q q q q ) ) H H H H a p ( ) _ ) ) ) ) ) ) ) ) ) ) ) ) ) ) ) L p a H H H H ) ( 8 6 * < 1 1 6 1 1 6 6 8 8 6 ",
"1 < * % # # # % < < 1 6 q q q B ( ) H H H H s p s K _ _ ) ) ) ) _ ) ) ) ) ) ) K s p s H H H H ) ( 3 6 1 < 1 6 6 6 6 6 6 6 8 8 6 ",
"1 < < * % # % 1 6 6 < * 1 7 9 7 g ( ) J H H H H a p p L ( ( ) ) _ _ ) ( ( L p p a H H H H J ) ( g 6 1 * < 1 8 7 7 6 6 1 1 1 6 6 ",
"* 1 1 < * % * 1 6 8 1 % * 1 6 1 1 : ( ) H H H H H G G p p p a a s s s p p p G G H H H H H ) ( 3 7 6 1 * * 1 8 9 7 6 6 * % * < 1 ",
"< 1 1 < < < * < 6 8 6 * % * * * * * % U ) ( J H H H H H H G a a s s s H H H H H H H H K ) Y 9 0 7 6 6 1 < 1 6 8 6 6 6 1 % % * * ",
"1 1 1 1 1 < % * 1 6 1 % % # @ # % * * %   ) ) K H H H H H H H H H H H H H H H H H J ) ) - 1 6 7 9 8 6 1 < < 6 6 6 6 8 6 < * * * ",
"* * * < < * % % < < * % # + + + # % % % %   k ( ) ( L H H H H H H H H H H H K L ( ( x ; * < 6 9 0 8 6 1 * * < 1 1 6 6 8 6 6 1 1 ",
"@ @ @ @ # @ + # % * % % % @ + + + # # % % % % % h I ( ) ) ) ( K J K ( ) ) ) ( I b 1 6 1 < < 1 7 9 8 1 1 < * * % % % < 6 6 6 1 1 ",
"# @ + + + + + + % % % % * * % @ @ @ @ % * * % % * 1 , V m d ( ) ) ) ( d n V 4 9 6 1 1 1 < % * 1 6 1 < < * * % % % % * 1 1 * * < ",
"1 * # + + O + # # % % % < 6 1 * % @ + % < 1 * % % * 1 1 < % * 1 1 * % # # * 6 8 1 < < < < % % * * * < < * * % * * * * 1 < % # % ",
"7 6 * % + + + # @ @ @ # % 1 6 6 * @ + # < 1 * % % * < * % % % 1 6 6 1 % # % * < * % % * 1 1 1 1 < * < 1 1 1 1 1 6 6 1 1 < % # # ",
"6 6 * % + + + + + + + + + % 1 6 * @ + # * * % % * * * % % % % * 6 6 6 < % # # % % % % * 1 6 6 1 < * 1 6 6 6 6 6 8 8 8 8 6 1 % # ",
"* 1 % @ + O X O + @ + + + # * * % @ @ # * * % % * < * % % # # % < 1 1 1 * * % # % % * < 1 1 < 1 1 < 1 7 9 7 8 6 8 7 7 9 0 8 6 * ",
"* * % @ + X X O @ % % + + + @ @ @ @ % % * * * * < < * % % @ + # * < * % * 1 < % # % < 1 1 * % * 1 1 6 9 q 0 8 6 6 8 7 0 0 0 8 6 ",
"% % # @ + + + + # * < % @ + + + + @ % * * * < 1 1 < * % % # # % * * % # % 1 1 % # % 1 6 6 * % * 1 1 6 9 9 8 6 1 < 1 6 7 7 9 7 8 ",
"# # @ + + # # % * < 1 6 * @ + + + @ % * * * < 1 1 * * % % * * 1 1 * % @ # * < % # % 1 7 8 1 * * * 1 6 7 6 < < < < 1 6 6 6 1 6 6 ",
"+ + + + @ % 1 6 1 1 1 6 * # + + + @ # % % % % * * * % % * < 1 1 1 * # + + % * # + + % 6 6 1 * * % % 1 6 * % # * 1 6 6 6 * * < 1 ",
"+ o O + % 1 9 0 6 < * * * # + + @ % % # @ @ @ # % % % % % * * % % % # @ # % % @ + + # * < * % @ + # * 1 % @ + % < 1 6 < % % % * "
};
