/* XPM */
static char *rcp09370511188737[] = {
/* columns rows colors chars-per-pixel */
"64 64 208 2 ",
"   c #1D1517",
".  c #281C1F",
"X  c #251D23",
"o  c #2C2225",
"O  c #2E252C",
"+  c #32262B",
"@  c #34292D",
"#  c #392D2F",
"$  c #362824",
"%  c #362A32",
"&  c #3A2E34",
"*  c #352D39",
"=  c #392F3B",
"-  c #302732",
";  c #3A3135",
":  c #3A313D",
">  c #402F2B",
",  c #47382D",
"<  c #44353C",
"1  c #45393E",
"2  c #493B3D",
"3  c #443536",
"4  c #654D1D",
"5  c #694E13",
"6  c #735617",
"7  c #7E621C",
"8  c #594221",
"9  c #584639",
"0  c #634D25",
"q  c #6D5627",
"w  c #624C33",
"e  c #785E39",
"r  c #7B6128",
"t  c #7B6136",
"y  c #3B3341",
"u  c #463740",
"i  c #453C44",
"p  c #4A3B44",
"a  c #473E49",
"s  c #4B3E4A",
"d  c #4C4145",
"f  c #4B424B",
"g  c #53424C",
"h  c #5C4849",
"j  c #4E4151",
"k  c #524554",
"l  c #584752",
"z  c #564A56",
"x  c #5B4A55",
"c  c #5D4D5A",
"v  c #544859",
"b  c #5D515C",
"n  c #5C5057",
"m  c #654F44",
"M  c #67534C",
"N  c #6B5646",
"B  c #745D46",
"V  c #604F5C",
"C  c #695652",
"Z  c #62525E",
"A  c #6B595C",
"S  c #695656",
"D  c #735E58",
"F  c #7E6542",
"G  c #736156",
"H  c #5F5460",
"J  c #655563",
"K  c #685764",
"L  c #675865",
"P  c #695966",
"I  c #675868",
"U  c #6A5B69",
"Y  c #685768",
"T  c #946600",
"R  c #966900",
"E  c #9C6E00",
"W  c #9E7000",
"Q  c #9F780A",
"!  c #9A740D",
"~  c #876816",
"^  c #9A7918",
"/  c #8B680F",
"(  c #A27400",
")  c #A77900",
"_  c #AB7C00",
"`  c #A67D0F",
"'  c #A27B14",
"]  c #826323",
"[  c #896A2A",
"{  c #8F702D",
"}  c #967524",
"|  c #997524",
" . c #9E7922",
".. c #94732A",
"X. c #9C7D2B",
"o. c #826536",
"O. c #86693B",
"+. c #8A6C33",
"@. c #967C3A",
"#. c #917236",
"$. c #8B753F",
"%. c #AF8001",
"&. c #AC830C",
"*. c #B28300",
"=. c #B68801",
"-. c #BB8C00",
";. c #B98E0C",
":. c #B3880B",
">. c #B59500",
",. c #BF9001",
"<. c #B79900",
"1. c #BB9C01",
"2. c #AD8413",
"3. c #AC861F",
"4. c #B48B12",
"5. c #AF911D",
"6. c #B69618",
"7. c #9C8530",
"8. c #A68626",
"9. c #B29420",
"0. c #A18631",
"q. c #C39400",
"w. c #C99600",
"e. c #C69901",
"r. c #CB9B00",
"t. c #D09F00",
"y. c #C4A401",
"u. c #CEA101",
"i. c #CBAB01",
"p. c #C9A00D",
"a. c #D4A400",
"s. c #D9A600",
"d. c #D3AA00",
"f. c #DCAC00",
"g. c #D6A90B",
"h. c #CCB200",
"j. c #CEB00D",
"k. c #D4B300",
"l. c #DDB201",
"z. c #D3BC00",
"x. c #DCBC01",
"c. c #C7A516",
"v. c #D0A913",
"b. c #CEB113",
"n. c #D4B712",
"m. c #E1AE00",
"M. c #E2B200",
"N. c #E9B500",
"B. c #E5BB00",
"V. c #ECBC00",
"C. c #E1B709",
"Z. c #F1BE00",
"A. c #D5C400",
"S. c #DBC800",
"D. c #DED200",
"F. c #E5C402",
"G. c #ECC300",
"H. c #E2CC00",
"J. c #ECCB01",
"K. c #E4C70A",
"L. c #F3C200",
"P. c #FAC700",
"I. c #F3CD00",
"U. c #FECD00",
"Y. c #E3D400",
"T. c #ECD600",
"R. c #ECDC00",
"E. c #E4DA00",
"W. c #F5D401",
"Q. c #FFD300",
"!. c #FEDC00",
"~. c #FFDF1D",
"^. c #ECE500",
"/. c #EEEA00",
"(. c #FFE300",
"). c #F6EE00",
"_. c #FFEB01",
"`. c #FBE507",
"'. c #F4F300",
"]. c #FEF300",
"[. c #FFFD00",
"{. c #FEFF08",
"}. c #FEEC1D",
"|. c #FFFC1C",
" X c #FFFF12",
".X c #FFE628",
"XX c #FFFC2A",
"oX c #FFF62C",
"OX c #FFE830",
"+X c #FEF534",
"@X c #FFF948",
"#X c #FFFC53",
"$X c #FFEC61",
"%X c #FFFF62",
"&X c #FEFF68",
"*X c #FFEF7C",
"=X c #FFF67C",
"-X c #FFEE86",
";X c #FFFF88",
":X c #FFF798",
">X c #FFFFA1",
",X c #FEFEAD",
"<X c #FFFBC8",
"1X c #FFFBDB",
"2X c #FFFFE3",
"3X c #FFFDEE",
"4X c ivory",
"5X c #FFFFFE",
/* pixels */
"; i a f a a f f d a i i i a i a a a f d i i i i 9 r ^ 6.j.x.F.J.J.F.l.p.4.} t 9 i a i a p a f f f f f f f f f f a a a f f a i * ",
"; f z b b b c c x b x n Z b b b c b c b c B 8.b.J.(._.`.(.(.(.(.(.(.(.Q.!.Q.U.V.c.X.N c b b n b b H b J c k b b c c z c b c k : ",
"; p J Z Z b Z L Z L b P J b U U U L A 7.n.!._._.!.!.!.!.!.!.!.!.!.Q.!.Q.U.U.U.Q.!.!.P.v.@.S U U U L U U U J L J U U Z L U I v y ",
"; f Z Z c Z J Z x Z U J L P L L A 0.K._._.!.!.!.(._.@X=X|.[.[.].].]._.(.Q.U.U.U.U.U.U.!.!.C.0.A J P K U U L U U U U I L L L z y ",
"& p c J Z c P L Z Z J Z Z L J @.K._.(.!.!.(.].@X>X3X2X&X{.[.[.[.[.[.[.[.].]._.(.Q.U.U.U.U.Q.!.g.O.J J K J J U L Z J K J L J j : ",
"% p Z c Z c Z c c J L L J G c._.(.!.!._.|.;X2X5X3X*X`._.(.(.(.!.(.(.(.(.!.Q.!.(.(.(.Q.U.U.U.U.P.L.6.D J P L P J V J U J L J z y ",
"@ p Z Z Z Z Z Z Z Z L Z $.F._.!.Q.(.oX,X5X5X<X$X`.!.Q.I.F.x.x.k.k.x.x.F.I.P.U.Q.Q.Q.!.Q.U.U.U.L.V.P.f.O.L U V Z J L J J U J k y ",
"& p x x c Z c J J b U 8.W.!.!.!._.#X3X1X-XOX!.I.x.i.1.>.>.>.>.<.<.>.>.>.<._ *.a.V.U.Q.Q.U.U.U.P.V.V.L.L.X.K V Z L J Z L L I k y ",
"# p l Z Z Z J J Z Z 9.Q.W.!.(.[.[.}.~.(.!.F.i.<.>.1.i.k.F.F.W.B.l.W.J.F.k.-.E T R =.f.U.Q.U.U.U.V.V.V.V.U.8.Z J J J L V L c k y ",
"# 1 l Z x c Z K Z 6.Q.J.!.(.[.[.(.!.!.F.y.>.<.i.F.W.(._.].].[.k.e.[.[.[.[._.I.f.-.E T _ f.Q.Q.U.V.V.V.V.V.U.3.V Z Z V x c c j y ",
"+ 3 c Z V Z Z Z 5.!.F.Q._.[.].!.(.W.i.>.1.x.W.(._.].#X%X[.[.'.k.f.E.[.]._.(.!.Q.Q.V.q.E T =.l.L.V.V.V.V.V.V.U.3.c Z J Z c Y k = ",
"+ 3 l V Z x x } Q.F.I._.[._.!.(.F.1.>.k.W.(._.oX;X4X4X#X[.[.A.J.L.r.(.!.!.U.U.U.U.Q.Q.G.-.R E e.f.f.N.V.V.V.V.P...c x c x x j = ",
"+ 1 l x c x t V.B.J.(.[.(.!.!.k.>.1.F.!.(.+X,X5X5X>X|.[.[.(.h.(.U.q.I.(.!.U.U.U.U.U.U.Q.Q.f.( R =.s.s.f.V.V.V.V.N.t c c J J s = ",
"o < g x g m f.N.M.W.[.(.!.!.k.>.i.W.(..X,X5X5X:XXX[.[.(.(.l.Y.!.U.s.d.(.Q.U.U.U.U.U.U.U.U.Q.G.%.R *.s.a.s.N.V.V.V.r.M l x x s * ",
"+ & 3 1 & &.V.f.M.]._.!.!.k.>.i.!.OX:X1X<X%X X[.[._.!.!.!.i.].U.U.V.q.W.Q.U.U.U.U.U.U.U.U.U.Q.P.*.R *.s.s.s.M.V.B.N.` 1 1 u i * ",
"  . . X 5 Z.M.m.J._.!.(.k.>.i.!.!.#X%X|.[.[.[.].!.!.!.(.B.S.].U.Q.V.r.f.Q.U.U.U.U.U.U.U.U.U.U.U.V.*.R =.f.s.a.M.V.f.m.4 O O O X ",
"a i a d u.N.l.M.W.U.!.x.>.i.!.!.].[.[.[.[.[.(.!.!.!.!.(.i.'.(.U.Q.V.N.q.U.U.U.U.U.U.U.U.U.U.U.P.V.N.) E q.f.s.a.N.M.f.q.2 i p a ",
"J Z J ..Z.f.M.B.U.Q.N.<.y.W.!.].[.[.[.[.].!.!.!.!.!.(.G.z.[.Q.U.Q.V.Z.u.f.Q.U.U.U.U.U.U.U.U.U.P.V.L.s.W W r.f.a.s.M.a.N.{ J b c ",
"J U A a.N.M.f.G.Q.P.( ) J.(.].[.[.[.[._.!.!.!.!.!.!.(.d./.[.U.U.U.V.N.V.q.Q.U.U.U.U.U.U.U.U.U.L.V.V.V.q.E ) a.s.s.s.s.f.e.A P P ",
"U P #.V.M.f.f.I.Q.q.R -.Q._.[.[.[.[.(.!.!.!.!.!.!.(.I.h.[._.U.U.U.L.f.U.r.N.Q.U.U.U.U.U.U.U.U.V.V.V.V.l.%.E *.a.s.s.s.a.m.+.U U ",
"J Z ;.m.M.a.M.Q.f.W ( L.!.[.[.[.[.(.!.!.!.!.!.!.!.(.f.E.[.(.U.U.Q.L.f.L.V.e.Q.U.U.U.U.U.U.U.P.V.V.V.V.V.r.( ( -.s.s.s.a.f.2.P P ",
"J B f.s.s.r.V.P.*.R e.Q.].[.[.[.(.!.(.(.(.(.(.(.(.!.i.[.[.!.U.U.Q.L.f.N.Q.e.L.!.Q.Q.Q.Q.Q.U.V.V.V.V.V.V.f.*.E _ q.s.a.s.r.r.B K ",
"V } M.s.q.a.L.s.( ( P.].[.[.[.!.P.I.I.G.F.B.l.l.k.e.Y.[.[.Q.U.U.Q.L.M.M.P.V.-.a.f.f.M.V.V.N.N.V.V.V.V.L.V.a.W ( =.u.s.a.e.s...K ",
"Z 4.f.s.-.s.V.-.R -.N.z.z.k.d.a.d.d.k.x.S.H.Y.R.^.).[.[.].U.U.U.Q.V.M.M.V.Q.V.f.s.u.r.e.e.q.q.q.q.q.q.e.e.q._ E %.q.s.u.e.a.2.K ",
"C r.f.u.=.s.s._ R m.J.>.Y.].].[.[.[.[.[.[.].]._.(.!.Q.Q.U.U.U.U.Q.V.M.M.M.P.Q.Q.U.U.P.L.V.V.N.M.M.f.r.-._ r.q.E _ -.a.r.e.r.q.C ",
"o.f.s.e.=.s.q.( ( L.[.'.h.^.[.!.Q.Q.U.U.U.U.U.U.U.U.U.U.U.U.U.U.U.V.M.M.M.M.M.M.N.N.N.M.M.M.M.M.s.r.q.=.M.L.u.( ( =.q.r.e.e.t.e ",
"| f.s.q.-.s.=.E =.!.[.[.).e.D.[.P.L.U.U.Q.U.U.U.U.U.U.U.U.U.U.U.U.N.M.M.M.M.M.M.M.M.M.M.M.N.f.r.e.-.-.N.L.V.f.) W *.=.e.e.e.a...",
"2.f.s.-.-.a.*.E q._.[.[.!.U.a.A.[.I.N.V.P.U.U.Q.Q.U.U.U.U.U.U.Q.P.M.M.M.M.M.M.M.M.M.M.M.M.s.q.e.-.q.V.V.V.V.N.=.E %.*.q.r.e.a.' ",
";.f.a.-.-.e._ E r.(.[.].U.U.Q.f.h.[.Q.m.l.N.V.L.P.U.U.U.U.U.U.P.N.M.M.M.M.M.M.M.M.M.M.l.r.-.e.=.e.L.V.V.V.V.V.-.E _ *.-.r.e.a.&.",
"q.f.a.=.-.q.) E t.R./.!.U.Q.U.Q.N.y.'.!.N.l.M.M.M.M.N.V.V.V.V.M.M.M.M.M.M.M.M.M.M.M.f.q.=.q.=.a.L.V.V.V.V.V.V.q.E ) *.=.e.e.r.;.",
"e.s.a.=.-.q.) E r.R.^.G.P.U.Q.U.Q.Z.e.^.(.N.l.M.M.M.M.M.M.M.M.M.M.M.M.M.M.M.M.M.f.a.=.*.q.=.f.L.V.V.V.V.V.V.N.q.W ) *.*.e.e.r.,.",
"r.s.a.=.=.-.) W r.T.R.V.V.V.P.U.U.Q.P.r.Y._.N.l.M.M.M.M.M.M.M.M.M.M.M.M.M.M.M.s.q.) *.,.-.N.L.V.V.V.V.V.V.N.f.q.W ) *.*.q.r.r.q.",
"r.s.a.=.=.-.) W w.H.T.V.V.V.V.V.L.L.P.U.r.A._.V.m.M.M.M.M.M.M.M.M.M.M.M.M.M.r.-.( =.-.,.V.V.V.V.V.V.V.V.M.f.f.q.W ) =.*.q.r.r.q.",
"e.f.a.=.=.-.) W w.x.J.V.V.V.V.V.V.V.V.V.L.r.h.(.V.M.M.M.M.M.M.M.M.M.M.M.M.M.e.( =.-.q.L.V.V.V.V.V.V.V.M.f.f.f.,.W ) =.*.,.r.r.,.",
"q.f.a.-.=.-._ E q.f.B.V.V.V.V.V.V.V.V.V.V.P.w.D.!.N.M.M.M.M.M.M.M.M.M.M.M.M.a.*.*.q.L.V.V.V.V.V.V.V.f.f.f.f.s.-.E ) =.*.-.r.r.=.",
":.f.a.-.=.-._ E q.f.f.V.V.V.V.V.V.V.V.V.V.V.u.).Q.P.M.M.M.M.M.M.M.M.M.M.M.M.s.-._ -.V.V.V.V.V.V.N.f.f.f.f.f.a.=.E _ =.*.-.r.a.&.",
"! a.a.,.=.-.*.E =.f.a.N.V.V.V.V.V.V.V.V.G.f.z.].U.Q.V.m.M.M.M.M.M.N.M.M.M.N.s.q._ =.s.L.V.V.V.M.f.f.f.f.f.f.r.*.E _ *.*.q.e.a.! ",
"~ a.e.,.=.=.=.W _ s.s.s.V.V.V.V.V.V.V.V.L.e./.(.U.Q.P.M.M.M.M.M.f.f.f.M.N.N.f.e.*.=.q.L.V.M.f.f.f.f.f.f.f.a.e.) W *.*.*.q.e.a.7 ",
"4 r.e.q.*.=.=.( ( a.s.a.f.V.V.V.V.V.V.V.N.i.[.Q.U.Q.P.M.M.M.M.a.q.q.e.r.s.M.f.e.-.*.-.f.M.f.f.f.f.f.f.f.f.r.q.( ( *.*.*.q.e.r.0 ",
", q.r.q.*.*.=._ E q.f.s.a.M.V.V.V.V.V.L.a.D.[.U.U.U.V.M.M.M.s.e.e.e.e.q.q.e.a.e.q._ -.q.M.f.f.f.f.f.f.f.r.r.-.E ) *.*.=.e.r.q.3 ",
"& &.a.e.=.*.*.*.E %.f.s.s.s.N.V.V.V.V.V.e.[._.U.Q.P.M.M.N.s.q.*._ -.e.r.e.q.q.q.e.*.-.-.f.f.f.f.f.f.f.s.e.r._ W %.*.*.-.e.a.&.y ",
"& ~ s.e.-.*.*.*.( W e.s.s.s.a.N.V.V.G.f.z.[.!.U.U.N.M.N.s.q._ ) _ ) *.-.e.e.e.q.e.-.-.-.e.M.f.f.f.m.s.e.r.q.W ( *.*.*.,.e.s.[ y ",
"& w r.r.q.*.*.*._ E *.u.u.a.s.s.N.V.L.e./.[.U.U.V.f.N.f.q.*.-.f.M.-._ ) *.q.e.e.e.q.*.q.-.f.f.f.f.s.e.e.r.*.E _ *.*.*.q.r.r.m : ",
"; g :.a.e.-.*.*.*.( ( q.r.e.r.u.a.M.N.i.[._.U.P.l.N.s.-.-.a.N.N.M.M.a.-._ _ *.q.e.r.*.q.-.a.M.f.a.e.e.r.q.W ( *.*.*.-.e.a.2.k = ",
"# f +.s.e.q.*.*.*._ E _ r.e.e.e.e.r.-.Y.[.(.P.B.M.e.*.q.f.M.f.f.f.f.M.f.r.-.%._ *.q.-.-.q.q.f.r.e.e.e.r._ E _ *.*.*.q.e.s.O.f : ",
"& p h ;.r.e.=.*.*.*.( E -.r.e.e.r.e.,.[.[.!.V.a.-.q.f.M.f.f.f.f.f.f.f.f.M.f.e.-.*.%.%._ e.=.e.e.e.e.r.-.E ( *.*.*.=.e.r.;.x k : ",
"& 2 1 ] s.e.q.*.*.*.*.( ( q.r.e.r.-.z.[.[.N.-.-.s.M.f.f.f.f.f.f.f.f.f.f.f.f.M.f.e.=.*.*.r.-.-.r.e.r.q.( ( *.*.*.*.q.e.s.] s p = ",
"  o o $ =.a.e.=.*.*.*._ E ) e.r.e.-.'.^.r.=.q.r.r.r.a.s.f.f.f.f.f.f.f.f.f.f.s.s.a.e.-.=.-.e.=.e.r.e.( E _ *.*.*.=.e.a.=.+ % % X ",
"a i i i q s.e.q.*.*.*.*.) E ) r.q.1.k.=.q.r.r.e.e.e.e.e.r.r.r.r.r.r.u.r.r.r.e.e.e.e.r.q.=.=._ q.r.) E ) *.*.*.*.q.e.a.q 1 i i i ",
"z c c b z ' s.e.-.*.*.*.*.) E _ -.*.-.r.r.e.e.e.r.r.r.r.r.r.e.e.e.e.e.e.r.r.r.r.e.e.e.r.r.q.=.=._ E ) *.*.*.*.-.e.s.' z b n z c ",
"U L U U L M q.r.e.=.*.*.*.*.) E ( q.a.e.e.e.e.e.e.r.e.e.e.e.e.e.e.e.e.r.e.e.r.e.e.e.e.e.e.a.q.( E ) *.*.*.*.=.e.r.q.C P J J U U ",
"J J L U U J F a.r.q.*.*.*.*.*.) W ( -.r.r.e.e.e.e.e.e.e.e.e.e.e.e.e.e.e.r.e.e.e.e.e.e.r.r.-.( W ) *.*.*.*.*.q.r.a.F U P P L U U ",
"L L J L J Z I { s.e.,.*.*.*.*.*._ ( E _ q.r.r.r.e.r.r.e.e.e.e.e.e.e.e.e.e.e.e.e.e.r.r.q._ E ( _ *.*.*.*.*.-.r.s.{ J P J L J L U ",
"J c P J L L J J | s.r.-.*.*.*.*.*.*.( E ( *.q.r.r.r.e.e.e.e.e.e.e.e.e.e.e.e.r.r.r.q.%.W E ( *.*.*.*.*.*.-.e.s.} Z Z U J L U J L ",
"L U L J L U V Z J  .s.r.-.*.*.*.*.*.*._ ( E W _ -.q.r.r.r.r.r.r.r.r.r.r.r.r.q.-.) W E ( _ *.*.*.*.*.*.=.e.s. .J Z K J J J P U U ",
"L P U L L U c J J Z | s.r.,.*.*.*.*.*.*.*._ ( W E ( ) %.=.-.,.q.q.q.-.=.*.) ( E W ( _ *.*.*.*.*.*.*.-.r.s.| Z J J Z P Z J J U U ",
"J J L L Y L L I L J L [ t.a.q.=.*.*.*.*.*.*.*.*._ ( ( E E E E E W W E E E ( ( _ *.*.*.*.*.*.*.*.*.-.a.t.+.J Z K J J K J J V P Z ",
"L J L Z J U L J J J Z c e q.s.e.-.*.*.*.*.*.*.*.*.*.*.%._ _ ) ) ) ) _ _ %.*.*.*.*.*.*.*.*.*.*.=.q.s.,.e c c P P Z c Z Z Z Z J L ",
"J J J J L L J J J c L Z x A ^ a.a.q.-.*.*.*.*.*.*.*.*.*.*.*.*.*.*.*.=.=.*.*.*.*.*.*.*.*.*.=.,.a.a.^ C Z Z Z Z V x Z Z V c K L Z ",
"V V c V L L J L J J x c c x s 0 :.s.a.q.-.*.*.*.*.*.*.*.*.*.*.*.*.*.*.*.*.*.*.*.*.*.*.=.q.a.s.:.4 g V Z c l c x c Z J c J V L Z ",
"J V V c J Z c L c J c c J J s * 2 [ ;.s.s.e.q.-.=.*.*.*.*.*.*.*.*.*.*.*.*.*.*.*.=.-.e.s.s.;.r # & g x x l x c x Z V x V c c V J ",
"V V c c V V c Z c x c x c z a % 3 g x o.2.e.f.s.r.q.q.-.-.=.=.=.=.=.=.-.-.,.q.r.s.f.e.2.o.l j O # p x g g V l x l x x x x c x c ",
"u u p u u p p s u a u p i p i - 2 2 p s u 9 ] ' ;.r.a.s.a.a.r.r.r.r.a.a.s.s.r.;.' r 9 p p g a O & & 1 3 3 3 < 1 1 1 < u u g u p ",
"% # & % & @ % % % & & % % & % - + % # & % # % @ > 8 6 / Q %.=.-.-.=.%.Q / 6 8 > % & & & & & : o o o o @ + o O @ @ + @ @ @ @ % @ "
};
