/* XPM */
static char *rcp05293494250633[] = {
/* columns rows colors chars-per-pixel */
"64 64 59 1 ",
"  c #222222",
". c #222224",
"X c #252120",
"o c #463C3B",
"O c #493B3A",
"+ c #493B38",
"@ c #463C3A",
"# c gray13",
"$ c #212322",
"% c #473B3B",
"& c #4A3A3A",
"* c #232122",
"= c #232220",
"- c #262020",
"; c #4A2323",
": c #632F2F",
"> c #473C3A",
", c #281F20",
"< c #252122",
"1 c #26211E",
"2 c #28201E",
"3 c #453D3B",
"4 c #705E5A",
"5 c #715E58",
"6 c #725D58",
"7 c #4C3A38",
"8 c #745D57",
"9 c #775C55",
"0 c #4A3C3B",
"q c #944646",
"w c #F77575",
"e c #775B57",
"r c #C65E5E",
"t c #202221",
"y c black",
"u c #775C53",
"i c #B1970A",
"p c #4A3B38",
"a c #FDD90F",
"s c #222220",
"d c #785B55",
"f c #282627",
"g c #514C4F",
"h c #755C57",
"j c #6C656A",
"k c #363235",
"l c #877E84",
"z c #7F6D07",
"x c #FFDA0F",
"c c #4C4104",
"v c #FCDBCB",
"b c #655851",
"n c #CAAFA2",
"m c #4B413C",
"M c #291F1D",
"N c #4C3A36",
"B c #4D3A36",
"V c #725E57",
"C c #745C58",
/* pixels */
"  ..       XoOOoX              XoOOOOOOOOO+@X  XoOOoX           ",
"  ..     # XoOOoX              XoOOOOOOOOO+@X #XoOOoX #         ",
"      $$   XoOOoX              X%&OOOOOOOOOoX* XoO&%X ..    $$  ",
"    =X==XXX-%OO%-XXXXX;;;;;:::::::::::;;;;;>,XX-%O&%-X<<XXXX1112",
"   =3oooooo%OOOO%ooooo;;;;;:::::::::::;;;;;O>oo%OOOO>@oooooO4556",
"   XoOOOOOOOOOOOOOOOOO;;;;;:::::::::::;;;;;+OOOOOOOO++OOOOO78999",
"   XoO0OOO++OO&&OOOOOO;;;;;:::::::::::;;;;;OOOOOOOOOOOOOOOO78999",
"XXX-%OOOOO++OOOOOO;;;;qqqqqwwwwwwwwwwwqqqqq;;;;OOOOOOOOOOOO78999",
"ooo%OOOOOOOOOOOOOO;;;;qqqqqwwwwwwwwwwwqqqqq;;;;OOOOO&&OOOOO78999",
"OOOOOOOOOOOOOO>>OO;;;;qqqqqwwwwwwwwwwwqqqqq;;;;OOOOO&&OOOOO78999",
"OOOOOOOOOOOOOOOOOO;;;;qqqqqwwwwwwwwwwwqqqqq;;;;OOOOOOOOOOOO78999",
"OOOOOOOOOOOOO;;;;;qqqqwwwwwwwwwwwwwwwwwwwwwqqqq;;;;;OOOOOOO78999",
"OOOOOOOOOOOOO;;;;;qqqqwwwwwwwwwwwwwwwwwwwwwqqqq;;;;;OOOOOOO78999",
"OOOOOOOOOOOOO;;;;;qqqqwwwwwwwwwwwwwwwwwwwwwqqqq;;;;;OOOOOOO78999",
"OOOOOOOOOOOOO;;;;;qqqqwwwwwwwwwwwwwwwwwwwwwqqqq;;;;;OOOOOOO789ee",
"ooo:::::::::::::::rrrrrrrrrrrrrrrrrrrrrrrrrrrrr:::::::::::::::ee",
"==X:::::::::::::::rrrrrrrrrrrrrrrrrrrrrrrrrrrrr:::::::::::::::99",
"$t :::::::::::::::rrrrrrrrrrrrrrrrrrrrrrrrrrrrr:::::::::::::::99",
"   :::::::::::::::rrrrrrrrrrrrrrrrrrrrrrrrrrrrr:::::::::::::::99",
"XXX:::::rrrrrrrrrrrrrryyyyyrrrrrrrrrrryyyyyrrrrrrrrrrrrrr:::::99",
"@@o:::::rrrrrrrrrrrrrryyyyyrrrrrrrrrrryyyyyrrrrrrrrrrrrrr:::::uu",
"++O:::::rrrrrrrrrrrrrryyyyyrrrrrrrrrrryyyyyrrrrrrrrrrrrrr:::::uu",
"OOO:::::rrrrrrrrrrrrrryyyyyrrrrrrrrrrryyyyyrrrrrrrrrrrrrr:::::99",
"ooo%OOOO;;;;;iiiiiqqqqyyyyyrrrrrrrrrrryyyyyqqqq;;;;;;;;;;OOp6888",
"XXX-%OOO;;;;;iiiiiqqqqyyyyyrrrrrrrrrrryyyyyqqqq;;;;;;;;;;O++p777",
"   XoOOO;;;;;iiiiiqqqqyyyyyrrrrrrrrrrryyyyyqqqq;;;;;;;;;;O++OOOO",
"   XoOOO;;;;;iiiiiqqqqyyyyyrrrrrrrrrrryyyyyqqqq;;;;;;;;;;OOOOOOO",
"   XoOOOOOOOOaaaaa;;;;qqqqqqqqqqqqqqqqqqqqq;;;;OOOOOOOOOOOOOp777",
"   XoOOOOOOOOaaaaa;;;;qqqqqqqqqqqqqqqqqqqqq;;;;O++OOOOOOOOOp6888",
"   XoOOOOOOOOaaaaa;;;;qqqqqqqqqqqqqqqqqqqqq;;;;O++OOOOOOOOO78999",
"  sX%&OOOOOOOaaaaa;;;;qqqqqqqqqqqqqqqqqqqqq;;;;OOOOOOOOOOOO789dd",
"  sX%&OOOOOOOfffffgggg;;;;;;;;;;;;;;;;;;;;;ggggfffffOOOOOOOp68hh",
"   XoOOOOOOOOfffffgggg;;;;;;;;;;;;;;;;;;;;;ggggfffffOOOOOOOOp777",
" # XoOOOOOOOOfffffgggg;;;;;;;;;;;;;;;;;;;;;ggggfffffOOOOOOOOOOOO",
"   XoOOOOOOOOfffffgggg;;;;;;;;;;;;;;;;;;;;;ggggfffffOOOOOOOOOOOO",
"XXX-%OOOOOOOOfffffgggg;;;;;;;;;;;;;;;;;;;;;ggggfffffOOOOOOOOp777",
"ooo%OOOOfffffgggggjjjjgggggggggggggggggggggjjjjgggggfffffOOp6888",
"OOOOOOOOfffffgggggjjjjgggggggggggggggggggggjjjjgggggfffffOO78999",
"OOOOOOOOfffffgggggjjjjgggggggggggggggggggggjjjjgggggfffffOO78999",
"OOOOOOOOfffffgggggjjjjgggggggggggggggggggggjjjjgggggfffffOO78999",
"OOOkkkkkjjjjjjjjjjjjjjjjjjjjjjjjjjjjjjjjjjjjjjjjjjjjjjjjjkkkkk99",
"OOOkkkkkjjjjjjjjjjjjjjjjjjjjjjjjjjjjjjjjjjjjjjjjjjjjjjjjjkkkkk99",
"OOOkkkkkjjjjjjjjjjjjjjjjjjjjjjjjjjjjjjjjjjjjjjjjjjjjjjjjjkkkkk99",
"oookkkkkjjjjjjjjjjjjjjjjjjjjjjjjjjjjjjjjjjjjjjjjjjjjjjjjjkkkkk88",
"XXXkkkkkllllljjjjjkkkkzzzzzxxxxxxxxxxxzzzzzzzzzccccclllllkkkkk77",
"   kkkkkllllljjjjjkkkkzzzzzxxxxxxxxxxxzzzzzzzzzccccclllllkkkkkOO",
" # kkkkkllllljjjjjkkkkzzzzzxxxxxxxxxxxzzzzzzzzzccccclllllkkkkkOO",
"   kkkkkllllljjjjjkkkkzzzzzxxxxxxxxxxxzzzzzzzzzccccclllllkkkkkOO",
"  .<oOOOkkkkkkkkkkvvvvvvvvvvvvvvvvvvvvvvvvvvvvvkkkkkkkkkkOOOOOOO",
"  .<oOOOkkkkkkkkkkvvvvvvvvvvvvvvvvvvvvvvvvvvvvvkkkkkkkkkkOOOOOOO",
"   XoOOOkkkkkkkkkkvvvvvvvvvvvvvvvvvvvvvvvvvvvvvkkkkkkkkkkOOOOOOO",
"   XoOOOkkkkkkkkkkvvvvvvvvvvvvvvvvvvvvvvvvvvvvvkkkkkkkkkkOOOp777",
"  .<oOOOOOOOObbbbbvvvvvvvvvnnnnnnnnnnnvvvvvvvvvbbbbbOOOOOOOp6888",
"  .<oOOOOOOOObbbbbvvvvvvvvvnnnnnnnnnnnvvvvvvvvvbbbbbOOOOOOO78999",
"   XoOOOOO>>ObbbbbvvvvvvvvvnnnnnnnnnnnvvvvvvvvvbbbbbOOOOOOO78999",
"   XoOOOOO>>ObbbbbvvvvvvvvvnnnnnnnnnnnvvvvvvvvvbbbbbOOOOOOO78999",
"   XoOOOOOOOOmmmmmnnnnnnnnnbbbbbbbbbbbnnnnnnnnnmmmmmOOOOOOO78999",
" # XoO0OOOOOOmmmmmnnnnnnnnnbbbbbbbbbbbnnnnnnnnnmmmmmOOOOOOO78999",
"   X@+OOOOOOOmmmmmnnnnnnnnnbbbbbbbbbbbnnnnnnnnnmmmmmOOOOOOO78999",
"222MpN77777pOmmmmmnnnnnnnnnbbbbbbbbbbbnnnnnnnnnmmmmm7777777Bh999",
"VV6C88888886p>OOOOmmmmmmmmmp6888hh8888mmmmmmmmmp68888888888h9999",
"uudd9999uu98p>OOOOmmmmmmmmm78999dd9999mmmmmmmmm78999999999999999",
"9999999999987OOO&&mmmmmmmmm789999999eemmmmmmmmm78999999999999999",
"9999999999987OOO&&mmmmmmmmm789999999eemmmmmmmmm78999999999999999"
};