/* XPM */
static char *rcp12023498169109[] = {
/* columns rows colors chars-per-pixel */
"64 64 247 2 ",
"   c #040103",
".  c #0A0104",
"X  c #000B04",
"o  c #060208",
"O  c #0B030A",
"+  c #070A0B",
"@  c #160206",
"#  c #150E14",
"$  c #1C1416",
"%  c #1A1419",
"&  c #1A1818",
"*  c #0D110E",
"=  c #250101",
"-  c #2C0202",
";  c #290B0B",
":  c #330201",
">  c #3B0201",
",  c #380B09",
"<  c #3A160D",
"1  c #291918",
"2  c #341A1B",
"3  c #3B1A1B",
"4  c #381714",
"5  c #2B130D",
"6  c #38231C",
"7  c #242118",
"8  c #161C22",
"9  c #251E23",
"0  c #371E29",
"q  c #1A322B",
"w  c #252026",
"e  c #2B2225",
"r  c #272228",
"t  c #2D252A",
"y  c #2D2B2D",
"u  c #232B27",
"i  c #32262D",
"p  c #332A2D",
"a  c #3A2827",
"s  c #38322D",
"d  c #2D2B31",
"f  c #2B2534",
"g  c #332D32",
"h  c #3B2E32",
"j  c #3C2835",
"k  c #2C3233",
"l  c #353136",
"z  c #3A3234",
"x  c #3C353A",
"c  c #3D393E",
"v  c #383539",
"b  c #28312D",
"n  c #440101",
"m  c #4B0102",
"M  c #470909",
"N  c #570406",
"B  c #461619",
"V  c #571816",
"C  c #520B19",
"Z  c #670304",
"A  c #790206",
"S  c #7A0813",
"D  c #6A1819",
"F  c #791519",
"G  c #6E0B13",
"H  c #48231C",
"J  c #572C1C",
"K  c #681B28",
"L  c #781424",
"P  c #4D2C2B",
"I  c #462827",
"U  c #522B2A",
"Y  c #582827",
"T  c #48332B",
"R  c #55322B",
"E  c #482C34",
"W  c #433535",
"Q  c #42353D",
"!  c #443B3D",
"~  c #4B3B3C",
"^  c #493836",
"/  c #583737",
"(  c #542E36",
")  c #67272A",
"_  c #7A2824",
"`  c #643C3B",
"'  c #693737",
"]  c #753839",
"[  c #6F2F34",
"{  c #5C1E23",
"}  c #38423F",
"|  c #4B423C",
" . c #47443E",
".. c #53433D",
"X. c #5D4138",
"o. c #68463C",
"O. c #77453C",
"+. c #3F3A40",
"@. c #383643",
"#. c #392F40",
"$. c #443D42",
"%. c #493E43",
"&. c #493A48",
"*. c #533E4B",
"=. c #593A44",
"-. c #402F40",
";. c #6F3B43",
":. c #3D4243",
">. c #3B4547",
",. c #454146",
"<. c #4B4245",
"1. c #464249",
"2. c #4B444B",
"3. c #444A4A",
"4. c #4D494E",
"5. c #4A4A44",
"6. c #534443",
"7. c #51454D",
"8. c #544B4C",
"9. c #594948",
"0. c #4C524C",
"q. c #57534C",
"w. c #4D4C52",
"e. c #494852",
"r. c #544351",
"t. c #534B52",
"y. c #5A4E54",
"u. c #5A4654",
"i. c #475153",
"p. c #595658",
"a. c #674D4A",
"s. c #665756",
"d. c #725E59",
"f. c #6F4C4C",
"g. c #62615E",
"h. c #7C635E",
"j. c #5C5D60",
"k. c #645D62",
"l. c #695E63",
"z. c #5D6360",
"x. c #646464",
"c. c #6A6264",
"v. c #6B6569",
"b. c #6D696B",
"n. c #696965",
"m. c #716B6D",
"M. c #766666",
"N. c #79706C",
"B. c #766D72",
"V. c #797375",
"C. c #5E615D",
"Z. c #850002",
"A. c #8A0102",
"S. c #88030C",
"D. c #980007",
"F. c #960716",
"G. c #861818",
"H. c #8B0C14",
"J. c #A6020B",
"K. c #AA0314",
"L. c #B30718",
"P. c #A2101E",
"I. c #8E1621",
"U. c #B61929",
"Y. c #A91426",
"T. c #97393B",
"R. c #8B2D30",
"E. c #AF2127",
"W. c #86221A",
"Q. c #C01829",
"!. c #CD2535",
"~. c #83443D",
"^. c #963C43",
"/. c #894645",
"(. c #974A4A",
"). c #9A5755",
"_. c #8D534F",
"`. c #A5454C",
"'. c #AB4E55",
"]. c #A65A5C",
"[. c #B5575C",
"{. c #AC4F51",
"}. c #88655C",
"|. c #98685C",
" X c #A4615C",
".X c #AA5F61",
"XX c #B95A63",
"oX c #86736C",
"OX c #877876",
"+X c #977A75",
"@X c #8E6764",
"#X c #A86265",
"$X c #B66666",
"%X c #B9776F",
"&X c #945F61",
"*X c #C57573",
"=X c #CF7374",
"-X c #C25D5E",
";X c #91827C",
":X c #B58473",
">X c #D1827D",
",X c #877E83",
"<X c #927E8D",
"1X c #8A8487",
"2X c #988E8C",
"3X c #A39C9A",
"4X c #B69C97",
"5X c #A99288",
"6X c #ACA29B",
"7X c #BBA89C",
"8X c #ACA6A6",
"9X c #B2AAA8",
"0X c #B8B4AC",
"qX c #BCB6B5",
"wX c #B4AEAD",
"eX c #A89FA2",
"rX c #D98685",
"tX c #D69489",
"yX c #E58788",
"uX c #E88F8D",
"iX c #C8A79C",
"pX c #C6ACA4",
"aX c #CBB4A7",
"sX c #D5B9AA",
"dX c #C5BBBB",
"fX c #D6B8B1",
"gX c #CDC1B9",
"hX c #E7C8B9",
"jX c #F3D5BD",
"kX c #E5C7B1",
"lX c #C7BEC0",
"zX c #CAC6C4",
"xX c #D3CDC8",
"cX c #D7D2CF",
"vX c #E8D6C4",
"bX c #F7DAC7",
"nX c #EBD6CE",
"mX c #FDE1CC",
"MX c #FBE3D4",
"NX c #EAE1DB",
"BX c #EADEE3",
"VX c #ECE5E9",
"CX c #F5E7E7",
"ZX c #F8F6EB",
"AX c #FFFCFD",
"SX c #FAF5F5",
"DX c #F4EEEF",
/* pixels */
"  + *   O O o #   X X   . @ = @ .     X * * +   O @ @ @ O o X + . .   X X X X X X     O @ @ @ O O       O + O   *   O O   O +   ",
"X u d y g g f l d k k d p a I I a p g d b b y y p i i i i y y y i p y b q q q q k y i E E 0 i j g t t d g g g y d w t t 9 t w + ",
"X b c $.7.2.$.1.>.3.3.5.~ T P U ( ( / ^ W c ! ,.%.%.%.%.$.$.:.:.<.,.:.} } } :.:.$.~ / =.( I E %.$.$.+.$.1.1.$.$.c l x c g l y # ",
"  u c $.7.2.$.1.:.:.:.,.W a 3 B C C B B I ^ ~ ~ ,.,.,.,.1.1.,.:.,.:.:.} } } %.%.E H B B B 3 3 a x x x +.$.$.+.c c l c c g d 9   ",
"X b c $.7.*.&.e.1.:.:.5.W 2 , M N N m M Y / 9.6.1.1.2.4.e.e.2.1.3.3.>.1.2.6.=.;.K C m n M , 4 3 Q $.$.$.$.$.$.$.,.+.,.,.l g w   ",
"+ b c Q *.*.&.t.w.1.3.8.~ 2 ; M Z Z Z G ) ' ` 6.5.2.4.i.w.w.e.e.i.i.i.w.u.=.;.] L G N N N n M 3 %.2.4.4.2.2.2.4.4.,.2.2.v l r o ",
"X u x Q 7.*.&.t.w.1.3.8.~ 2 - n A S.H.H.F D Y P | 5.3.i.w.w.r.e.i.i.w.7.=.[ K L H.H.H.S Z m > 4 ~ 2.4.4.2.<.2.4.4.,.2.,.g g w   ",
"  u c %.u.u.7.t.w.1.2.y.~ 2 - m S.L.U.P.S N C H ..5.0.i.w.u.r.r.i.i.w.7./ K G A F.Y.U.Y.S m > 4 ~ 2.4.w.2.1.2.4.t.<.2.1.l g t o ",
"  y ! Q *.u.r.u.w.4.t.8.~ 2 - n S.Q.!.Y.Z.Z N B X.9.q.0.t.y.u.u.>.>.2.9.' K A A F.L.Q.U.S N > < ~ <.2.2.<.1.2.4.4.,.2.1.l g w o ",
"  y ! Q *.u.r.u.w.4.t.8.~ 2 - n A.L.Q.L.D.S.G D R ^  .5.<.6.=.=.2.1.<./ ) F A Z.K.L.U.Y.A N > < ~ <.2.2.<.<.2.4.4.,.2.1.l g w o ",
"  y ! Q *.u.r.u.w.4.t.8.~ 3 - n A D.K.K.K.P.I._ Y T T ^ ~ / ` / %.^ E Y K F F.J.L.L.K.F.A m > < ~ 1.2.4.2.<.2.4.4.,.2.1.l g w o ",
"  y ! Q *.u.r.u.w.4.t.8.~ 3 : n Z A.D.J.L.U.E.R.V B 6 I T U Y Y E I B V D I.E.U.L.J.D.Z.Z m > 4 ~ 1.4.4.2.<.2.2.4.,.2.1.l g w o ",
"  y ! Q *.u.r.u.t.4.t.8.^ 3 : > Z A A.D.L.U.U.I.Z M < H R Y Y ) ' Y B N G G.E.U.L.J.A.A N n : 4 ! 1.4.4.4.2.<.2.4.,.2.,.l g w o ",
"  y ! Q *.u.r.u.t.4.t.8.^ 3 : > N Z Z.D.J.L.L.F.F V J o._./././._.O.) D G G.F.J.J.D.A.A N > : 1 ! 1.4.w.4.2.<.<.4.,.2.,.l g w o ",
"  y ! Q *.u.r.u.t.4.t.8.^ 3 : : n Z S.A.D.J.K.F.R._ O.|.:X:X%X*X%X XT._ F H.A.A.D.D.A.A N > - 1 ! ,.4.t.4.2.<.1.4.,.2.,.l g w o ",
"  p ! Q *.u.r.u.t.4.t.8.^ 2 - - > N F S.Z.A.D.F.R._ ~.%XtXtXrXuXrX%X(.R.W.G.A A Z.Z.A G m - ; 1 ! ,.4.t.4.2.1.1.4.,.2.,.l g w o ",
"  p Q x 2.u.r.y.y.y.t.4.! p 1 ; H n m G F S S G.R.T.(.$X>XuXuXyXyX$X`.T.R.G.S G.S Z N M , ; 1 i 4.2.2.2.2.2.4.4.4.,.2.1.l g w o ",
"  i Q x 2.t.7.t.t.t.t.t.7.%.Q W H > > C D L R.T.$X$X*X=XrXyXyXyXyX=X=X=X-XT.G.F D N n , H I h z 4.4.2.2.2.2.4.4.4.,.2.,.l g w o ",
"  i Q x <.t.7.t.t.t.t.y.y.y.t.8.I , : m D W.T.'.rXrXtXtXrXyXyXyXuXyXyXuX=X{.R._ D m - , U 6.6.%.4.4.2.2.<.2.4.4.4.,.2.,.l g w o ",
"  i $.x <.t.2.t.t.t.t.t.t.t.t.8.P < > M D R.^.'.=XrXrXrX>X>XyXyXrXrXrXrX=X{.T.R.D n = ; P 9.7.,.4.4.2.2.2.2.4.4.4.,.2.,.l g w o ",
"  i Q x %.7.2.7.y.t.t.t.7.t.t.8.R H B V [ ^.`.'.$X%X*X*X*X*X=X=X*X*X*X*X$X{.(.(.[ V : 4 T 6.5.1.4.4.2.2.2.2.4.4.4.,.2.,.l g w o ",
"  i Q x %.4.<.4.t.t.t.t.t.y.y.y./ U { ) /.].].].$X$X$X$X$X[.[.[.].#X$X$X$X].].).O.Y B H ^ | 1.2.4.4.2.2.2.2.4.4.4.,.2.,.l g w o ",
"o g Q x %.4.<.4.7.t.t.t.t.t.t.8./ U Y [ _..X#X].).).).].].[.{.'.].).).).]. X X).O.Y 4 6 ^ 5.2.2.4.4.2.2.2.2.4.4.4.,.2.,.l g w o ",
"o g Q x $.2.%.2.7.t.7.7.4.<.$.~ ~ R Y ' /.).].).O.O./.(.].[.[.[.]._.] ] ~.).|.|.O.H 5 2 W 5.2.1.4.4.2.<.2.2.4.4.4.,.2.,.l g w o ",
"O g x x <.t.2.2.2.<.2.7.7.2.<.<./ P U Y f.#X#X] > : M /.#X].{.[.).] M : M ' _.}.o.I 4 6 W <.,.c p.4.,.4.t.4.2.2.4.,.2.,.l g w o ",
"O g x x <.t.2.2.2.2.2.7.t.t.t.y...R / ` f.#X#X] > = > ] #XXX[.XX].] > = > ' }.|.f.T 5 a ~ 2.w.t.y.4.<.4.4.1.1.2.4.,.2.,.l g w o ",
"O i x x &.t.<.2.t.t.7.4.2.7.7.7.^ I P ` f.&X&X' : = : [ ].$XXXXX#X] : = : ' }.}.o.6 ; a <.2.4.t.t.2.2.4.2.$.$.4.4.,.2.,.l g w o ",
"O i x z &.7.<.2.2.t.t.4.7.t.7.<.~ a a P ` _.f.Y = @ : [ ].$XXX[.#X] > = : Y O.f.X.2 5 h 7.7.&.4.4.2.4.4.,.c $.4.4.,.2.,.l g w o ",
"O i x z &.7.&.2.$.4.t.4.7.y.y.2.6.a 2 I U ` ` B @ @ : ' .X$XXX[.#X] > = = H ` ` / 6 1 a ~ %.*.t.4.2.4.4.,.c $.4.4.,.2.,.l g w o ",
"o t x z %.4.&.<.2.t.t.$.$.t.t.<.! 6 6 I P / ` U @ @ , ' ].XXXX'.].] , = = H ` o.T I a 2 i %.r.t.t.2.2.4.2.$.$.4.4.,.2.,.l g w o ",
"  t x h $.4.%.<.t.p.t.<.t.B.,X,XN.M.oXM.` R / R 4 4 I ' /.`.`.`.(.] V > , H R R o.h.oXM.B.<X<XOXy.4.<.4.4.<.1.2.w.,.2.,.l g w o ",
"  t x h $.4.%.<.%.t.y.y.V.qXBXDXNXNXCXfX}.P H B / / / ' ] R.R.R.] ;.' ) Y U H < oXfXCXCXBXDXBXdXp.4.,.4.t.4.2.2.4.,.2.,.l g w o ",
"o t z g %.2.<.<.%.<.y.%.V.cXDXDXZXZXSXNX}.5 4 R X.` ` ' ] ] ] ] ' ' ' ` / U H 2 M.CXAXSXAXAXAXdXb.1.2.$.1.2.x t.2.$.<.,.l g w   ",
". t z g ! 2.<.<.<.5.p.2.B.zXDXAXSXZXSXvXoXa 6 I / / ' ' ' ' [ ' ' ` ` / ( P I a oXNXZXDXZXDXZXzXb.p.p.,.$.2.$.p.2.$.<.,.l g w   ",
". i z g ! 2.<.<.7.c.eX9XqXxXzXcXxXxXxX0XoXa...T P P U U Y Y Y Y U U P P P R / ..N.gXcXxXxXzXcXzXwX8X8Xv.1.t.$.4.2.$.<.,.l g w   ",
". i z g ! 2.<.<.7.1XVXAXSXcX8X9X9X9X0X6XOXM.h.9.2 3 3 3 3 3 B B 3 2 3 3 T ..a.d.N.6X0X0X0X9X0XgXSXAXVX1Xw.y.1.1.2.$.1.,.l g w   ",
". t z g ! 2.<.<.7.,XVXAXVXzX8XlXqX0XqX6XOXN.M.9.2 2 2 2 2 2 2 2 2 1 1 6 T 6.s.M.;X3X9X9X0X0X9XzXDXAXSX1X1.t.2.2.2.$.1.,.l g w   ",
". t z p ! 2.<.<.<.,XVXAXBXzX8XlX9X3X3X2XV.c.l.y.h h h h h h h h h s p s W 8.s.n.;X1X6X2X8XqX8XzXVXAXDX,X+.2.$.,.2.$.1.,.l g w   ",
". t z p ! 2.<.<.%.1XDXAXDXcX8X8X2XB.m.OXm.l.c.s.<.<.<.<.5.<.<.1.5. . . .5.q.g.n.b.m.;Xm.2XqX8XdXSXAXDX1X$.1.x $.2.$.<.,.l g w   ",
". t z p ! 2.<.<.%.1XVXSXBXcX9X9X2Xl.s.B.B.c.c.k.t.t.t.t.t.t.t.t.4.5.0.q.p.g.n.m.x.p.b.q.;XgX9XgXSXAXVX1X4.2.$.2.2.$.<.,.l g w   ",
"O e h z <.2.<.7.<.2XBXSXBXdXwXwX2XB.k.l.B.B.v.k.w.w.w.w.4.4.4.4.:.3.5.5.0.C.n.g.x.g.n.V.1X3X9XqXVXSXcX1Xw.,.2.<.2.,.4.2.l g w O ",
"O e h z <.2.<.7.! l.1X1X,XOX1X1X,Xm.k.c.m.b.c.k.j.j.j.j.j.p.p.p.p.z.z.p.p.n.b.x.x.C.g.b.V.OX1X1X,X1X,Xp.$.$.<.$.2.$.4.2.l g w o ",
"o e g z <.5.<.7.<.%.! x <.s.v.v.B.v.c.v.b.v.v.v.x.x.x.x.x.x.x.x.x.n.n.x.x.b.b.x.b.b.b.b.b.m.v.c.c x x $.<.4.2.1.2.$.4.<.l g w o ",
"o e g z <.<.%.7.5.! p p <.k.m.c.v.c.v.m.v.x.c.m.b.b.b.b.b.b.b.b.x.x.b.v.v.v.x.x.b.b.m.b.m.b.x.p.c d g ,.t.4.$.1.<.$.2.1.g d w   ",
". e g h %.<.%.7.! x p g 2.c.B.m.b.n.b.b.s.t.y.s.b.b.b.b.m.b.b.m.v.v.v.b.v.k.p.p.p.c.v.v.m.V.b.p.2.x l <.2.c v $.1.$.2.1.g d 9   ",
". e p h %.<.! 2.%.! g p %.c.OXOXm.b.n.g.8.! ! 5.c.c.c.c.c.c.c.c.m.c.c.c.s.7.$.! y.k.b.b.V.1XOXm.,.x v ,.1.+.+.4.,.$.2.,.g y 9   ",
". e p h %.<.%.2.5.%.z g <.c.OX1XN.b.x.p.8.! ! 5.v.M.M.M.M.M.M.M.B.M.M.m.l.7.Q x y.c.m.b.V.1X1Xm.$.c x $.1.2.2.2.,.$.2.,.g y 9   ",
". 9 p h %.<.! 2.<.! z z 7.v.V.V.m.n.g.s.q.6.9.s.OXOXOXOXOXOXOXOXOXOXOXOXoXs.8.8.9.s.c.k.v.V.V.k.$.c l l $.2.$.l ,.$.<.,.g y 9   ",
"O e p h ! %.! <.! ! %.<.5.5.5.1.8.4.z  .;XaXaX7XsXsXaXsXsXaXaXaXsXsXfXsXaXpX7X7X5X| z ! 2.w.$.w.$.$.$.$.$.1.<.2.1.+.$.$.g g w   ",
"o e p g %.%.! <.%.%.%.%.%.! ! ! v c s 6.5XvXvXhXjXjXjXjXjXjXjXbXbXbXbXbXbXvXvXvX5X| s x x +.f @.$.$.$.$.$.1.<.2.1.+.$.$.g g w   ",
"o e p g ! %.! <.%.%.%.%.! x z z y z s 9.6XMXMXmXmXmXmXbXbXbXmXmXbXbXbXmXmXmXMXMX5X..s z l v f v 1.$.$.$.$.,.1.<.1.+.$.$.g g w   ",
"o e p p ! %.! <.%.%.%.! ! x z z ! 1. .s.7XnXMXbXbXbXbXkXkXkXkXsXkXhXvXbXvXbXbXMX7X9.~ %.$.&.#.1.1.,.$.$.$.,.1.1.1.+.$.$.g g w   ",
". e p p ! ! Q %.! %.%.%.%.! ! ! t.p.y.M.9XMXMXbXbXbXjXsXaXaXaXiXsXhXbXbXbXbXmXMXpXd.9.8.7.r.&.t.<.1.,.$.$.$.,.1.<.+.$.$.g g w   ",
". 9 p p ! ! x %.! ! %.<.<.<.%.%.7.s.s.M.pXMXMXbXbXMXbXsXiXpXaXpXaXhXbXMXMXbXbXMXpXh.s.s.7.*.-.*.<.1.,.$.$.$.$.,.<.+.$.$.g g w   ",
". 9 p p ! ! x %.! %.%.<.<.%.%.%.%.y.9.d.4XvXvXhXhXbXhXiX5X5X5X5X5XiXfXvXvXhXhXvX7Xs.a.y.7.&.j &.<.<.1.$.$.$.$.$.<.+.$.$.g g w   ",
". 9 p p ! ! x %.%.%.%.%.%.%.! ! %.8.6.a.5XsXsXpXaXfXiX+X}.}.h.d.}.+XiXfXfXaXaXfX5Xa.9.y.7.*.Q *.2.<.1.$.$.$.$.$.<.+.$.$.g g w   ",
"O 1 p g z ! <.<.! ! ! ! ! ! ! ! <.! ^ a.2XaXfXpXiXaX4X@Xa.a.s.a.f.+X4XaXaXiXpXaX;Xs.T ^ u.u.*.r.<.1.1.1.1.1.1.1.$.$.c l g d 8 O ",
"o $ i g z ! <.%.<.<.<.<.<.<.<.<.%.! ~ s.;XpXaXpXpXaX4XoXs.s.s.9.s.OX4XpXpX7X7XpX;Xs.^ ~ r.*.&.*.$.$.$.$.$.$.$.$.$.,.$.x x g 8 O ",
"o $ p z x ! %.! %.%.%.%.%.%.%.%.<.<.<.9.d.oXOXoXoX+XoXs.6.8.t.7.6.a.M.oXOXoXoXoXM.9.~ ~ 7.&.&.*.$.$.$.$.$.$.$.$.$.1.,.c x g % o ",
"O 1 g x x ! %.! ! ! ! ! ! ! ! ! ,.1.<.^ ~ ....| T ..| W x $.,.,.z ^ ~ 6.....| ^ ..^ W ~ %.&.&.r.$.$.$.$.$.$.$.$.$.$.$.x x g %   ",
"@ 9 g z z Q ! x x x x Q Q x x x l c c c ! <.9.9.^ |  .W v v v l $.! ~ <.| | | | W s W ^ ! Q &.2.$.+.+.+.+.+.+.+.x c c x l g % O ",
"O 1 t t e i i i p p p p p p p p r d l l z ! | | ^ ! z v l k k d l l v z W !  .| s s s z g g g g g g g g g g g g d g g t y y % O ",
"  # $ # # # $ $ $ $ $ $ $ $ $ % & & & & # & $ * $ $ # & & & 8 8 * # % & # # & 7 $ 1 1 & $ % % % % % % % % % % % % % % # % % #   ",
"  o O     . O O         . .       X X     .     .         X X X   o +                     o O                             O     "
};
