/* XPM */
static char *rcp09525537718499[] = {
/* columns rows colors chars-per-pixel */
"64 64 81 1 ",
"  c #3C454C",
". c #5C646B",
"X c #BCC2C7",
"o c #C1C7CC",
"O c #A8B0B6",
"+ c #A4ACB2",
"@ c #A7AFB5",
"# c #BBC1C6",
"$ c #C0C6CB",
"% c #AFB6BB",
"& c #B3BABF",
"* c #B4BAC0",
"= c #ADB4BA",
"- c #BEC4CA",
"; c #AAB1B7",
": c #A5ADB3",
"> c #B8BFC4",
", c #AEB6BB",
"< c #838B91",
"1 c #5E676E",
"2 c #747C82",
"3 c #B5BCC1",
"4 c #B9BFC5",
"5 c #B6BCC2",
"6 c #A6AEB4",
"7 c #B4BBC1",
"8 c #ACB3B9",
"9 c #AEB6BC",
"0 c #B0B7BC",
"q c #ABB2B8",
"w c #B7BDC3",
"e c #B3BAC0",
"r c #ABB3B9",
"t c #AFB6BC",
"y c #B9BFC4",
"u c #8F969C",
"i c #B1B7BD",
"p c #AEB5BB",
"a c #A7AEB4",
"s c #A6ADB3",
"d c #B9C0C5",
"f c #B1B8BD",
"g c #BFC5CA",
"h c #ADB5BB",
"j c #A8AFB5",
"k c #A9B0B6",
"l c #BEC4C9",
"z c #B2B9BE",
"x c #AAB2B7",
"c c #B2B9BF",
"v c #BDC3C8",
"b c #B7BEC3",
"n c #ACB4B9",
"m c #ACB4BA",
"M c #BEC5CA",
"N c #B8BEC4",
"B c #ADB5BA",
"V c #0E071B",
"C c #C0C6CC",
"Z c #ABB3B8",
"A c #5AC54F",
"S c #99E65F",
"D c #A7AFB4",
"F c #C42430",
"G c #B4BBC0",
"H c #AFB7BC",
"J c #EA323C",
"K c #9EA5AC",
"L c #9FA7AE",
"P c #A5ADB4",
"I c #33984B",
"U c #A5ADB2",
"Y c #A2AAB0",
"T c #6C777E",
"R c #7E888F",
"E c #B7BDC2",
"W c #AAB2B8",
"Q c #949DA3",
"! c #515D66",
"~ c #6C767E",
"^ c #8C969C",
/* pixels */
"  .XooXO++@#oooooo$%+++&ooo*+++=ooooooooooo-;++:>oo$,+++*ooo<   ",
"  .XooXO++@#oooooo$%+++&ooo*+++=ooooooooooo-;++:>oo$,+++*ooo<   ",
"1123445@++67444444>8+++94440+++q44444444444wO++:e44>r+++t44yu111",
"iip@@@a++++6@@@@@@@:+++:@@@s+++:@@@@@@@@@@@@++++6@@@:+++:@@@qiii",
"ood:++++++++++++++++++++++++++++++++++++++++++++++++++++++++fooo",
"ood:++++++++++++++++++++++++++++++++++++++++++++++++++++++++fooo",
"gg>:++++++++++++++++++++++++++++++++++++++++++++++++++++++++0ggg",
"hhq+++++++++++++++++++++++++++++++++++++++++++++++++++++++++jhhh",
"++++++++++++++++++++++++++++++++++++++++++++++++++++++++++++++++",
"++++++++++++++++++++++++++++++++++++++++++++++++++++++++++++++++",
"++++++++++++++++++++++++++++++++++++++++++++++++++++++++++++++++",
"pp8+++++++++++++++++++++++++++++++++++++++++++++++++++++++++kppp",
"ood:++++++++++++++++++++++++++++++++++++++++++++++++++++++++fooo",
"ood:++++++++++++++++++++++++++++++++++++++++++++++++++++++++fooo",
"ood:++++++++++++++++++++++++++++++++++++++++++++++++++++++++fooo",
"ood:++++++++++++++++++++++++++++++++++++++++++++++++++++++++0lll",
"ood:++++++++++++++++++++++++++++++++++++++++++++++++++++++++6;;;",
"ood:++++++++++++++++++++++++++++++++++++++++++++++++++++++++++++",
"ood:++++++++++++++++++++++++++++++++++++++++++++++++++++++++++++",
"ood:++++++++++++++++++++++++++++++++++++++++++++++++++++++++++++",
"zzt+++++++++++++++++++++++++++++++++++++++++++++++++++++++++xccc",
"++++++++++++++++++++++++++++++++++++++++++++++++++++++++++++f$$$",
"++++++++++++++++++++++++++++++++++++++++++++++++++++++++++++fooo",
"++++++++++++++++++++++++++++++++++++++++++++++++++++++++++++fooo",
"xxk+++++++++++++++++++++++++++++++++++++++++++++++++++++++++fooo",
"vvb:++++++++++++++++++++++++++++++++++++++++++++++++++++++++fooo",
"ood:++++++++++++++++++++++++++++++++++++++++++++++++++++++++fooo",
"ood:++++++++++++++++++++++++++++++++++++++++++++++++++++++++fooo",
"$$>:++++++++++++++++++++++++++++++++++++++++++++++++++++++++fooo",
"ttn+++++++++++++++++++++++++++++++++++++++++++++++++++++++++fooo",
"++++++++++++++++++++++++++++++++++++++++++++++++++++++++++++fooo",
"++++++++++++++++++++++++++++++++++++++++++++++++++++++++++++fooo",
"++++++++++++++++++++++++++++++++++++++++++++++++++++++++++++fooo",
"mmq+++++++++++++++++++++++++++++++++++++++++++++++++++++++++mbbb",
"MMN:++++++++++++++++++++++++++++++++++++++++++++++++++++++++:666",
"ood:++++++++++++++++++++++++++++++++++++++++++++++++++++++++++++",
"ood:++++++++++++++++++++++++++++++++++++++++++++++++++++++++++++",
"ood:++++++++++++++++++++++++++++++++++++++++++++++++++++++++:666",
"ood:++++++++++++++++++++++++++++++++++++++++++++++++++++++++B444",
"ood:++++++++++++++++++++++++++++++++++++++++++++++++++++++++fooo",
"ood:++++++++++++++++++++++++++++++++++++++++++++++++++++++++fooo",
"ood:+++++++++++++++++++VVVVVVVVVVVVVVVVVV+++++++++++++++++++fCCC",
"ood:+++++++++++++++++++VVVVVVVVVVVVVVVVVV+++++++++++++++++++Zeee",
"ood:+++++++++++++++++++VVVVVVVVVVVVVVVVVV+++++++++++++++++++++++",
"ood:+++++++++++++++VVVVAAAAAAAAASSSSSSSSSVVV++++++++++++++++++++",
"ood:+++++++++++++++VVVVAAAAAAAAASSSSSSSSSVVV++++++++++++++++++++",
"XX5:+++++++++++++++VVVVAAAAAAAAASSSSSSSSSVVV++++++++++++++++:jjj",
"OOD+++++++++++++VVVAAAASSSAAAAAAAAASSSSSSSSSVVVV++++++++++++tXXX",
"++++++++++++++++VVVAAAASSSAAAAAAAAASSSSSSSSSVVVV++++++++++++fooo",
"++++++++++++++++VVVAAAASSSAAAAAAAAASSSSSSSSSVVVV++++++++++++fooo",
"++++++++++++++++VVVSSSSFFFAAAAAAFFFAAASSSSSSVVVV++++++++++++fooo",
"GGH+++++++++++++VVVSSSSFFFAAAAAAFFFAAASSSSSSVVVV++++++++++++fooo",
"ood:++++++++++++VVVSSSSFFFAAAAAAFFFAAASSSSSSVVVV++++++++++++fooo",
"ood:+++++++++VVVAAAAAAAJJJAAAAAAJJJAAAAAASSSSSSSVVV+++++++++fooo",
"ood:+++++++++VVVAAAAAAAJJJAAAAAAJJJAAAAAASSSSSSSVVV+++++++++fooo",
">>e:+++++++++VVVAAAAAAAJJJAAAAAAJJJAAAAAASSSSSSSVVV+++++++++B>>>",
"66:++++++++++VVVAAAAAAAAAAAAAAAAAAAAAAAAAAAAAAAAVVV+++++++++:666",
"+++++++++++++VVVAAAAAAAAAAAAAAAAAAAAAAAAAAAAAAAAVVV+++++++++++++",
"+++++++++++++VVVAAAAAAAAAAAAAAAAAAAAAAAAAAAAAAAAVVV+++++++++++++",
"KKLP66s++++:6VVVIIIAAAAAAAAAAAAAAAAAAAAAAAAAIIIIVVV6++++U666YKKK",
"TTRGEEGD++6&EVVVIIIAAAAAAAAAAAAAAAAAAAAAAAAAIIIIVVVEW+++pEEEQTTT",
"!!~vooXO++@#oVVVIIIAAAAAAAAAAAAAAAAAAAAAAAAAIIIIVVV$,+++*ooo^!!!",
"!!~vooXO++@#oo$8VVVVVVVVVVVVVVVVVVVVVVVVVVVVVVVVooo$,+++*ooo^!!!",
"!!~vooXO++@#oo$8VVVVVVVVVVVVVVVVVVVVVVVVVVVVVVVVooo$,+++*ooo^!!!"
};
