/* XPM */
static char *rcp09394380185932[] = {
/* columns rows colors chars-per-pixel */
"64 64 129 2 ",
"   c #3C454C",
".  c #5C646B",
"X  c #BCC2C7",
"o  c #C1C7CC",
"O  c #A8B0B6",
"+  c #A4ACB2",
"@  c #A7AFB5",
"#  c #BBC1C6",
"$  c #C0C6CB",
"%  c #AFB6BB",
"&  c #B3BABF",
"*  c #B4BAC0",
"=  c #ADB4BA",
"-  c #BEC4CA",
";  c #AAB1B7",
":  c #A5ADB3",
">  c #B8BFC4",
",  c #AEB6BB",
"<  c #838B91",
"1  c #5E676E",
"2  c #747C82",
"3  c #B5BCC1",
"4  c #B9BFC5",
"5  c #B6BCC2",
"6  c #A6AEB4",
"7  c #B4BBC1",
"8  c #ACB3B9",
"9  c #AEB6BC",
"0  c #B0B7BC",
"q  c #ABB2B8",
"w  c #B7BDC3",
"e  c #B3BAC0",
"r  c #ABB3B9",
"t  c #AFB6BC",
"y  c #B9BFC4",
"u  c #8F969C",
"i  c #B1B7BD",
"p  c #AEB5BB",
"a  c #A7AEB4",
"s  c #A6ADB3",
"d  c #B9C0C5",
"f  c #B1B8BD",
"g  c #BFC5CA",
"h  c #ADB5BB",
"j  c #A8AFB5",
"k  c #A9B0B6",
"l  c #BEC4C9",
"z  c #B2B9BE",
"x  c #AAB2B7",
"c  c #B2B9BF",
"v  c #BDC3C8",
"b  c #B7BEC3",
"n  c #ACB4B9",
"m  c #9EA1B1",
"M  c #908CAD",
"N  c #8A81AB",
"B  c #694CA4",
"V  c #552BA0",
"C  c #7268AA",
"Z  c #443AA6",
"A  c #2D22A4",
"S  c #2257B3",
"D  c #1066B9",
"F  c #ACB4BA",
"G  c #223BAC",
"H  c #0D6EBC",
"J  c #0288C4",
"K  c #BEC5CA",
"L  c #B8BEC4",
"P  c #0680C1",
"I  c #0284C7",
"U  c #027BCD",
"Y  c #0276D0",
"T  c #0361DF",
"R  c #0353E9",
"E  c #0369D9",
"W  c #044FEC",
"Q  c #0442F5",
"!  c #0446F2",
"~  c #ADB5BA",
"^  c #C0C6CC",
"/  c #ABB3B8",
"(  c #043EE6",
")  c #0336C7",
"_  c #0731C1",
"`  c #0E31D4",
"'  c #0E36E4",
"]  c #073EEF",
"[  c #021D6B",
"{  c #0C105A",
"}  c #221093",
"|  c #231DC1",
" . c #0331B8",
".. c #01103D",
"X. c #0B001D",
"o. c #210056",
"O. c #04000A",
"+. c #A7AFB4",
"@. c black",
"#. c #B4BBC0",
"$. c #AFB7BC",
"%. c #B9BAC9",
"&. c #A19CBD",
"*. c #8B81AC",
"=. c #2237AF",
"-. c #0D61C5",
";. c #948AB3",
":. c #A7A1C2",
">. c #7254AC",
",. c #562BA0",
"<. c #0758DD",
"1. c #592EA3",
"2. c #7657AF",
"3. c #998FB9",
"4. c #7D73B4",
"5. c #473CA8",
"6. c #483DA9",
"7. c #562CA0",
"8. c #453AA6",
"9. c #3B0099",
"0. c #40178D",
"q. c #352B97",
"w. c #1E53B0",
"e. c #1D52AE",
"r. c #4C4672",
"t. c #433C7F",
"y. c #3A2F9C",
"u. c #515D66",
"i. c #471E93",
/* pixels */
"    . X o o X O + + @ # o o o o o o $ % + + + & o o o * + + + = o o o o o o o o o o o - ; + + : > o o $ , + + + * o o o <       ",
"    . X o o X O + + @ # o o o o o o $ % + + + & o o o * + + + = o o o o o o o o o o o - ; + + : > o o $ , + + + * o o o <       ",
"1 1 2 3 4 4 5 @ + + 6 7 4 4 4 4 4 4 > 8 + + + 9 4 4 4 0 + + + q 4 4 4 4 4 4 4 4 4 4 4 w O + + : e 4 4 > r + + + t 4 4 y u 1 1 1 ",
"i i p @ @ @ a + + + + 6 @ @ @ @ @ @ @ : + + + : @ @ @ s + + + : @ @ @ @ @ @ @ @ @ @ @ @ + + + + 6 @ @ @ : + + + : @ @ @ q i i i ",
"o o d : + + + + + + + + + + + + + + + + + + + + + + + + + + + + + + + + + + + + + + + + + + + + + + + + + + + + + + + + f o o o ",
"o o d : + + + + + + + + + + + + + + + + + + + + + + + + + + + + + + + + + + + + + + + + + + + + + + + + + + + + + + + + f o o o ",
"g g > : + + + + + + + + + + + + + + + + + + + + + + + + + + + + + + + + + + + + + + + + + + + + + + + + + + + + + + + + 0 g g g ",
"h h q + + + + + + + + + + + + + + + + + + + + + + + + + + + + + + + + + + + + + + + + + + + + + + + + + + + + + + + + + j h h h ",
"+ + + + + + + + + + + + + + + + + + + + + + + + + + + + + + + + + + + + + + + + + + + + + + + + + + + + + + + + + + + + + + + + ",
"+ + + + + + + + + + + + + + + + + + + + + + + + + + + + + + + + + + + + + + + + + + + + + + + + + + + + + + + + + + + + + + + + ",
"+ + + + + + + + + + + + + + + + + + + + + + + + + + + + + + + + + + + + + + + + + + + + + + + + + + + + + + + + + + + + + + + + ",
"p p 8 + + + + + + + + + + + + + + + + + + + + + + + + + + + + + + + + + + + + + + + + + + + + + + + + + + + + + + + + + k p p p ",
"o o d : + + + + + + + + + + + + + + + + + + + + + + + + + + + + + + + + + + + + + + + + + + + + + + + + + + + + + + + + f o o o ",
"o o d : + + + + + + + + + + + + + + + + + + + + + + + + + + + + + + + + + + + + + + + + + + + + + + + + + + + + + + + + f o o o ",
"o o d : + + + + + + + + + + + + + + + + + + + + + + + + + + + + + + + + + + + + + + + + + + + + + + + + + + + + + + + + f o o o ",
"o o d : + + + + + + + + + + + + + + + + + + + + + + + + + + + + + + + + + + + + + + + + + + + + + + + + + + + + + + + + 0 l l l ",
"o o d : + + + + + + + + + + + + + + + + + + + + + + + + + + + + + + + + + + + + + + + + + + + + + + + + + + + + + + + + 6 ; ; ; ",
"o o d : + + + + + + + + + + + + + + + + + + + + + + + + + + + + + + + + + + + + + + + + + + + + + + + + + + + + + + + + + + + + ",
"o o d : + + + + + + + + + + + + + + + + + + + + + + + + + + + + + + + + + + + + + + + + + + + + + + + + + + + + + + + + + + + + ",
"o o d : + + + + + + + + + + + + + + + + + + + + + + + + + + + + + + + + + + + + + + + + + + + + + + + + + + + + + + + + + + + + ",
"z z t + + + + + + + + + + + + + + + + + + + + + + + + + + + + + + + + + + + + + + + + + + + + + + + + + + + + + + + + + x c c c ",
"+ + + + + + + + + + + + + + + + + + + + + + + + + + + + + + + + + + + + + + + + + + + + + + + + + + + + + + + + + + + + f $ $ $ ",
"+ + + + + + + + + + + + + + + + + + + + + + + + + + + + + + + + + + + + + + + + + + + + + + + + + + + + + + + + + + + + f o o o ",
"+ + + + + + + + + + + + + + + + + + + + + + + + + + + + + + + + + + + + + + + + + + + + + + + + + + + + + + + + + + + + f o o o ",
"x x k + + + + + + + + + + + + + + + + + + + + + + + + + + + + + + + + + + + + + + + + + + + + + + + + + + + + + + + + + f o o o ",
"v v b : + + + + + + + + + + + + + + + + + + + + + + + + + + + + + + + + + + + + + + + + + + + + + + + + + + + + + + + + f o o o ",
"o o d : + + + + + + + + + + + + + + + + + + + + + + + + + + + + + + + + + + + + + + + + + + + + + + + + + + + + + + + + f o o o ",
"o o d : + + + + + + + + + + + + + + + + + + + + + + + + + + + + + + + + + + + + + + + + + + + + + + + + + + + + + + + + f o o o ",
"$ $ > : + + + + + + + + + + + + + + + + + + + + + + + + + + + + + + + + + + + + + + + + + + + + + + + + + + + + + + + + f o o o ",
"t t n + + + + + + + + + + + + + + + + + + + + + + m M N N N N N N N N N N M m + + + + + + + + + + + + + + + + + + + + + f o o o ",
"+ + + + + + + + + + + + + + + + + + + + + + + + + M B V V V V V V V V V V B M + + + + + + + + + + + + + + + + + + + + + f o o o ",
"+ + + + + + + + + + + + + + + + + + + + + + + m M C Z A A A A A A A A A A Z C M m + + + + + + + + + + + + + + + + + + + f o o o ",
"+ + + + + + + + + + + + + + + + + + + + + + + M B Z S D D D D D D D D D D S Z B M + + + + + + + + + + + + + + + + + + + f o o o ",
"F F q + + + + + + + + + + + + + + + + m M N N C Z G H J J J J J J J J J J H G Z C N N M m + + + + + + + + + + + + + + + F b b b ",
"K K L : + + + + + + + + + + + + + + + M B V V Z S H P J J J J J J J J J J P H S Z V V B M + + + + + + + + + + + + + + + : 6 6 6 ",
"o o d : + + + + + + + + + + + + + m M C Z A A G H I U Y Y Y Y Y Y Y Y Y Y U I H G A A Z C M m + + + + + + + + + + + + + + + + + ",
"o o d : + + + + + + + + + + + + + M B Z S D D H P U T R R R R R R R R R R T U P H D D S Z B M + + + + + + + + + + + + + + + + + ",
"o o d : + + + + + + + + + + + m M C Z G H J J I U E W Q Q Q Q Q Q Q Q Q Q W E U I J J H G Z C M m + + + + + + + + + + + : 6 6 6 ",
"o o d : + + + + + + + + + + + M B Z S H P J J U T W ! Q Q Q Q Q Q Q Q Q Q ! W T U J J P H S Z B M + + + + + + + + + + + ~ 4 4 4 ",
"o o d : + + + + + + + + + m M C Z G H I U Y Y E W Q Q Q Q Q Q Q Q Q Q Q Q Q Q W E Y Y U I H G Z C M m + + + + + + + + + f o o o ",
"o o d : + + + + + + + + + M B Z S H P U T R R W ! Q Q Q Q Q Q Q Q Q Q Q Q Q Q ! W R R T U P H S Z B M + + + + + + + + + f o o o ",
"o o d : + + + + + + + m M C Z G H I U E W Q Q Q Q Q Q Q Q Q Q Q Q Q Q Q Q Q Q Q Q Q Q W E U I H G Z C M m + + + + + + + f ^ ^ ^ ",
"o o d : + + + + + + + M B Z S H P U T W ! Q Q Q Q Q Q Q Q Q Q Q Q Q Q Q Q Q Q Q Q Q Q ! W T U P H S Z B M + + + + + + + / e e e ",
"o o d : + + + + + + + N V A D I U E W Q Q Q Q Q Q ( ) _ ` ' ] Q Q ] ' ` _ ) ( Q Q Q Q Q Q W E U I D A V N + + + + + + + + + + + ",
"o o d : + + + + + + + N V A D U T W ! Q Q Q Q Q Q ) [ { } | ' Q Q ' | } { [ ) Q Q Q Q Q Q ! W T U D A V N + + + + + + + + + + + ",
"o o d : + + + + + m M C Z G H Y R Q Q Q Q Q Q Q Q  ...X.o.} ` Q Q ` } o.X... .Q Q Q Q Q Q Q Q R Y H G Z C M m + + + + + + + + + ",
"X X 5 : + + + + + M B Z S H P Y R Q Q Q Q Q Q Q Q  ...O.X.{ _ Q Q _ { X.O... .Q Q Q Q Q Q Q Q R Y P H S Z B M + + + + + : j j j ",
"O O +.+ + + + m M C Z G H I U E W Q Q Q Q Q Q Q Q  ...@.@... .Q Q  ...@.@... .Q Q Q Q Q Q Q Q W E U I H G Z C M m + + + t X X X ",
"+ + + + + + + M B Z S H P U T W ! Q Q Q Q Q Q Q Q  ...@.@... .Q Q  ...@.@... .Q Q Q Q Q Q Q Q ! W T U P H S Z B M + + + f o o o ",
"+ + + + + m M C Z G H I U E W ! W W ! Q Q Q Q Q Q ) [ ....[ ) Q Q ) [ ....[ ) Q Q Q Q Q Q Q Q Q Q W E U I H G Z C M m + f o o o ",
"+ + + + + M B Z S H P U T W ! W E E W Q Q Q Q Q Q ( )  . .) ( Q Q ( )  . .) ( Q Q Q Q Q Q Q Q Q Q ! W T U P H S Z B M + f o o o ",
"#.#.$.+ + N V A D I U E W Q Q R Y Y R Q Q Q Q Q Q Q Q Q Q Q Q Q Q Q Q Q Q Q Q Q Q Q Q Q Q ! W W ! Q Q W E U I D A V N + f o o o ",
"o o d : + N V A D U T W ! Q Q R Y Y R Q Q Q Q Q Q Q Q Q Q Q Q Q Q Q Q Q Q Q Q Q Q Q Q Q Q W E E W Q Q ! W T U D A V N + f o o o ",
"o %.&.*.N C Z =.-.E W Q Q Q Q R Y U T W ! Q Q Q Q Q Q Q Q Q Q Q Q Q Q Q Q Q Q Q Q Q Q Q Q R Y Y R Q Q Q Q W E -.=.Z C N ;.:.%.o ",
"o :.>.,.V Z S -.<.W ! Q Q Q Q R Y I U E W Q Q Q Q Q Q Q Q Q Q Q Q Q Q Q Q Q Q Q Q Q Q Q Q R Y Y R Q Q Q Q ! W <.-.S Z V 1.2.:.o ",
"3.4.5.A A G H Y R Q Q Q Q ! W T U J J U T W ! Q Q Q Q Q Q Q Q Q Q Q Q Q Q Q Q Q Q Q Q ! W T U U T W ! Q Q Q Q R Y H G A A 6.4.3.",
"7.8.S D D H P Y R Q Q Q Q W E U I J J I U E W Q Q Q Q Q Q Q Q Q Q Q Q Q Q Q Q Q Q Q Q W E U I I U E W Q Q Q Q R Y P H D D S 8.7.",
"9.A D J J I U E W Q Q Q Q W E Y Y Y Y Y Y E W Q Q Q Q Q Q Q Q Q Q Q Q Q Q Q Q Q Q Q Q W E Y Y Y Y E W Q Q Q Q W E U I J J D A 9.",
"9.A D J J U T W ! Q Q Q Q ! W R R R R R R W ! Q Q Q Q Q Q Q Q Q Q Q Q Q Q Q Q Q Q Q Q ! W R R R R W ! Q Q Q Q ! W T U J J D A 9.",
"9.A D J J U T R R R R R R R R R R R R R R R R R R R R R R R R R R R R R R R R R R R R R R R R R R R R R R R R R R T U J J D A 9.",
"9.A D J J I U Y Y Y Y Y Y Y Y Y Y Y Y Y Y Y Y Y Y Y Y Y Y Y Y Y Y Y Y Y Y Y Y Y Y Y Y Y Y Y Y Y Y Y Y Y Y Y Y Y Y U I J J D A 9.",
"0.q.w.D D D D D D D D D D D D D D D D D D D D D D D D D D D D D D D D D D D D D D D D D D D D D D D D D D D D D D D D D D e.q.0.",
"r.t.y.A A A A A A A A A A A A A A A A A A A A A A A A A A A A A A A A A A A A A A A A A A A A A A A A A A A A A A A A A A q.t.r.",
"u.r.i.9.9.9.9.9.9.9.9.9.9.9.9.9.9.9.9.9.9.9.9.9.9.9.9.9.9.9.9.9.9.9.9.9.9.9.9.9.9.9.9.9.9.9.9.9.9.9.9.9.9.9.9.9.9.9.9.9.9.0.r.u."
};
