/* XPM */
static char *rcp09394805127648[] = {
/* columns rows colors chars-per-pixel */
"64 64 134 2 ",
"   c #3C454C",
".  c #5C646B",
"X  c #BCC2C7",
"o  c #C1C7CC",
"O  c #A8B0B6",
"+  c #A4ACB2",
"@  c #A7AFB5",
"#  c #BBC1C6",
"$  c #C0C6CB",
"%  c #AFB6BB",
"&  c #B3BABF",
"*  c #B4BAC0",
"=  c #ADB4BA",
"-  c #BEC4CA",
";  c #AAB1B7",
":  c #A5ADB3",
">  c #B8BFC4",
",  c #AEB6BB",
"<  c #838B91",
"1  c #5E676E",
"2  c #747C82",
"3  c #B5BCC1",
"4  c #B9BFC5",
"5  c #B6BCC2",
"6  c #A6AEB4",
"7  c #B4BBC1",
"8  c #ACB3B9",
"9  c #AEB6BC",
"0  c #B0B7BC",
"q  c #ABB2B8",
"w  c #B7BDC3",
"e  c #B3BAC0",
"r  c #ABB3B9",
"t  c #AFB6BC",
"y  c #B9BFC4",
"u  c #8F969C",
"i  c #B1B7BD",
"p  c #AEB5BB",
"a  c #A7AEB4",
"s  c #A6ADB3",
"d  c #B9C0C5",
"f  c #B1B8BD",
"g  c #BFC5CA",
"h  c #ADB5BB",
"j  c #A8AFB5",
"k  c #A9B0B6",
"l  c #BEC4C9",
"z  c #B2B9BE",
"x  c #AAB2B7",
"c  c #B2B9BF",
"v  c #BDC3C8",
"b  c #B7BEC3",
"n  c #9EA1B1",
"m  c #908CAD",
"M  c #8A81AB",
"N  c #694CA4",
"B  c #552BA0",
"V  c #7268AA",
"C  c #443AA6",
"Z  c #2D22A4",
"A  c #2257B3",
"S  c #1066B9",
"D  c #ACB4B9",
"F  c #223BAC",
"G  c #0D6EBC",
"H  c #0288C4",
"J  c #0680C1",
"K  c #0284C7",
"L  c #027BCD",
"P  c #0276D0",
"I  c #0361DF",
"U  c #0353E9",
"Y  c #ACB4BA",
"T  c #0369D9",
"R  c #044FEC",
"E  c #0442F5",
"W  c #BEC5CA",
"Q  c #B8BEC4",
"!  c #0446F2",
"~  c #ADB5BA",
"^  c #043EE6",
"/  c #0336C7",
"(  c #0731C1",
")  c #0E31D4",
"_  c #0E36E4",
"`  c #073EEF",
"'  c #021D6B",
"]  c #0C105A",
"[  c #221093",
"{  c #231DC1",
"}  c #0331B8",
"|  c #01103D",
" . c #0B001D",
".. c #210056",
"X. c #C0C6CC",
"o. c #04000A",
"O. c #ABB3B8",
"+. c black",
"@. c #A7AFB4",
"#. c #B4BBC0",
"$. c #AFB7BC",
"%. c #AAACBB",
"&. c #918CAE",
"*. c #9B95B6",
"=. c #8B81AC",
"-. c #948AB3",
";. c #9187B1",
":. c #9EA5AC",
">. c #9FA7AE",
",. c #918CAF",
"<. c #6A4CA5",
"1. c #453AA6",
"2. c #8E8AAC",
"3. c #6C777E",
"4. c #7E888F",
"5. c #ADAFBE",
"6. c #9F99BA",
"7. c #7D72B3",
"8. c #473CA8",
"9. c #483DA9",
"0. c #8F93A3",
"q. c #515D66",
"w. c #6C767E",
"e. c #A7A1C2",
"r. c #7455AD",
"t. c #7657AF",
"y. c #8C969C",
"u. c #B9BAC9",
"i. c #A39DBF",
"p. c #746BAC",
"a. c #7B70B1",
"s. c #8D84AE",
"d. c #3B0099",
"f. c #968BB6",
/* pixels */
"    . X o o X O + + @ # o o o o o o $ % + + + & o o o * + + + = o o o o o o o o o o o - ; + + : > o o $ , + + + * o o o <       ",
"    . X o o X O + + @ # o o o o o o $ % + + + & o o o * + + + = o o o o o o o o o o o - ; + + : > o o $ , + + + * o o o <       ",
"1 1 2 3 4 4 5 @ + + 6 7 4 4 4 4 4 4 > 8 + + + 9 4 4 4 0 + + + q 4 4 4 4 4 4 4 4 4 4 4 w O + + : e 4 4 > r + + + t 4 4 y u 1 1 1 ",
"i i p @ @ @ a + + + + 6 @ @ @ @ @ @ @ : + + + : @ @ @ s + + + : @ @ @ @ @ @ @ @ @ @ @ @ + + + + 6 @ @ @ : + + + : @ @ @ q i i i ",
"o o d : + + + + + + + + + + + + + + + + + + + + + + + + + + + + + + + + + + + + + + + + + + + + + + + + + + + + + + + + f o o o ",
"o o d : + + + + + + + + + + + + + + + + + + + + + + + + + + + + + + + + + + + + + + + + + + + + + + + + + + + + + + + + f o o o ",
"g g > : + + + + + + + + + + + + + + + + + + + + + + + + + + + + + + + + + + + + + + + + + + + + + + + + + + + + + + + + 0 g g g ",
"h h q + + + + + + + + + + + + + + + + + + + + + + + + + + + + + + + + + + + + + + + + + + + + + + + + + + + + + + + + + j h h h ",
"+ + + + + + + + + + + + + + + + + + + + + + + + + + + + + + + + + + + + + + + + + + + + + + + + + + + + + + + + + + + + + + + + ",
"+ + + + + + + + + + + + + + + + + + + + + + + + + + + + + + + + + + + + + + + + + + + + + + + + + + + + + + + + + + + + + + + + ",
"+ + + + + + + + + + + + + + + + + + + + + + + + + + + + + + + + + + + + + + + + + + + + + + + + + + + + + + + + + + + + + + + + ",
"p p 8 + + + + + + + + + + + + + + + + + + + + + + + + + + + + + + + + + + + + + + + + + + + + + + + + + + + + + + + + + k p p p ",
"o o d : + + + + + + + + + + + + + + + + + + + + + + + + + + + + + + + + + + + + + + + + + + + + + + + + + + + + + + + + f o o o ",
"o o d : + + + + + + + + + + + + + + + + + + + + + + + + + + + + + + + + + + + + + + + + + + + + + + + + + + + + + + + + f o o o ",
"o o d : + + + + + + + + + + + + + + + + + + + + + + + + + + + + + + + + + + + + + + + + + + + + + + + + + + + + + + + + f o o o ",
"o o d : + + + + + + + + + + + + + + + + + + + + + + + + + + + + + + + + + + + + + + + + + + + + + + + + + + + + + + + + 0 l l l ",
"o o d : + + + + + + + + + + + + + + + + + + + + + + + + + + + + + + + + + + + + + + + + + + + + + + + + + + + + + + + + 6 ; ; ; ",
"o o d : + + + + + + + + + + + + + + + + + + + + + + + + + + + + + + + + + + + + + + + + + + + + + + + + + + + + + + + + + + + + ",
"o o d : + + + + + + + + + + + + + + + + + + + + + + + + + + + + + + + + + + + + + + + + + + + + + + + + + + + + + + + + + + + + ",
"o o d : + + + + + + + + + + + + + + + + + + + + + + + + + + + + + + + + + + + + + + + + + + + + + + + + + + + + + + + + + + + + ",
"z z t + + + + + + + + + + + + + + + + + + + + + + + + + + + + + + + + + + + + + + + + + + + + + + + + + + + + + + + + + x c c c ",
"+ + + + + + + + + + + + + + + + + + + + + + + + + + + + + + + + + + + + + + + + + + + + + + + + + + + + + + + + + + + + f $ $ $ ",
"+ + + + + + + + + + + + + + + + + + + + + + + + + + + + + + + + + + + + + + + + + + + + + + + + + + + + + + + + + + + + f o o o ",
"+ + + + + + + + + + + + + + + + + + + + + + + + + + + + + + + + + + + + + + + + + + + + + + + + + + + + + + + + + + + + f o o o ",
"x x k + + + + + + + + + + + + + + + + + + + + + + + + + + + + + + + + + + + + + + + + + + + + + + + + + + + + + + + + + f o o o ",
"v v b : + + + + + + + + + + + + + + + + + + + + + n m M M M M M M M M M M m n + + + + + + + + + + + + + + + + + + + + + f o o o ",
"o o d : + + + + + + + + + + + + + + + + + + + + + m N B B B B B B B B B B N m + + + + + + + + + + + + + + + + + + + + + f o o o ",
"o o d : + + + + + + + + + + + + + + + + + + + n m V C Z Z Z Z Z Z Z Z Z Z C V m n + + + + + + + + + + + + + + + + + + + f o o o ",
"$ $ > : + + + + + + + + + + + + + + + + + + + m N C A S S S S S S S S S S A C N m + + + + + + + + + + + + + + + + + + + f o o o ",
"t t D + + + + + + + + + + + + + + + + n m M M V C F G H H H H H H H H H H G F C V M M m n + + + + + + + + + + + + + + + f o o o ",
"+ + + + + + + + + + + + + + + + + + + m N B B C A G J H H H H H H H H H H J G A C B B N m + + + + + + + + + + + + + + + f o o o ",
"+ + + + + + + + + + + + + + + + + n m V C Z Z F G K L P P P P P P P P P P L K G F Z Z C V m n + + + + + + + + + + + + + f o o o ",
"+ + + + + + + + + + + + + + + + + m N C A S S G J L I U U U U U U U U U U I L J G S S A C N m + + + + + + + + + + + + + f o o o ",
"Y Y q + + + + + + + + + + + + n m V C F G H H K L T R E E E E E E E E E E R T L K H H G F C V m n + + + + + + + + + + + Y b b b ",
"W W Q : + + + + + + + + + + + m N C A G J H H L I R ! E E E E E E E E E E ! R I L H H J G A C N m + + + + + + + + + + + : 6 6 6 ",
"o o d : + + + + + + + + + n m V C F G K L P P T R E E E E E E E E E E E E E E R T P P L K G F C V m n + + + + + + + + + + + + + ",
"o o d : + + + + + + + + + m N C A G J L I U U R ! E E E E E E E E E E E E E E ! R U U I L J G A C N m + + + + + + + + + + + + + ",
"o o d : + + + + + + + n m V C F G K L T R E E E E E E E E E E E E E E E E E E E E E E R T L K G F C V m n + + + + + + + : 6 6 6 ",
"o o d : + + + + + + + m N C A G J L I R ! E E E E E E E E E E E E E E E E E E E E E E ! R I L J G A C N m + + + + + + + ~ 4 4 4 ",
"o o d : + + + + + + + M B Z S K L T R E E E E E E ^ / ( ) _ ` E E ` _ ) ( / ^ E E E E E E R T L K S Z B M + + + + + + + f o o o ",
"o o d : + + + + + + + M B Z S L I R ! E E E E E E / ' ] [ { _ E E _ { [ ] ' / E E E E E E ! R I L S Z B M + + + + + + + f o o o ",
"o o d : + + + + + n m V C F G P U E E E E E E E E } |  ...[ ) E E ) [ .. .| } E E E E E E E E U P G F C V m n + + + + + f X.X.X.",
"o o d : + + + + + m N C A G J P U E E E E E E E E } | o. .] ( E E ( ]  .o.| } E E E E E E E E U P J G A C N m + + + + + O.e e e ",
"o o d : + + + n m V C F G K L T R E E E E E E E E } | +.+.| } E E } | +.+.| } E E E E E E E E R T L K G F C V m n + + + + + + + ",
"o o d : + + + m N C A G J L I R ! E E E E E E E E } | +.+.| } E E } | +.+.| } E E E E E E E E ! R I L J G A C N m + + + + + + + ",
"o o d : + + + M B Z S K L T R E E ! R R ! E E E E / ' | | ' / E E / ' | | ' / E E E E ! R R ! E E R T L K S Z B M + + + + + + + ",
"X X 5 : + + + M B Z S L I R ! E E R T T R E E E E ^ / } } / ^ E E ^ / } } / ^ E E E E R T T R E E ! R I L S Z B M + + + : j j j ",
"O O @.+ + n m V C F G P U E E E E U P P U E E E E E E E E E E E E E E E E E E E E E E U P P U E E E E U P G F C V m n + t X X X ",
"+ + + + + m N C A G J P U E E E E U P P U E E E E E E E E E E E E E E E E E E E E E E U P P U E E E E U P J G A C N m + f o o o ",
"+ + + + + M B Z S K L T R E E E E U P P U E E E E E E E E E E E E E E E E E E E E E E U P L I R ! E E R T L K S Z B M + f o o o ",
"+ + + + + M B Z S L I R ! E E E E U P P U E E E E E E E E E E E E E E E E E E E E E E U P K L T R E E ! R I L S Z B M + f o o o ",
"#.#.$.n m V C F G P U E E E E E E U P L I R ! E E E E E E E E E E E E E E E E E E ! R I L H H P U E E E E U P G F C V m %.o o o ",
"o o d &.N C A G J P U E E E E E E U P K L T R E E E E E E E E E E E E E E E E E E R T L K H H P U E E E E U P J G A C N *.o o o ",
"o o d =.B Z S K L T R E E E E E E R T L K L I R ! E E E E E E E E E E E E ! R U U I L H H K L T R E E E E R T L K S Z B -.o o o ",
"o o d =.B Z S L I R ! E E E E E E ! R I L K L T R E E E E E E E E E E E E R T P P L K H H L I R ! E E E E ! R I L S Z B -.o o o ",
"> > e =.B Z S P U E E E E E E E E E E R T P P T R E E E E E E E E E E E E R T P P P P P P T R E E E E E E E E U P S Z B ;.> > > ",
"6 6 : M B Z S P U E E E E E E E E E E ! R U U R ! E E E E E E E E E E E E ! R U U U U U U R ! E E E E E E E E U P S Z B =.6 6 6 ",
"+ + + M B Z S L I R ! E E E E E E E E E E E E E E E E E E E E E E E E E E E E E E E E E E E E E E E E E E ! R I L S Z B M + + + ",
"+ + + M B Z S K L T R E E E E E E E E E E E E E E E E E E E E E E E E E E E E E E E E E E E E E E E E E E R T L K S Z B M + + + ",
":.:.>.,.<.1.A G J L I U U U U U U U U U U U U U U U U U U U U U U U U U U U U U U U U U U U U U U U U U U I L J G A 1.<.2.:.:.:.",
"3.3.4.5.6.7.8.F G K L P P P P P P P P P P P P P P P P P P P P P P P P P P P P P P P P P P P P P P P P P P L K G F 9.7.6.0.3.3.3.",
"q.q.w.v o e.r.1.A S S S S S S S S S S S S S S S S S S S S S S S S S S S S S S S S S S S S S S S S S S S S S S A 8.t.e.o y.q.q.q.",
"q.q.w.v o u.i.p.C Z Z Z Z Z Z Z Z Z Z Z Z Z Z Z Z Z Z Z Z Z Z Z Z Z Z Z Z Z Z Z Z Z Z Z Z Z Z Z Z Z Z Z Z Z Z C a.e.u.o y.q.q.q.",
"q.q.w.v o o X s.B d.d.d.d.d.d.d.d.d.d.d.d.d.d.d.d.d.d.d.d.d.d.d.d.d.d.d.d.d.d.d.d.d.d.d.d.d.d.d.d.d.d.d.d.d.d.B f.o o o y.q.q.q."
};
